G04 EAGLE Gerber RS-274X export*
G75*
%MOMM*%
%FSLAX34Y34*%
%LPD*%
%INTop Copper*%
%IPPOS*%
%AMOC8*
5,1,8,0,0,1.08239X$1,22.5*%
G01*
%ADD10C,1.524000*%
%ADD11R,1.200000X1.200000*%
%ADD12R,1.300000X1.500000*%
%ADD13R,1.676400X1.676400*%
%ADD14C,1.676400*%
%ADD15C,0.152500*%
%ADD16R,1.300000X0.300000*%
%ADD17R,2.200000X1.800000*%
%ADD18C,0.152400*%
%ADD19C,0.756400*%


D10*
X557620Y597300D02*
X542380Y597300D01*
X542380Y622700D02*
X557620Y622700D01*
X557620Y109200D02*
X542380Y109200D01*
X542380Y134600D02*
X557620Y134600D01*
X557620Y160000D02*
X542380Y160000D01*
X542380Y185400D02*
X557620Y185400D01*
X557620Y210800D02*
X542380Y210800D01*
X507620Y597300D02*
X492380Y597300D01*
X492380Y622700D02*
X507620Y622700D01*
X507620Y109200D02*
X492380Y109200D01*
X492380Y134600D02*
X507620Y134600D01*
X507620Y160000D02*
X492380Y160000D01*
X492380Y185400D02*
X507620Y185400D01*
X507620Y210800D02*
X492380Y210800D01*
D11*
X380500Y340000D03*
X359500Y340000D03*
X380500Y300000D03*
X359500Y300000D03*
X380500Y260000D03*
X359500Y260000D03*
X380500Y220000D03*
X359500Y220000D03*
D12*
X420500Y340000D03*
X439500Y340000D03*
X420500Y300000D03*
X439500Y300000D03*
X420500Y260000D03*
X439500Y260000D03*
X420500Y220000D03*
X439500Y220000D03*
D13*
X194250Y545600D03*
D14*
X194250Y520200D03*
X194250Y494800D03*
X194250Y469400D03*
X194250Y444000D03*
X194250Y418600D03*
X194250Y393200D03*
X194250Y367800D03*
X194250Y342400D03*
X194250Y317000D03*
X194250Y291600D03*
X194250Y266200D03*
X302200Y266200D03*
X302200Y291600D03*
X302200Y317000D03*
X302200Y342400D03*
X302200Y367800D03*
X302200Y393200D03*
X302200Y418600D03*
X302200Y444000D03*
X302200Y469400D03*
X302200Y494800D03*
X302200Y520200D03*
X302200Y545600D03*
D15*
X472562Y342012D02*
X490738Y342012D01*
X472562Y342012D02*
X472562Y346588D01*
X490738Y346588D01*
X490738Y342012D01*
X490738Y343461D02*
X472562Y343461D01*
X472562Y344910D02*
X490738Y344910D01*
X490738Y346359D02*
X472562Y346359D01*
X472562Y329312D02*
X490738Y329312D01*
X472562Y329312D02*
X472562Y333888D01*
X490738Y333888D01*
X490738Y329312D01*
X490738Y330761D02*
X472562Y330761D01*
X472562Y332210D02*
X490738Y332210D01*
X490738Y333659D02*
X472562Y333659D01*
X472562Y316612D02*
X490738Y316612D01*
X472562Y316612D02*
X472562Y321188D01*
X490738Y321188D01*
X490738Y316612D01*
X490738Y318061D02*
X472562Y318061D01*
X472562Y319510D02*
X490738Y319510D01*
X490738Y320959D02*
X472562Y320959D01*
X472562Y303912D02*
X490738Y303912D01*
X472562Y303912D02*
X472562Y308488D01*
X490738Y308488D01*
X490738Y303912D01*
X490738Y305361D02*
X472562Y305361D01*
X472562Y306810D02*
X490738Y306810D01*
X490738Y308259D02*
X472562Y308259D01*
X472562Y291212D02*
X490738Y291212D01*
X472562Y291212D02*
X472562Y295788D01*
X490738Y295788D01*
X490738Y291212D01*
X490738Y292661D02*
X472562Y292661D01*
X472562Y294110D02*
X490738Y294110D01*
X490738Y295559D02*
X472562Y295559D01*
X472562Y278512D02*
X490738Y278512D01*
X472562Y278512D02*
X472562Y283088D01*
X490738Y283088D01*
X490738Y278512D01*
X490738Y279961D02*
X472562Y279961D01*
X472562Y281410D02*
X490738Y281410D01*
X490738Y282859D02*
X472562Y282859D01*
X472562Y265812D02*
X490738Y265812D01*
X472562Y265812D02*
X472562Y270388D01*
X490738Y270388D01*
X490738Y265812D01*
X490738Y267261D02*
X472562Y267261D01*
X472562Y268710D02*
X490738Y268710D01*
X490738Y270159D02*
X472562Y270159D01*
X541862Y265812D02*
X560038Y265812D01*
X541862Y265812D02*
X541862Y270388D01*
X560038Y270388D01*
X560038Y265812D01*
X560038Y267261D02*
X541862Y267261D01*
X541862Y268710D02*
X560038Y268710D01*
X560038Y270159D02*
X541862Y270159D01*
X541862Y278512D02*
X560038Y278512D01*
X541862Y278512D02*
X541862Y283088D01*
X560038Y283088D01*
X560038Y278512D01*
X560038Y279961D02*
X541862Y279961D01*
X541862Y281410D02*
X560038Y281410D01*
X560038Y282859D02*
X541862Y282859D01*
X541862Y291212D02*
X560038Y291212D01*
X541862Y291212D02*
X541862Y295788D01*
X560038Y295788D01*
X560038Y291212D01*
X560038Y292661D02*
X541862Y292661D01*
X541862Y294110D02*
X560038Y294110D01*
X560038Y295559D02*
X541862Y295559D01*
X541862Y303912D02*
X560038Y303912D01*
X541862Y303912D02*
X541862Y308488D01*
X560038Y308488D01*
X560038Y303912D01*
X560038Y305361D02*
X541862Y305361D01*
X541862Y306810D02*
X560038Y306810D01*
X560038Y308259D02*
X541862Y308259D01*
X541862Y316612D02*
X560038Y316612D01*
X541862Y316612D02*
X541862Y321188D01*
X560038Y321188D01*
X560038Y316612D01*
X560038Y318061D02*
X541862Y318061D01*
X541862Y319510D02*
X560038Y319510D01*
X560038Y320959D02*
X541862Y320959D01*
X541862Y329312D02*
X560038Y329312D01*
X541862Y329312D02*
X541862Y333888D01*
X560038Y333888D01*
X560038Y329312D01*
X560038Y330761D02*
X541862Y330761D01*
X541862Y332210D02*
X560038Y332210D01*
X560038Y333659D02*
X541862Y333659D01*
X541862Y342012D02*
X560038Y342012D01*
X541862Y342012D02*
X541862Y346588D01*
X560038Y346588D01*
X560038Y342012D01*
X560038Y343461D02*
X541862Y343461D01*
X541862Y344910D02*
X560038Y344910D01*
X560038Y346359D02*
X541862Y346359D01*
D16*
X18900Y575500D03*
X18900Y580500D03*
X18900Y585500D03*
X18900Y590500D03*
X18900Y595500D03*
X18900Y600500D03*
X18900Y605500D03*
X18900Y610500D03*
X18900Y615500D03*
X18900Y620500D03*
X18900Y625500D03*
X18900Y630500D03*
X18900Y635500D03*
X18900Y640500D03*
X18900Y645500D03*
X18900Y650500D03*
X18900Y655500D03*
X18900Y660500D03*
X18900Y665500D03*
X18900Y670500D03*
D17*
X51400Y689500D03*
X51400Y556500D03*
D16*
X72500Y280500D03*
X72500Y285500D03*
X72500Y290500D03*
X72500Y295500D03*
X72500Y300500D03*
X72500Y305500D03*
X72500Y310500D03*
X72500Y315500D03*
X72500Y320500D03*
X72500Y325500D03*
X72500Y330500D03*
X72500Y335500D03*
X72500Y340500D03*
X72500Y345500D03*
X72500Y350500D03*
X72500Y355500D03*
X72500Y360500D03*
X72500Y365500D03*
X72500Y370500D03*
X72500Y375500D03*
D17*
X105000Y394500D03*
X105000Y261500D03*
D16*
X232500Y32500D03*
X232500Y37500D03*
X232500Y42500D03*
X232500Y47500D03*
X232500Y52500D03*
X232500Y57500D03*
X232500Y62500D03*
X232500Y67500D03*
X232500Y72500D03*
X232500Y77500D03*
X232500Y82500D03*
X232500Y87500D03*
X232500Y92500D03*
X232500Y97500D03*
X232500Y102500D03*
X232500Y107500D03*
X232500Y112500D03*
X232500Y117500D03*
X232500Y122500D03*
X232500Y127500D03*
D17*
X265000Y146500D03*
X265000Y13500D03*
D16*
X507500Y433500D03*
X507500Y438500D03*
X507500Y443500D03*
X507500Y448500D03*
X507500Y453500D03*
X507500Y458500D03*
X507500Y463500D03*
X507500Y468500D03*
X507500Y473500D03*
X507500Y478500D03*
X507500Y483500D03*
X507500Y488500D03*
X507500Y493500D03*
X507500Y498500D03*
X507500Y503500D03*
X507500Y508500D03*
X507500Y513500D03*
X507500Y518500D03*
X507500Y523500D03*
X507500Y528500D03*
D17*
X540000Y547500D03*
X540000Y414500D03*
D18*
X89916Y445008D02*
X89916Y467868D01*
X86868Y470916D01*
X408432Y144780D02*
X425196Y144780D01*
X434340Y153924D01*
X434340Y160020D01*
X484632Y210312D01*
X499872Y210312D01*
X500000Y210800D01*
X120396Y143256D02*
X115824Y143256D01*
X120396Y143256D02*
X138684Y161544D01*
X156972Y161544D01*
X167640Y172212D01*
X240792Y172212D01*
X89916Y440436D02*
X89916Y445008D01*
X89916Y440436D02*
X64008Y414528D01*
X64008Y408432D01*
X71628Y400812D01*
X80772Y400812D01*
X91440Y390144D01*
X91440Y367284D01*
X117348Y341376D01*
X114300Y320040D02*
X111252Y320040D01*
X91440Y300228D01*
D19*
X89916Y445008D03*
X86868Y470916D03*
X408432Y144780D03*
X115824Y143256D03*
X240792Y172212D03*
X117348Y341376D03*
X114300Y320040D03*
X91440Y300228D03*
D18*
X344424Y297180D02*
X344424Y312420D01*
X117348Y467868D02*
X117348Y477012D01*
X135636Y495300D01*
X135636Y519684D01*
X147828Y531876D01*
X147828Y547116D01*
X166116Y166116D02*
X228600Y166116D01*
X166116Y166116D02*
X152400Y152400D01*
X134112Y152400D01*
X115824Y134112D01*
D19*
X344424Y312420D03*
X344424Y297180D03*
X117348Y467868D03*
X147828Y547116D03*
X228600Y166116D03*
X115824Y134112D03*
D18*
X507492Y473964D02*
X507492Y477012D01*
X507492Y473964D02*
X507500Y473500D01*
X507492Y477012D02*
X507500Y478500D01*
X507492Y457200D02*
X507492Y454152D01*
X507500Y453500D01*
X507492Y457200D02*
X507500Y458500D01*
X507492Y464820D02*
X507492Y467868D01*
X507492Y464820D02*
X507500Y463500D01*
X507492Y467868D02*
X507500Y468500D01*
X507492Y463296D02*
X507492Y458724D01*
X507500Y458500D01*
X507492Y463296D02*
X507500Y463500D01*
X507492Y469392D02*
X507492Y472440D01*
X507500Y473500D01*
X507492Y469392D02*
X507500Y468500D01*
X507492Y484632D02*
X507492Y487680D01*
X507492Y484632D02*
X507500Y483500D01*
X507492Y487680D02*
X507500Y488500D01*
X507492Y489204D02*
X507492Y492252D01*
X507500Y493500D01*
X507492Y489204D02*
X507500Y488500D01*
X507492Y499872D02*
X507492Y502920D01*
X507492Y499872D02*
X507500Y498500D01*
X507492Y502920D02*
X507500Y503500D01*
X507492Y509016D02*
X507492Y512064D01*
X507492Y509016D02*
X507500Y508500D01*
X507492Y512064D02*
X507500Y513500D01*
X507492Y507492D02*
X507492Y504444D01*
X507500Y503500D01*
X507492Y507492D02*
X507500Y508500D01*
X507492Y498348D02*
X507492Y493776D01*
X507492Y498348D02*
X507500Y498500D01*
X507492Y483108D02*
X507492Y478536D01*
X507500Y478500D01*
X507492Y483108D02*
X507500Y483500D01*
X507492Y524256D02*
X495300Y524256D01*
X507492Y522732D02*
X507492Y519684D01*
X507500Y518500D01*
X507492Y522732D02*
X507500Y523500D01*
X507492Y524256D02*
X507492Y527304D01*
X507500Y528500D01*
X507492Y524256D02*
X507500Y523500D01*
X507492Y518160D02*
X507492Y513588D01*
X507500Y513500D01*
X507492Y518160D02*
X507500Y518500D01*
X499872Y452628D02*
X460248Y413004D01*
X499872Y452628D02*
X507492Y452628D01*
X507500Y453500D01*
X551688Y330708D02*
X551688Y320040D01*
X550950Y318900D01*
X551688Y330708D02*
X550950Y331600D01*
X512064Y268224D02*
X483108Y268224D01*
X512064Y268224D02*
X536448Y292608D01*
X550164Y292608D01*
X483108Y268224D02*
X481650Y268100D01*
X550164Y292608D02*
X550950Y293500D01*
X551688Y294132D02*
X551688Y304800D01*
X550950Y306200D01*
X551688Y294132D02*
X550950Y293500D01*
X551688Y306324D02*
X551688Y318516D01*
X550950Y318900D01*
X551688Y306324D02*
X550950Y306200D01*
X470916Y256032D02*
X461772Y256032D01*
X470916Y256032D02*
X481584Y266700D01*
X481650Y268100D01*
X512064Y146304D02*
X501396Y135636D01*
X512064Y146304D02*
X513588Y146304D01*
X528828Y161544D01*
X528828Y230124D01*
X563880Y265176D01*
X563880Y284988D01*
X556260Y292608D01*
X551688Y292608D01*
X501396Y135636D02*
X500000Y134600D01*
X551688Y292608D02*
X550950Y293500D01*
X541020Y332232D02*
X460248Y413004D01*
X541020Y332232D02*
X550164Y332232D01*
X550950Y331600D01*
X301752Y291084D02*
X301752Y266700D01*
X302200Y266200D01*
X301752Y291084D02*
X302200Y291600D01*
X301752Y292608D02*
X301752Y316992D01*
X301752Y292608D02*
X302200Y291600D01*
X301752Y316992D02*
X302200Y317000D01*
X301752Y368808D02*
X301752Y393192D01*
X301752Y368808D02*
X302200Y367800D01*
X301752Y393192D02*
X302200Y393200D01*
X301752Y394716D02*
X301752Y417576D01*
X302200Y418600D01*
X301752Y394716D02*
X302200Y393200D01*
X301752Y445008D02*
X301752Y469392D01*
X301752Y445008D02*
X302200Y444000D01*
X301752Y469392D02*
X302200Y469400D01*
X301752Y443484D02*
X301752Y419100D01*
X302200Y418600D01*
X301752Y443484D02*
X302200Y444000D01*
X301752Y367284D02*
X301752Y342900D01*
X302200Y342400D01*
X301752Y367284D02*
X302200Y367800D01*
X92964Y539496D02*
X131064Y577596D01*
X193548Y291084D02*
X193548Y266700D01*
X194250Y266200D01*
X193548Y291084D02*
X194250Y291600D01*
X193548Y318516D02*
X193548Y341376D01*
X193548Y318516D02*
X194250Y317000D01*
X193548Y341376D02*
X194250Y342400D01*
X193548Y316992D02*
X193548Y292608D01*
X194250Y291600D01*
X194250Y317000D02*
X193548Y316992D01*
X193548Y419100D02*
X193548Y443484D01*
X194250Y444000D01*
X193548Y419100D02*
X194250Y418600D01*
X193548Y367284D02*
X193548Y342900D01*
X194250Y342400D01*
X193548Y367284D02*
X194250Y367800D01*
X175260Y246888D02*
X158496Y246888D01*
X175260Y246888D02*
X193548Y265176D01*
X194250Y266200D01*
X329184Y493776D02*
X507492Y493776D01*
X329184Y493776D02*
X306324Y470916D01*
X303276Y470916D01*
X507500Y493500D02*
X507492Y493776D01*
X303276Y470916D02*
X302200Y469400D01*
D19*
X495300Y524256D03*
X460248Y413004D03*
X461772Y256032D03*
X131064Y577596D03*
X92964Y539496D03*
X158496Y246888D03*
D18*
X551688Y344424D02*
X551688Y402336D01*
X571500Y422148D01*
X571500Y623316D01*
X560832Y633984D01*
X489204Y633984D01*
X470916Y615696D02*
X435864Y580644D01*
X470916Y615696D02*
X489204Y633984D01*
X435864Y580644D02*
X435864Y556260D01*
X426720Y547116D01*
X303276Y547116D01*
X550950Y344300D02*
X551688Y344424D01*
X302200Y545600D02*
X303276Y547116D01*
X420624Y644652D02*
X441960Y644652D01*
X470916Y615696D01*
X501396Y109728D02*
X548640Y109728D01*
X550000Y109200D01*
X501396Y109728D02*
X500000Y109200D01*
X350520Y160020D02*
X350520Y181356D01*
X350520Y160020D02*
X350520Y152400D01*
X335280Y172212D02*
X335280Y307848D01*
X335280Y172212D02*
X332232Y169164D01*
X332232Y163068D01*
X335280Y160020D01*
X350520Y160020D01*
D19*
X420624Y644652D03*
X350520Y152400D03*
X350520Y181356D03*
X335280Y307848D03*
D18*
X196596Y254508D02*
X181356Y239268D01*
X196596Y254508D02*
X198120Y254508D01*
X208788Y265176D01*
X208788Y368808D01*
D19*
X181356Y239268D03*
X208788Y368808D03*
D18*
X501396Y597408D02*
X548640Y597408D01*
X501396Y597408D02*
X500000Y597300D01*
X548640Y597408D02*
X550000Y597300D01*
X425196Y521208D02*
X303276Y521208D01*
X425196Y521208D02*
X499872Y595884D01*
X303276Y521208D02*
X302200Y520200D01*
X499872Y595884D02*
X500000Y597300D01*
X501396Y623316D02*
X548640Y623316D01*
X501396Y623316D02*
X500000Y622700D01*
X548640Y623316D02*
X550000Y622700D01*
X326136Y495300D02*
X303276Y495300D01*
X326136Y495300D02*
X348996Y518160D01*
X480060Y518160D01*
X548640Y586740D01*
X562356Y586740D01*
X568452Y592836D01*
X568452Y603504D01*
X550164Y621792D01*
X303276Y495300D02*
X302200Y494800D01*
X550164Y621792D02*
X550000Y622700D01*
X420624Y348996D02*
X420624Y341376D01*
X420624Y348996D02*
X435864Y364236D01*
X420624Y559308D02*
X309372Y559308D01*
X307848Y560832D01*
X208788Y560832D01*
X195072Y547116D01*
X420624Y341376D02*
X420500Y340000D01*
X194250Y545600D02*
X195072Y547116D01*
D19*
X435864Y364236D03*
X420624Y559308D03*
D18*
X419100Y298704D02*
X405384Y298704D01*
X397764Y291084D01*
X373380Y291084D01*
X368808Y295656D01*
X368808Y306324D01*
X350520Y324612D01*
X310896Y324612D01*
X304800Y330708D01*
X298704Y330708D01*
X233172Y396240D01*
X233172Y515112D01*
X228600Y519684D01*
X195072Y519684D01*
X419100Y298704D02*
X420500Y300000D01*
X195072Y519684D02*
X194250Y520200D01*
X420624Y259080D02*
X429768Y249936D01*
X448056Y249936D01*
X449580Y251460D01*
X449580Y307848D01*
X441960Y315468D01*
X434340Y315468D01*
X420624Y534924D02*
X249936Y534924D01*
X236220Y521208D01*
X227076Y512064D02*
X211836Y512064D01*
X195072Y495300D01*
X420500Y260000D02*
X420624Y259080D01*
X195072Y495300D02*
X194250Y494800D01*
D19*
X434340Y315468D03*
X420624Y534924D03*
X236220Y521208D03*
X227076Y512064D03*
D18*
X396240Y220980D02*
X419100Y220980D01*
X396240Y220980D02*
X388620Y228600D01*
X373380Y228600D01*
X368808Y224028D01*
X368808Y161544D01*
X353568Y146304D01*
X344424Y146304D01*
X248412Y242316D01*
X248412Y376428D01*
X205740Y419100D01*
X205740Y458724D01*
X195072Y469392D01*
X419100Y220980D02*
X420500Y220000D01*
X195072Y469392D02*
X194250Y469400D01*
X381000Y341376D02*
X403860Y341376D01*
X432816Y370332D01*
X455676Y370332D01*
X481584Y344424D01*
X381000Y341376D02*
X380500Y340000D01*
X481584Y344424D02*
X481650Y344300D01*
X402336Y300228D02*
X381000Y300228D01*
X402336Y300228D02*
X423672Y321564D01*
X480060Y321564D01*
X481584Y320040D01*
X381000Y300228D02*
X380500Y300000D01*
X481650Y318900D02*
X481584Y320040D01*
X393192Y259080D02*
X381000Y259080D01*
X393192Y259080D02*
X408432Y243840D01*
X451104Y243840D01*
X455676Y248412D01*
X455676Y271272D01*
X477012Y292608D01*
X481584Y292608D01*
X381000Y259080D02*
X380500Y260000D01*
X481584Y292608D02*
X481650Y293500D01*
X379476Y219456D02*
X379476Y208788D01*
X373380Y202692D01*
X373380Y172212D01*
X391668Y153924D01*
X425196Y153924D01*
X428244Y156972D01*
X428244Y166116D01*
X467868Y205740D01*
X467868Y222504D01*
X510540Y265176D01*
X513588Y265176D01*
X528828Y280416D01*
X550164Y280416D01*
X380500Y220000D02*
X379476Y219456D01*
X550164Y280416D02*
X550950Y280800D01*
X373380Y326136D02*
X359664Y339852D01*
X373380Y326136D02*
X429768Y326136D01*
X438912Y335280D01*
X438912Y339852D01*
X359664Y339852D02*
X359500Y340000D01*
X438912Y339852D02*
X439500Y340000D01*
X370332Y288036D02*
X359664Y298704D01*
X370332Y288036D02*
X428244Y288036D01*
X438912Y298704D01*
X359664Y298704D02*
X359500Y300000D01*
X438912Y298704D02*
X439500Y300000D01*
X371856Y272796D02*
X359664Y260604D01*
X371856Y272796D02*
X426720Y272796D01*
X438912Y260604D01*
X359664Y260604D02*
X359500Y260000D01*
X438912Y260604D02*
X439500Y260000D01*
X370332Y231648D02*
X359664Y220980D01*
X370332Y231648D02*
X428244Y231648D01*
X438912Y220980D01*
X359664Y220980D02*
X359500Y220000D01*
X438912Y220980D02*
X439500Y220000D01*
X30480Y571500D02*
X22860Y571500D01*
X19812Y574548D01*
X18900Y575500D01*
D19*
X30480Y571500D03*
D18*
X27432Y579120D02*
X36576Y579120D01*
X27432Y579120D02*
X25908Y580644D01*
X19812Y580644D01*
X18900Y580500D01*
D19*
X36576Y579120D03*
D18*
X45720Y615696D02*
X118872Y615696D01*
X19812Y431292D02*
X19812Y423672D01*
X19812Y431292D02*
X18288Y432816D01*
X18288Y550164D01*
X42672Y574548D01*
X42672Y582168D01*
X39624Y585216D01*
X19812Y585216D01*
X18900Y585500D01*
D19*
X118872Y615696D03*
X45720Y615696D03*
X19812Y423672D03*
D18*
X121920Y600456D02*
X137160Y615696D01*
X82296Y576072D02*
X53340Y576072D01*
X39624Y589788D01*
X19812Y589788D01*
X18900Y590500D01*
D19*
X137160Y615696D03*
X121920Y600456D03*
X82296Y576072D03*
D18*
X57912Y582168D02*
X51816Y582168D01*
X39624Y594360D01*
X19812Y594360D01*
X18900Y595500D01*
D19*
X57912Y582168D03*
D18*
X64008Y585216D02*
X123444Y585216D01*
X64008Y585216D02*
X60960Y588264D01*
X50292Y588264D01*
X38100Y600456D01*
X19812Y600456D01*
X18900Y600500D01*
D19*
X123444Y585216D03*
D18*
X137160Y580644D02*
X140208Y580644D01*
X137160Y580644D02*
X126492Y591312D01*
X53340Y591312D01*
X39624Y605028D01*
X19812Y605028D01*
X18900Y605500D01*
D19*
X140208Y580644D03*
D18*
X144780Y576072D02*
X144780Y571500D01*
X144780Y576072D02*
X146304Y577596D01*
X146304Y583692D01*
X135636Y594360D01*
X54864Y594360D01*
X39624Y609600D01*
X19812Y609600D01*
X18900Y610500D01*
D19*
X144780Y571500D03*
D18*
X114300Y522732D02*
X114300Y492252D01*
X114300Y522732D02*
X153924Y562356D01*
X153924Y614172D01*
X146304Y621792D01*
X32004Y621792D01*
X25908Y615696D01*
X19812Y615696D01*
X18900Y615500D01*
D19*
X114300Y492252D03*
D18*
X156972Y536448D02*
X156972Y615696D01*
X147828Y624840D01*
X30480Y624840D01*
X25908Y620268D01*
X19812Y620268D01*
X18900Y620500D01*
D19*
X156972Y536448D03*
D18*
X163068Y544068D02*
X163068Y614172D01*
X149352Y627888D01*
X28956Y627888D01*
X27432Y626364D01*
X19812Y626364D01*
X18900Y625500D01*
D19*
X163068Y544068D03*
D18*
X169164Y516636D02*
X146304Y493776D01*
X169164Y516636D02*
X169164Y612648D01*
X150876Y630936D01*
X19812Y630936D01*
X18900Y630500D01*
D19*
X146304Y493776D03*
D18*
X179832Y565404D02*
X179832Y626364D01*
X155448Y650748D01*
X41148Y650748D01*
X25908Y635508D01*
X19812Y635508D01*
X18900Y635500D01*
D19*
X179832Y565404D03*
D18*
X182880Y579120D02*
X199644Y562356D01*
X182880Y579120D02*
X182880Y627888D01*
X156972Y653796D01*
X39624Y653796D01*
X27432Y641604D01*
X19812Y641604D01*
X18900Y640500D01*
D19*
X199644Y562356D03*
D18*
X211836Y579120D02*
X185928Y605028D01*
X185928Y629412D01*
X158496Y656844D01*
X36576Y656844D01*
X25908Y646176D01*
X19812Y646176D01*
X18900Y645500D01*
D19*
X211836Y579120D03*
D18*
X207264Y592836D02*
X207264Y612648D01*
X160020Y659892D01*
X35052Y659892D01*
X25908Y650748D01*
X19812Y650748D01*
X18900Y650500D01*
D19*
X207264Y592836D03*
D18*
X192024Y406908D02*
X117348Y332232D01*
X192024Y406908D02*
X202692Y406908D01*
X217932Y603504D02*
X217932Y606552D01*
X161544Y662940D01*
X33528Y662940D01*
X25908Y655320D01*
X19812Y655320D01*
X18900Y655500D01*
D19*
X117348Y332232D03*
X202692Y406908D03*
X217932Y603504D03*
D18*
X158496Y449580D02*
X158496Y396240D01*
X158496Y449580D02*
X192024Y483108D01*
X205740Y483108D01*
X220980Y498348D01*
X224028Y595884D02*
X224028Y606552D01*
X164592Y665988D01*
X32004Y665988D01*
X27432Y661416D01*
X19812Y661416D01*
X18900Y660500D01*
D19*
X158496Y396240D03*
X220980Y498348D03*
X224028Y595884D03*
D18*
X149352Y481584D02*
X149352Y396240D01*
X149352Y481584D02*
X176784Y509016D01*
X199644Y571500D02*
X213360Y571500D01*
X237744Y595884D01*
X237744Y608076D01*
X176784Y669036D01*
X28956Y669036D01*
X25908Y665988D01*
X19812Y665988D01*
X18900Y665500D01*
D19*
X149352Y396240D03*
X176784Y509016D03*
X199644Y571500D03*
D18*
X260604Y583692D02*
X260604Y594360D01*
X182880Y672084D01*
X21336Y672084D01*
X19812Y670560D01*
X18900Y670500D01*
D19*
X260604Y583692D03*
D18*
X123444Y281940D02*
X80772Y281940D01*
X79248Y280416D01*
X73152Y280416D01*
X72500Y280500D01*
D19*
X123444Y281940D03*
D18*
X124968Y292608D02*
X138684Y292608D01*
X124968Y292608D02*
X118872Y286512D01*
X73152Y286512D01*
X72500Y285500D01*
D19*
X138684Y292608D03*
D18*
X143256Y275844D02*
X117348Y249936D01*
X86868Y249936D01*
X62484Y274320D01*
X62484Y288036D01*
X64008Y289560D01*
X71628Y289560D01*
X72500Y290500D01*
D19*
X143256Y275844D03*
D18*
X117348Y294132D02*
X80772Y294132D01*
X79248Y295656D01*
X73152Y295656D01*
X72500Y295500D01*
D19*
X117348Y294132D03*
D18*
X53340Y256032D02*
X97536Y211836D01*
X53340Y256032D02*
X53340Y288036D01*
X65532Y300228D01*
X71628Y300228D01*
X72500Y300500D01*
D19*
X97536Y211836D03*
D18*
X123444Y195072D02*
X146304Y195072D01*
X123444Y195072D02*
X59436Y259080D01*
X59436Y303276D02*
X64008Y303276D01*
X65532Y304800D01*
X71628Y304800D01*
X72500Y305500D01*
D19*
X146304Y195072D03*
X59436Y259080D03*
X59436Y303276D03*
D18*
X155448Y181356D02*
X170688Y181356D01*
X155448Y181356D02*
X149352Y175260D01*
X115824Y175260D01*
X53340Y237744D01*
X53340Y310896D02*
X71628Y310896D01*
X72500Y310500D01*
D19*
X170688Y181356D03*
X53340Y237744D03*
X53340Y310896D03*
D18*
X79248Y315468D02*
X85344Y309372D01*
X79248Y315468D02*
X73152Y315468D01*
X72500Y315500D01*
D19*
X85344Y309372D03*
D18*
X156972Y137160D02*
X169164Y137160D01*
X156972Y137160D02*
X132588Y112776D01*
X105156Y112776D01*
X47244Y170688D01*
X53340Y320040D02*
X71628Y320040D01*
X72500Y320500D01*
D19*
X169164Y137160D03*
X47244Y170688D03*
X53340Y320040D03*
D18*
X138684Y143256D02*
X143256Y143256D01*
X138684Y143256D02*
X120396Y124968D01*
X111252Y124968D01*
X65532Y170688D01*
X64008Y327660D02*
X59436Y327660D01*
X64008Y327660D02*
X65532Y326136D01*
X71628Y326136D01*
X72500Y325500D01*
D19*
X143256Y143256D03*
X65532Y170688D03*
X59436Y327660D03*
D18*
X146304Y181356D02*
X224028Y259080D01*
X224028Y362712D01*
X207264Y379476D01*
X173736Y379476D01*
X120396Y326136D01*
X83820Y326136D01*
X79248Y330708D01*
X73152Y330708D01*
X72500Y330500D01*
D19*
X146304Y181356D03*
D18*
X129540Y118872D02*
X108204Y118872D01*
X44196Y182880D01*
X44196Y387096D01*
X54864Y397764D01*
X79248Y397764D01*
X88392Y388620D01*
X88392Y344424D01*
X79248Y335280D01*
X73152Y335280D01*
X72500Y335500D01*
D19*
X129540Y118872D03*
D18*
X316992Y391668D02*
X413004Y487680D01*
X217932Y298704D02*
X217932Y257556D01*
X149352Y188976D01*
X111252Y188976D01*
X47244Y252984D01*
X47244Y326136D01*
X60960Y339852D01*
X71628Y339852D01*
X72500Y340500D01*
D19*
X413004Y487680D03*
X316992Y391668D03*
X217932Y298704D03*
D18*
X243840Y638556D02*
X437388Y638556D01*
X146304Y612648D02*
X146304Y588264D01*
X150876Y583692D01*
X150876Y563880D01*
X76200Y489204D01*
X76200Y391668D02*
X85344Y382524D01*
X85344Y352044D01*
X79248Y345948D01*
X73152Y345948D01*
X72500Y345500D01*
D19*
X437388Y638556D03*
X243840Y638556D03*
X146304Y612648D03*
X76200Y489204D03*
X76200Y391668D03*
D18*
X48768Y402336D02*
X32004Y419100D01*
X48768Y402336D02*
X50292Y402336D01*
X54864Y388620D02*
X54864Y368808D01*
X53340Y367284D01*
X53340Y352044D01*
X56388Y348996D01*
X64008Y348996D01*
X65532Y350520D01*
X71628Y350520D01*
X72500Y350500D01*
D19*
X32004Y419100D03*
X50292Y402336D03*
X54864Y388620D03*
D18*
X44196Y416052D02*
X24384Y435864D01*
X76200Y382524D02*
X79248Y379476D01*
X80772Y379476D01*
X82296Y377952D01*
X82296Y358140D01*
X80772Y356616D01*
X73152Y356616D01*
X72500Y355500D01*
D19*
X24384Y435864D03*
X44196Y416052D03*
X76200Y382524D03*
D18*
X161544Y306324D02*
X173736Y306324D01*
X161544Y306324D02*
X128016Y272796D01*
X73152Y272796D01*
X59436Y355092D02*
X64008Y359664D01*
X71628Y359664D01*
X72500Y360500D01*
D19*
X173736Y306324D03*
X73152Y272796D03*
X59436Y355092D03*
D18*
X309372Y528828D02*
X406908Y528828D01*
X309372Y528828D02*
X306324Y531876D01*
X298704Y531876D01*
X243840Y477012D01*
X243840Y394716D01*
X179832Y344424D02*
X179832Y303276D01*
X123444Y246888D01*
X80772Y246888D01*
X76200Y251460D01*
X64008Y364236D02*
X59436Y364236D01*
X64008Y364236D02*
X65532Y365760D01*
X71628Y365760D01*
X72500Y365500D01*
D19*
X406908Y528828D03*
X243840Y394716D03*
X179832Y344424D03*
X76200Y251460D03*
X59436Y364236D03*
D18*
X281940Y582168D02*
X419100Y582168D01*
X281940Y582168D02*
X230124Y633984D01*
X128016Y615696D02*
X112776Y600456D01*
X60960Y381000D02*
X60960Y374904D01*
X65532Y370332D01*
X71628Y370332D01*
X72500Y370500D01*
D19*
X419100Y582168D03*
X230124Y633984D03*
X128016Y615696D03*
X112776Y600456D03*
X60960Y381000D03*
D18*
X423672Y553212D02*
X429768Y559308D01*
X423672Y553212D02*
X310896Y553212D01*
X306324Y557784D01*
X227076Y557784D01*
X201168Y531876D01*
X190500Y531876D01*
X152400Y493776D01*
X152400Y490728D01*
X73152Y411480D01*
X70104Y411480D01*
X67056Y388620D02*
X67056Y381000D01*
X71628Y376428D01*
X72500Y375500D01*
D19*
X429768Y559308D03*
X70104Y411480D03*
X67056Y388620D03*
D18*
X425196Y481584D02*
X454152Y452628D01*
X454152Y397764D01*
X534924Y316992D01*
X576072Y275844D02*
X576072Y217932D01*
X580644Y213360D01*
X580644Y117348D01*
X496824Y33528D01*
X233172Y33528D01*
X232500Y32500D01*
D19*
X425196Y481584D03*
X534924Y316992D03*
X576072Y275844D03*
D18*
X435864Y432816D02*
X435864Y461772D01*
X435864Y432816D02*
X451104Y417576D01*
X451104Y391668D01*
X525780Y316992D01*
X525780Y249936D02*
X525780Y163068D01*
X512064Y149352D01*
X438912Y149352D01*
X413004Y123444D01*
X344424Y123444D01*
X259080Y38100D01*
X233172Y38100D01*
X232500Y37500D01*
D19*
X435864Y461772D03*
X525780Y316992D03*
X525780Y249936D03*
D18*
X489204Y452628D02*
X460248Y481584D01*
X245364Y48768D02*
X239268Y42672D01*
X233172Y42672D01*
X232500Y42500D01*
D19*
X460248Y481584D03*
X489204Y452628D03*
X245364Y48768D03*
D18*
X409956Y449580D02*
X425196Y449580D01*
X409956Y449580D02*
X313944Y353568D01*
X242316Y298704D02*
X242316Y243840D01*
X173736Y175260D01*
X153924Y175260D01*
X143256Y164592D01*
X128016Y164592D01*
X109728Y146304D01*
X109728Y131064D01*
X112776Y128016D01*
X118872Y128016D01*
X140208Y149352D01*
X166116Y149352D01*
X201168Y114300D01*
X201168Y71628D01*
X225552Y47244D01*
X231648Y47244D01*
X232500Y47500D01*
D19*
X425196Y449580D03*
X313944Y353568D03*
X242316Y298704D03*
D18*
X356616Y405384D02*
X406908Y455676D01*
X204216Y128016D02*
X204216Y73152D01*
X224028Y53340D01*
X231648Y53340D01*
X232500Y52500D01*
D19*
X406908Y455676D03*
X356616Y405384D03*
X204216Y128016D03*
D18*
X320040Y345948D02*
X417576Y443484D01*
X210312Y149352D02*
X210312Y73152D01*
X225552Y57912D01*
X231648Y57912D01*
X232500Y57500D01*
D19*
X417576Y443484D03*
X320040Y345948D03*
X210312Y149352D03*
D18*
X435864Y420624D02*
X435864Y423672D01*
X435864Y420624D02*
X376428Y361188D01*
X361188Y361188D01*
X216408Y141732D02*
X216408Y137160D01*
X213360Y134112D01*
X213360Y74676D01*
X225552Y62484D01*
X231648Y62484D01*
X232500Y62500D01*
D19*
X435864Y423672D03*
X361188Y361188D03*
X216408Y141732D03*
D18*
X400812Y417576D02*
X423672Y417576D01*
X400812Y417576D02*
X313944Y330708D01*
X246888Y227076D02*
X246888Y163068D01*
X216408Y132588D01*
X216408Y76200D01*
X224028Y68580D01*
X231648Y68580D01*
X232500Y67500D01*
D19*
X423672Y417576D03*
X313944Y330708D03*
X246888Y227076D03*
D18*
X353568Y309372D02*
X353568Y312420D01*
X353568Y309372D02*
X350520Y306324D01*
X350520Y231648D01*
X338328Y219456D01*
X338328Y166116D01*
X245364Y73152D02*
X233172Y73152D01*
X232500Y72500D01*
D19*
X353568Y312420D03*
X338328Y166116D03*
X245364Y73152D03*
D18*
X458724Y278892D02*
X458724Y300228D01*
X458724Y278892D02*
X452628Y272796D01*
X452628Y249936D01*
X449580Y246888D01*
X409956Y246888D01*
X387096Y269748D01*
X374904Y269748D01*
X368808Y263652D01*
X368808Y245364D01*
X350520Y227076D01*
X350520Y199644D01*
X365760Y184404D01*
X365760Y176784D01*
X356616Y167640D01*
X281940Y92964D02*
X281940Y76200D01*
X274320Y68580D01*
X259080Y68580D01*
X248412Y79248D01*
X240792Y79248D01*
X239268Y77724D01*
X233172Y77724D01*
X232500Y77500D01*
D19*
X458724Y300228D03*
X356616Y167640D03*
X281940Y92964D03*
D18*
X429768Y348996D02*
X434340Y353568D01*
X429768Y348996D02*
X429768Y330708D01*
X428244Y329184D01*
X374904Y329184D01*
X368808Y335280D01*
X368808Y345948D01*
X362712Y352044D01*
X361188Y352044D01*
X257556Y184404D02*
X257556Y169164D01*
X219456Y131064D01*
X219456Y88392D01*
X225552Y82296D01*
X231648Y82296D01*
X232500Y82500D01*
D19*
X434340Y353568D03*
X361188Y352044D03*
X257556Y184404D03*
D18*
X368808Y310896D02*
X403860Y310896D01*
X368808Y310896D02*
X348996Y330708D01*
X245364Y86868D02*
X233172Y86868D01*
X232500Y87500D01*
D19*
X403860Y310896D03*
X348996Y330708D03*
X245364Y86868D03*
D18*
X480060Y249936D02*
X480060Y254508D01*
X480060Y249936D02*
X458724Y228600D01*
X458724Y210312D01*
X458724Y175260D02*
X437388Y153924D01*
X437388Y152400D01*
X411480Y126492D01*
X342900Y126492D01*
X315468Y99060D01*
X278892Y99060D01*
X275844Y96012D01*
X275844Y74676D01*
X272796Y71628D01*
X266700Y71628D01*
X251460Y86868D01*
X251460Y89916D01*
X248412Y92964D01*
X233172Y92964D01*
X232500Y92500D01*
D19*
X480060Y254508D03*
X458724Y210312D03*
X458724Y175260D03*
D18*
X574548Y210312D02*
X574548Y137160D01*
X557784Y120396D01*
X533400Y120396D01*
X269748Y77724D02*
X249936Y97536D01*
X233172Y97536D01*
X232500Y97500D01*
D19*
X574548Y210312D03*
X533400Y120396D03*
X269748Y77724D03*
D18*
X534924Y217932D02*
X534924Y222504D01*
X534924Y217932D02*
X531876Y214884D01*
X531876Y144780D01*
X507492Y120396D01*
X350520Y120396D01*
X316992Y86868D01*
X269748Y86868D02*
X265176Y86868D01*
X249936Y102108D01*
X233172Y102108D01*
X232500Y102500D01*
D19*
X534924Y222504D03*
X316992Y86868D03*
X269748Y86868D03*
D18*
X473964Y204216D02*
X473964Y219456D01*
X473964Y204216D02*
X431292Y161544D01*
X431292Y155448D01*
X426720Y150876D01*
X362712Y150876D01*
X320040Y108204D01*
X233172Y108204D01*
X232500Y107500D01*
D19*
X473964Y219456D03*
D18*
X359664Y181356D02*
X352044Y188976D01*
X344424Y188976D01*
X245364Y117348D02*
X240792Y112776D01*
X233172Y112776D01*
X232500Y112500D01*
D19*
X359664Y181356D03*
X344424Y188976D03*
X245364Y117348D03*
D18*
X384048Y195072D02*
X416052Y195072D01*
X384048Y195072D02*
X379476Y199644D01*
X248412Y143256D02*
X236220Y143256D01*
X222504Y129540D01*
X222504Y120396D01*
X225552Y117348D01*
X231648Y117348D01*
X232500Y117500D01*
D19*
X416052Y195072D03*
X379476Y199644D03*
X248412Y143256D03*
D18*
X385572Y181356D02*
X429768Y181356D01*
X385572Y181356D02*
X379476Y175260D01*
X259080Y123444D02*
X233172Y123444D01*
X232500Y122500D01*
D19*
X429768Y181356D03*
X379476Y175260D03*
X259080Y123444D03*
D18*
X240792Y135636D02*
X233172Y128016D01*
X232500Y127500D01*
D19*
X240792Y135636D03*
D18*
X422148Y160020D02*
X422148Y164592D01*
X464820Y207264D01*
X464820Y230124D01*
X496824Y262128D01*
X496824Y422148D02*
X507492Y432816D01*
X507500Y433500D01*
D19*
X422148Y160020D03*
X496824Y262128D03*
X496824Y422148D03*
D18*
X486156Y172212D02*
X509016Y172212D01*
X521208Y184404D01*
X521208Y245364D01*
X519684Y246888D01*
X519684Y262128D01*
X513588Y425196D02*
X513588Y428244D01*
X516636Y431292D01*
X516636Y435864D01*
X515112Y437388D01*
X509016Y437388D01*
X507500Y438500D01*
D19*
X486156Y172212D03*
X519684Y262128D03*
X513588Y425196D03*
D18*
X478536Y185928D02*
X478536Y161544D01*
X478536Y185928D02*
X492252Y199644D01*
X510540Y199644D01*
X518160Y207264D01*
X518160Y243840D01*
X509016Y252984D01*
X495300Y434340D02*
X495300Y438912D01*
X499872Y443484D01*
X507492Y443484D01*
X507500Y443500D01*
D19*
X478536Y161544D03*
X509016Y252984D03*
X495300Y434340D03*
D18*
X568452Y330708D02*
X568452Y202692D01*
X568452Y330708D02*
X560832Y338328D01*
X541020Y338328D01*
X519684Y359664D01*
X519684Y443484D01*
X515112Y448056D01*
X509016Y448056D01*
X507500Y448500D01*
D19*
X568452Y202692D03*
M02*
