G04 EAGLE Gerber RS-274X export*
G75*
%MOMM*%
%FSLAX34Y34*%
%LPD*%
%INBottom Copper*%
%IPPOS*%
%AMOC8*
5,1,8,0,0,1.08239X$1,22.5*%
G01*
%ADD10C,1.524000*%
%ADD11R,1.200000X0.600000*%
%ADD12R,1.676400X1.676400*%
%ADD13C,1.676400*%
%ADD14C,0.152400*%
%ADD15C,0.756400*%


D10*
X557620Y597300D02*
X542380Y597300D01*
X542380Y622700D02*
X557620Y622700D01*
X557620Y109200D02*
X542380Y109200D01*
X542380Y134600D02*
X557620Y134600D01*
X557620Y160000D02*
X542380Y160000D01*
X542380Y185400D02*
X557620Y185400D01*
X557620Y210800D02*
X542380Y210800D01*
X507620Y597300D02*
X492380Y597300D01*
X492380Y622700D02*
X507620Y622700D01*
X507620Y109200D02*
X492380Y109200D01*
X492380Y134600D02*
X507620Y134600D01*
X507620Y160000D02*
X492380Y160000D01*
X492380Y185400D02*
X507620Y185400D01*
X507620Y210800D02*
X492380Y210800D01*
D11*
X158000Y644450D03*
X158000Y631750D03*
X158000Y619050D03*
X158000Y606350D03*
X158000Y593650D03*
X158000Y580950D03*
X158000Y568250D03*
X158000Y555550D03*
X102000Y555550D03*
X102000Y568250D03*
X102000Y580950D03*
X102000Y593650D03*
X102000Y606350D03*
X102000Y619050D03*
X102000Y631750D03*
X102000Y644450D03*
X158000Y494450D03*
X158000Y481750D03*
X158000Y469050D03*
X158000Y456350D03*
X158000Y443650D03*
X158000Y430950D03*
X158000Y418250D03*
X158000Y405550D03*
X102000Y405550D03*
X102000Y418250D03*
X102000Y430950D03*
X102000Y443650D03*
X102000Y456350D03*
X102000Y469050D03*
X102000Y481750D03*
X102000Y494450D03*
X158000Y344450D03*
X158000Y331750D03*
X158000Y319050D03*
X158000Y306350D03*
X158000Y293650D03*
X158000Y280950D03*
X158000Y268250D03*
X158000Y255550D03*
X102000Y255550D03*
X102000Y268250D03*
X102000Y280950D03*
X102000Y293650D03*
X102000Y306350D03*
X102000Y319050D03*
X102000Y331750D03*
X102000Y344450D03*
X158000Y194450D03*
X158000Y181750D03*
X158000Y169050D03*
X158000Y156350D03*
X158000Y143650D03*
X158000Y130950D03*
X158000Y118250D03*
X158000Y105550D03*
X102000Y105550D03*
X102000Y118250D03*
X102000Y130950D03*
X102000Y143650D03*
X102000Y156350D03*
X102000Y169050D03*
X102000Y181750D03*
X102000Y194450D03*
X448000Y644450D03*
X448000Y631750D03*
X448000Y619050D03*
X448000Y606350D03*
X448000Y593650D03*
X448000Y580950D03*
X448000Y568250D03*
X448000Y555550D03*
X392000Y555550D03*
X392000Y568250D03*
X392000Y580950D03*
X392000Y593650D03*
X392000Y606350D03*
X392000Y619050D03*
X392000Y631750D03*
X392000Y644450D03*
X448000Y494450D03*
X448000Y481750D03*
X448000Y469050D03*
X448000Y456350D03*
X448000Y443650D03*
X448000Y430950D03*
X448000Y418250D03*
X448000Y405550D03*
X392000Y405550D03*
X392000Y418250D03*
X392000Y430950D03*
X392000Y443650D03*
X392000Y456350D03*
X392000Y469050D03*
X392000Y481750D03*
X392000Y494450D03*
X448000Y344450D03*
X448000Y331750D03*
X448000Y319050D03*
X448000Y306350D03*
X448000Y293650D03*
X448000Y280950D03*
X448000Y268250D03*
X448000Y255550D03*
X392000Y255550D03*
X392000Y268250D03*
X392000Y280950D03*
X392000Y293650D03*
X392000Y306350D03*
X392000Y319050D03*
X392000Y331750D03*
X392000Y344450D03*
X448000Y194450D03*
X448000Y181750D03*
X448000Y169050D03*
X448000Y156350D03*
X448000Y143650D03*
X448000Y130950D03*
X448000Y118250D03*
X448000Y105550D03*
X392000Y105550D03*
X392000Y118250D03*
X392000Y130950D03*
X392000Y143650D03*
X392000Y156350D03*
X392000Y169050D03*
X392000Y181750D03*
X392000Y194450D03*
D12*
X194250Y545600D03*
D13*
X194250Y520200D03*
X194250Y494800D03*
X194250Y469400D03*
X194250Y444000D03*
X194250Y418600D03*
X194250Y393200D03*
X194250Y367800D03*
X194250Y342400D03*
X194250Y317000D03*
X194250Y291600D03*
X194250Y266200D03*
X302200Y266200D03*
X302200Y291600D03*
X302200Y317000D03*
X302200Y342400D03*
X302200Y367800D03*
X302200Y393200D03*
X302200Y418600D03*
X302200Y444000D03*
X302200Y469400D03*
X302200Y494800D03*
X302200Y520200D03*
X302200Y545600D03*
D14*
X100584Y445008D02*
X89916Y445008D01*
X86868Y470916D02*
X86868Y562356D01*
X76200Y573024D01*
X76200Y579120D01*
X89916Y592836D01*
X100584Y592836D01*
X100584Y445008D02*
X102000Y443650D01*
X100584Y592836D02*
X102000Y593650D01*
X100584Y144780D02*
X96012Y144780D01*
X85344Y155448D01*
X85344Y277368D01*
X100584Y292608D01*
X100584Y144780D02*
X102000Y143650D01*
X100584Y292608D02*
X102000Y293650D01*
X393192Y144780D02*
X408432Y144780D01*
X393192Y144780D02*
X392000Y143650D01*
X467868Y217932D02*
X393192Y292608D01*
X467868Y217932D02*
X467868Y216408D01*
X472440Y211836D01*
X499872Y211836D01*
X393192Y292608D02*
X392000Y293650D01*
X499872Y211836D02*
X500000Y210800D01*
X367284Y419100D02*
X388620Y440436D01*
X391668Y443484D01*
X367284Y419100D02*
X367284Y339852D01*
X345948Y318516D01*
X336804Y318516D01*
X329184Y310896D01*
X329184Y304800D01*
X332232Y301752D01*
X339852Y301752D01*
X341376Y303276D01*
X382524Y303276D01*
X391668Y294132D01*
X391668Y443484D02*
X392000Y443650D01*
X391668Y294132D02*
X392000Y293650D01*
X391668Y592836D02*
X333756Y592836D01*
X291084Y550164D01*
X291084Y541020D01*
X300228Y531876D01*
X306324Y531876D01*
X376428Y461772D01*
X376428Y452628D01*
X388620Y440436D01*
X391668Y592836D02*
X392000Y593650D01*
X501396Y210312D02*
X548640Y210312D01*
X550000Y210800D01*
X501396Y210312D02*
X500000Y210800D01*
X115824Y143256D02*
X102108Y143256D01*
X240792Y172212D02*
X259080Y172212D01*
X332232Y245364D01*
X332232Y301752D01*
X102000Y143650D02*
X102108Y143256D01*
X123444Y335280D02*
X117348Y341376D01*
X123444Y335280D02*
X123444Y329184D01*
X114300Y320040D01*
X94488Y300228D02*
X91440Y300228D01*
X94488Y300228D02*
X100584Y294132D01*
X102000Y293650D01*
D15*
X89916Y445008D03*
X86868Y470916D03*
X408432Y144780D03*
X115824Y143256D03*
X240792Y172212D03*
X117348Y341376D03*
X114300Y320040D03*
X91440Y300228D03*
D14*
X382524Y140208D02*
X391668Y131064D01*
X382524Y140208D02*
X382524Y160020D01*
X385572Y163068D01*
X416052Y163068D01*
X419100Y166116D01*
X437388Y166116D01*
X440436Y163068D01*
X466344Y163068D01*
X487680Y184404D01*
X499872Y184404D01*
X392000Y130950D02*
X391668Y131064D01*
X499872Y184404D02*
X500000Y185400D01*
X397764Y280416D02*
X393192Y280416D01*
X397764Y280416D02*
X487680Y190500D01*
X487680Y184404D01*
X393192Y280416D02*
X392000Y280950D01*
X487680Y184404D02*
X500000Y185400D01*
X385572Y423672D02*
X391668Y429768D01*
X385572Y423672D02*
X384048Y423672D01*
X370332Y409956D01*
X370332Y338328D01*
X344424Y312420D01*
X344424Y297180D02*
X374904Y297180D01*
X391668Y280416D01*
X391668Y429768D02*
X392000Y430950D01*
X392000Y280950D02*
X391668Y280416D01*
X501396Y185928D02*
X548640Y185928D01*
X550000Y185400D01*
X501396Y185928D02*
X500000Y185400D01*
X112776Y131064D02*
X102108Y131064D01*
X115824Y134112D02*
X121920Y140208D01*
X115824Y134112D02*
X112776Y131064D01*
X121920Y140208D02*
X121920Y146304D01*
X117348Y150876D01*
X94488Y150876D01*
X88392Y156972D01*
X88392Y268224D01*
X100584Y280416D01*
X102108Y131064D02*
X102000Y130950D01*
X100584Y280416D02*
X102000Y280950D01*
X89916Y419100D02*
X100584Y429768D01*
X89916Y419100D02*
X89916Y318516D01*
X96012Y312420D01*
X108204Y312420D01*
X111252Y309372D01*
X111252Y289560D01*
X102108Y280416D01*
X100584Y429768D02*
X102000Y430950D01*
X102000Y280950D02*
X102108Y280416D01*
X102108Y580644D02*
X118872Y580644D01*
X149352Y550164D01*
X150876Y550164D02*
X166116Y550164D01*
X150876Y550164D02*
X149352Y550164D01*
X166116Y550164D02*
X173736Y557784D01*
X173736Y568452D01*
X230124Y624840D01*
X399288Y624840D01*
X403860Y620268D01*
X403860Y588264D01*
X397764Y582168D01*
X393192Y582168D01*
X102108Y580644D02*
X102000Y580950D01*
X392000Y580950D02*
X393192Y582168D01*
X117348Y446532D02*
X102108Y431292D01*
X117348Y446532D02*
X117348Y467868D01*
X147828Y547116D02*
X150876Y550164D01*
X102108Y431292D02*
X102000Y430950D01*
X344424Y297180D02*
X344424Y252984D01*
X257556Y166116D01*
X228600Y166116D01*
D15*
X344424Y312420D03*
X344424Y297180D03*
X117348Y467868D03*
X147828Y547116D03*
X228600Y166116D03*
X115824Y134112D03*
D14*
X393192Y455676D02*
X397764Y455676D01*
X411480Y441960D01*
X411480Y420624D01*
X425196Y406908D01*
X446532Y406908D01*
X393192Y455676D02*
X392000Y456350D01*
X446532Y406908D02*
X448000Y405550D01*
X448056Y554736D02*
X464820Y554736D01*
X495300Y524256D01*
X448056Y554736D02*
X448000Y555550D01*
X448056Y406908D02*
X454152Y406908D01*
X460248Y413004D01*
X448056Y406908D02*
X448000Y405550D01*
X501396Y134112D02*
X548640Y134112D01*
X501396Y134112D02*
X500000Y134600D01*
X548640Y134112D02*
X550000Y134600D01*
X406908Y155448D02*
X393192Y155448D01*
X406908Y155448D02*
X414528Y147828D01*
X414528Y128016D01*
X397764Y111252D01*
X384048Y111252D01*
X382524Y109728D01*
X382524Y102108D01*
X385572Y99060D01*
X440436Y99060D01*
X446532Y105156D01*
X393192Y155448D02*
X392000Y156350D01*
X446532Y105156D02*
X448000Y105550D01*
X481584Y134112D02*
X499872Y134112D01*
X481584Y134112D02*
X454152Y106680D01*
X448056Y106680D01*
X499872Y134112D02*
X500000Y134600D01*
X448056Y106680D02*
X448000Y105550D01*
X396240Y306324D02*
X393192Y306324D01*
X396240Y306324D02*
X446532Y256032D01*
X393192Y306324D02*
X392000Y306350D01*
X446532Y256032D02*
X448000Y255550D01*
X448056Y256032D02*
X461772Y256032D01*
X448056Y256032D02*
X448000Y255550D01*
X301752Y318516D02*
X301752Y341376D01*
X301752Y318516D02*
X302200Y317000D01*
X301752Y341376D02*
X302200Y342400D01*
X341376Y605028D02*
X391668Y605028D01*
X341376Y605028D02*
X288036Y551688D01*
X288036Y484632D01*
X301752Y470916D01*
X391668Y605028D02*
X392000Y606350D01*
X301752Y470916D02*
X302200Y469400D01*
X124968Y606552D02*
X102108Y606552D01*
X124968Y606552D02*
X131064Y600456D01*
X164592Y600456D01*
X167640Y597408D01*
X167640Y565404D01*
X158496Y556260D01*
X102000Y606350D02*
X102108Y606552D01*
X158496Y556260D02*
X158000Y555550D01*
X100584Y307848D02*
X96012Y307848D01*
X83820Y320040D01*
X83820Y448056D01*
X91440Y455676D01*
X92964Y455676D02*
X100584Y455676D01*
X92964Y455676D02*
X91440Y455676D01*
X100584Y307848D02*
X102000Y306350D01*
X100584Y455676D02*
X102000Y456350D01*
X150876Y556260D02*
X156972Y556260D01*
X150876Y556260D02*
X131064Y576072D01*
X131064Y577596D01*
X92964Y539496D02*
X92964Y455676D01*
X158000Y555550D02*
X156972Y556260D01*
X108204Y163068D02*
X102108Y156972D01*
X108204Y163068D02*
X109728Y163068D01*
X134112Y187452D01*
X134112Y231648D01*
X153924Y251460D02*
X156972Y254508D01*
X153924Y251460D02*
X134112Y231648D01*
X102108Y156972D02*
X102000Y156350D01*
X156972Y254508D02*
X158000Y255550D01*
X156972Y105156D02*
X114300Y105156D01*
X108204Y99060D01*
X96012Y99060D01*
X92964Y102108D01*
X92964Y121920D01*
X96012Y124968D01*
X115824Y124968D01*
X124968Y134112D01*
X124968Y147828D01*
X109728Y163068D01*
X156972Y105156D02*
X158000Y105550D01*
X181356Y405384D02*
X182880Y405384D01*
X181356Y405384D02*
X158496Y405384D01*
X182880Y405384D02*
X193548Y394716D01*
X158496Y405384D02*
X158000Y405550D01*
X193548Y394716D02*
X194250Y393200D01*
X193548Y393192D02*
X193548Y368808D01*
X194250Y367800D01*
X194250Y393200D02*
X193548Y393192D01*
X181356Y405384D02*
X193548Y417576D01*
X194250Y418600D01*
X153924Y251460D02*
X158496Y246888D01*
X92964Y539496D02*
X92964Y547116D01*
X89916Y550164D01*
X89916Y568452D01*
X96012Y574548D01*
X108204Y574548D01*
X140208Y542544D01*
X140208Y423672D01*
X156972Y406908D01*
X158000Y405550D01*
X195072Y292608D02*
X301752Y292608D01*
X302200Y291600D01*
X195072Y292608D02*
X194250Y291600D01*
D15*
X495300Y524256D03*
X460248Y413004D03*
X461772Y256032D03*
X131064Y577596D03*
X92964Y539496D03*
X158496Y246888D03*
D14*
X138684Y644652D02*
X102108Y644652D01*
X138684Y644652D02*
X144780Y650748D01*
X385572Y650748D01*
X391668Y644652D01*
X102108Y644652D02*
X102000Y644450D01*
X391668Y644652D02*
X392000Y644450D01*
X391668Y393192D02*
X391668Y345948D01*
X391668Y393192D02*
X382524Y402336D01*
X382524Y408432D01*
X391668Y417576D01*
X391668Y345948D02*
X392000Y344450D01*
X391668Y417576D02*
X392000Y418250D01*
X391668Y495300D02*
X391668Y542544D01*
X382524Y551688D01*
X382524Y559308D01*
X391668Y568452D01*
X391668Y495300D02*
X392000Y494450D01*
X392000Y568250D02*
X391668Y568452D01*
X400812Y426720D02*
X393192Y419100D01*
X400812Y426720D02*
X400812Y448056D01*
X399288Y449580D01*
X385572Y449580D01*
X379476Y455676D01*
X379476Y486156D01*
X387096Y493776D01*
X391668Y493776D01*
X393192Y419100D02*
X392000Y418250D01*
X391668Y493776D02*
X392000Y494450D01*
X382524Y551688D02*
X307848Y551688D01*
X303276Y547116D01*
X302200Y545600D01*
X393192Y644652D02*
X420624Y644652D01*
X393192Y644652D02*
X392000Y644450D01*
X100584Y394716D02*
X100584Y345948D01*
X100584Y394716D02*
X92964Y402336D01*
X92964Y409956D01*
X100584Y417576D01*
X100584Y345948D02*
X102000Y344450D01*
X100584Y417576D02*
X102000Y418250D01*
X100584Y495300D02*
X100584Y544068D01*
X92964Y551688D01*
X92964Y559308D01*
X100584Y566928D01*
X100584Y495300D02*
X102000Y494450D01*
X100584Y566928D02*
X102000Y568250D01*
X108204Y425196D02*
X102108Y419100D01*
X108204Y425196D02*
X109728Y425196D01*
X123444Y438912D01*
X123444Y547116D01*
X102108Y568452D01*
X102108Y419100D02*
X102000Y418250D01*
X102000Y568250D02*
X102108Y568452D01*
X385572Y117348D02*
X391668Y117348D01*
X385572Y117348D02*
X379476Y111252D01*
X379476Y100584D01*
X384048Y96012D01*
X487680Y96012D01*
X499872Y108204D01*
X392000Y118250D02*
X391668Y117348D01*
X499872Y108204D02*
X500000Y109200D01*
X391668Y195072D02*
X391668Y242316D01*
X382524Y251460D01*
X382524Y259080D01*
X391668Y268224D01*
X391668Y195072D02*
X392000Y194450D01*
X391668Y268224D02*
X392000Y268250D01*
X114300Y118872D02*
X102108Y118872D01*
X114300Y118872D02*
X131064Y135636D01*
X131064Y179832D01*
X137160Y185928D01*
X137160Y216408D01*
X167640Y246888D01*
X167640Y259080D01*
X164592Y262128D01*
X108204Y262128D01*
X102108Y268224D01*
X102108Y118872D02*
X102000Y118250D01*
X102108Y268224D02*
X102000Y268250D01*
X100584Y199644D02*
X100584Y195072D01*
X100584Y199644D02*
X91440Y208788D01*
X91440Y259080D01*
X100584Y268224D01*
X100584Y195072D02*
X102000Y194450D01*
X100584Y268224D02*
X102000Y268250D01*
X348996Y193548D02*
X350520Y193548D01*
X391668Y193548D01*
X348996Y193548D02*
X347472Y195072D01*
X313944Y195072D01*
X239268Y120396D01*
X239268Y102108D01*
X251460Y89916D01*
X251460Y83820D01*
X248412Y80772D01*
X242316Y80772D01*
X187452Y135636D01*
X187452Y242316D01*
X182880Y246888D01*
X167640Y246888D01*
X391668Y193548D02*
X392000Y194450D01*
X350520Y152400D02*
X385572Y117348D01*
X350520Y181356D02*
X350520Y193548D01*
X108204Y411480D02*
X102108Y417576D01*
X108204Y411480D02*
X109728Y411480D01*
X146304Y374904D01*
X146304Y316992D01*
X150876Y312420D01*
X164592Y312420D01*
X167640Y309372D01*
X167640Y265176D01*
X164592Y262128D01*
X102108Y417576D02*
X102000Y418250D01*
X393192Y344424D02*
X400812Y336804D01*
X400812Y327660D01*
X397764Y324612D01*
X374904Y324612D01*
X356616Y306324D01*
X336804Y306324D01*
X335280Y307848D01*
X392000Y344450D02*
X393192Y344424D01*
D15*
X420624Y644652D03*
X350520Y152400D03*
X350520Y181356D03*
X335280Y307848D03*
D14*
X120396Y487680D02*
X102108Y469392D01*
X120396Y487680D02*
X120396Y536448D01*
X102108Y554736D01*
X102108Y469392D02*
X102000Y469050D01*
X102108Y554736D02*
X102000Y555550D01*
X92964Y327660D02*
X100584Y320040D01*
X92964Y327660D02*
X92964Y335280D01*
X96012Y338328D01*
X108204Y338328D01*
X111252Y341376D01*
X111252Y396240D01*
X102108Y405384D01*
X100584Y320040D02*
X102000Y319050D01*
X102108Y405384D02*
X102000Y405550D01*
X114300Y181356D02*
X102108Y169164D01*
X114300Y181356D02*
X114300Y242316D01*
X102108Y254508D01*
X102108Y169164D02*
X102000Y169050D01*
X102108Y254508D02*
X102000Y255550D01*
X393192Y169164D02*
X400812Y176784D01*
X400812Y246888D01*
X393192Y254508D01*
X393192Y169164D02*
X392000Y169050D01*
X393192Y254508D02*
X392000Y255550D01*
X393192Y320040D02*
X397764Y320040D01*
X403860Y326136D01*
X403860Y394716D01*
X393192Y405384D01*
X393192Y320040D02*
X392000Y319050D01*
X393192Y405384D02*
X392000Y405550D01*
X106680Y106680D02*
X102108Y106680D01*
X106680Y106680D02*
X134112Y134112D01*
X134112Y178308D01*
X140208Y184404D01*
X140208Y198120D01*
X181356Y239268D01*
X208788Y368808D02*
X208788Y413004D01*
X254508Y458724D01*
X254508Y586740D01*
X286512Y618744D01*
X391668Y618744D01*
X102108Y106680D02*
X102000Y105550D01*
X391668Y618744D02*
X392000Y619050D01*
D15*
X181356Y239268D03*
X208788Y368808D03*
D14*
X382524Y478536D02*
X391668Y469392D01*
X382524Y478536D02*
X382524Y484632D01*
X385572Y487680D01*
X397764Y487680D01*
X400812Y490728D01*
X400812Y547116D01*
X393192Y554736D01*
X391668Y469392D02*
X392000Y469050D01*
X393192Y554736D02*
X392000Y555550D01*
X435864Y374904D02*
X435864Y364236D01*
X435864Y374904D02*
X469392Y408432D01*
X469392Y510540D01*
X420624Y559308D01*
D15*
X435864Y364236D03*
X420624Y559308D03*
D14*
X434340Y339852D02*
X434340Y315468D01*
X434340Y339852D02*
X428244Y345948D01*
X428244Y371856D01*
X466344Y409956D01*
X466344Y489204D01*
X420624Y534924D01*
X236220Y521208D02*
X227076Y512064D01*
D15*
X434340Y315468D03*
X420624Y534924D03*
X236220Y521208D03*
X227076Y512064D03*
D14*
X100584Y630936D02*
X79248Y630936D01*
X30480Y582168D01*
X30480Y571500D01*
X100584Y630936D02*
X102000Y631750D01*
D15*
X30480Y571500D03*
D14*
X141732Y643128D02*
X156972Y643128D01*
X141732Y643128D02*
X123444Y624840D01*
X82296Y624840D01*
X36576Y579120D01*
X156972Y643128D02*
X158000Y644450D01*
D15*
X36576Y579120D03*
D14*
X134112Y630936D02*
X156972Y630936D01*
X134112Y630936D02*
X118872Y615696D01*
X45720Y615696D02*
X45720Y611124D01*
X15240Y580644D01*
X15240Y428244D01*
X19812Y423672D01*
X156972Y630936D02*
X158000Y631750D01*
D15*
X118872Y615696D03*
X45720Y615696D03*
X19812Y423672D03*
D14*
X140208Y618744D02*
X156972Y618744D01*
X140208Y618744D02*
X137160Y615696D01*
X121920Y600456D02*
X108204Y586740D01*
X92964Y586740D01*
X82296Y576072D01*
X156972Y618744D02*
X158000Y619050D01*
D15*
X137160Y615696D03*
X121920Y600456D03*
X82296Y576072D03*
D14*
X129540Y606552D02*
X156972Y606552D01*
X129540Y606552D02*
X126492Y609600D01*
X111252Y609600D01*
X108204Y612648D01*
X88392Y612648D01*
X57912Y582168D01*
X156972Y606552D02*
X158000Y606350D01*
D15*
X57912Y582168D03*
D14*
X131064Y592836D02*
X156972Y592836D01*
X131064Y592836D02*
X123444Y585216D01*
X156972Y592836D02*
X158000Y593650D01*
D15*
X123444Y585216D03*
D14*
X140208Y580644D02*
X156972Y580644D01*
X158000Y580950D01*
D15*
X140208Y580644D03*
D14*
X147828Y568452D02*
X156972Y568452D01*
X147828Y568452D02*
X144780Y571500D01*
X156972Y568452D02*
X158000Y568250D01*
D15*
X144780Y571500D03*
D14*
X105156Y483108D02*
X102108Y483108D01*
X105156Y483108D02*
X114300Y492252D01*
X102108Y483108D02*
X102000Y481750D01*
D15*
X114300Y492252D03*
D14*
X156972Y495300D02*
X156972Y536448D01*
X156972Y495300D02*
X158000Y494450D01*
D15*
X156972Y536448D03*
D14*
X163068Y487680D02*
X158496Y483108D01*
X163068Y487680D02*
X164592Y487680D01*
X167640Y490728D01*
X167640Y539496D01*
X163068Y544068D01*
X158496Y483108D02*
X158000Y481750D01*
D15*
X163068Y544068D03*
D14*
X146304Y480060D02*
X156972Y469392D01*
X146304Y480060D02*
X146304Y493776D01*
X156972Y469392D02*
X158000Y469050D01*
D15*
X146304Y493776D03*
D14*
X170688Y469392D02*
X158496Y457200D01*
X170688Y469392D02*
X170688Y550164D01*
X179832Y559308D01*
X179832Y565404D01*
X158496Y457200D02*
X158000Y456350D01*
D15*
X179832Y565404D03*
D14*
X163068Y449580D02*
X158496Y445008D01*
X163068Y449580D02*
X164592Y449580D01*
X182880Y467868D01*
X182880Y524256D01*
X193548Y534924D01*
X204216Y534924D01*
X205740Y536448D01*
X205740Y556260D01*
X199644Y562356D01*
X158496Y445008D02*
X158000Y443650D01*
D15*
X199644Y562356D03*
D14*
X198120Y431292D02*
X158496Y431292D01*
X198120Y431292D02*
X211836Y445008D01*
X211836Y579120D01*
X158496Y431292D02*
X158000Y430950D01*
D15*
X211836Y579120D03*
D14*
X149352Y426720D02*
X156972Y419100D01*
X149352Y426720D02*
X149352Y435864D01*
X150876Y437388D01*
X172212Y437388D01*
X193548Y458724D01*
X199644Y458724D01*
X208788Y467868D01*
X208788Y573024D01*
X205740Y576072D01*
X205740Y591312D01*
X207264Y592836D01*
X156972Y419100D02*
X158000Y418250D01*
D15*
X207264Y592836D03*
D14*
X117348Y332232D02*
X102108Y332232D01*
X202692Y406908D02*
X202692Y411480D01*
X214884Y423672D01*
X214884Y573024D01*
X217932Y576072D01*
X217932Y603504D01*
X102108Y332232D02*
X102000Y331750D01*
D15*
X117348Y332232D03*
X202692Y406908D03*
X217932Y603504D03*
D14*
X158496Y396240D02*
X158496Y345948D01*
X220980Y498348D02*
X220980Y592836D01*
X224028Y595884D01*
X158496Y345948D02*
X158000Y344450D01*
D15*
X158496Y396240D03*
X220980Y498348D03*
X224028Y595884D03*
D14*
X149352Y339852D02*
X156972Y332232D01*
X149352Y339852D02*
X149352Y396240D01*
X176784Y509016D02*
X176784Y548640D01*
X199644Y571500D01*
X156972Y332232D02*
X158000Y331750D01*
D15*
X149352Y396240D03*
X176784Y509016D03*
X199644Y571500D03*
D14*
X181356Y320040D02*
X158496Y320040D01*
X181356Y320040D02*
X192024Y330708D01*
X198120Y330708D01*
X260604Y393192D01*
X260604Y583692D01*
X158496Y320040D02*
X158000Y319050D01*
D15*
X260604Y583692D03*
D14*
X156972Y306324D02*
X143256Y306324D01*
X123444Y286512D01*
X123444Y281940D01*
X156972Y306324D02*
X158000Y306350D01*
D15*
X123444Y281940D03*
D14*
X138684Y292608D02*
X156972Y292608D01*
X158000Y293650D01*
D15*
X138684Y292608D03*
D14*
X147828Y280416D02*
X156972Y280416D01*
X147828Y280416D02*
X143256Y275844D01*
X156972Y280416D02*
X158000Y280950D01*
D15*
X143256Y275844D03*
D14*
X156972Y269748D02*
X126492Y269748D01*
X117348Y278892D01*
X117348Y294132D01*
X156972Y269748D02*
X158000Y268250D01*
D15*
X117348Y294132D03*
D14*
X108204Y188976D02*
X102108Y182880D01*
X108204Y188976D02*
X109728Y188976D01*
X111252Y190500D01*
X111252Y198120D01*
X97536Y211836D01*
X102108Y182880D02*
X102000Y181750D01*
D15*
X97536Y211836D03*
D14*
X146304Y195072D02*
X156972Y195072D01*
X59436Y259080D02*
X59436Y303276D01*
X156972Y195072D02*
X158000Y194450D01*
D15*
X146304Y195072D03*
X59436Y259080D03*
X59436Y303276D03*
D14*
X158496Y181356D02*
X170688Y181356D01*
X53340Y237744D02*
X53340Y310896D01*
X158000Y181750D02*
X158496Y181356D01*
D15*
X170688Y181356D03*
X53340Y237744D03*
X53340Y310896D03*
D14*
X158496Y167640D02*
X163068Y163068D01*
X164592Y163068D01*
X175260Y152400D01*
X175260Y109728D01*
X161544Y96012D01*
X94488Y96012D01*
X82296Y108204D01*
X82296Y306324D01*
X85344Y309372D01*
X158000Y169050D02*
X158496Y167640D01*
D15*
X85344Y309372D03*
D14*
X158496Y155448D02*
X169164Y144780D01*
X169164Y137160D01*
X47244Y170688D02*
X47244Y313944D01*
X53340Y320040D01*
X158000Y156350D02*
X158496Y155448D01*
D15*
X169164Y137160D03*
X47244Y170688D03*
X53340Y320040D03*
D14*
X143256Y143256D02*
X156972Y143256D01*
X65532Y170688D02*
X65532Y321564D01*
X59436Y327660D01*
X156972Y143256D02*
X158000Y143650D01*
D15*
X143256Y143256D03*
X65532Y170688D03*
X59436Y327660D03*
D14*
X146304Y131064D02*
X156972Y131064D01*
X146304Y131064D02*
X137160Y140208D01*
X137160Y172212D01*
X146304Y181356D01*
X156972Y131064D02*
X158000Y130950D01*
D15*
X146304Y181356D03*
D14*
X156972Y118872D02*
X129540Y118872D01*
X156972Y118872D02*
X158000Y118250D01*
D15*
X129540Y118872D03*
D14*
X393192Y630936D02*
X423672Y630936D01*
X441960Y612648D01*
X454152Y612648D01*
X457200Y609600D01*
X457200Y577596D01*
X454152Y574548D01*
X426720Y574548D01*
X413004Y560832D01*
X413004Y487680D01*
X316992Y391668D02*
X304800Y379476D01*
X298704Y379476D01*
X217932Y298704D01*
X393192Y630936D02*
X392000Y631750D01*
D15*
X413004Y487680D03*
X316992Y391668D03*
X217932Y298704D03*
D14*
X441960Y643128D02*
X446532Y643128D01*
X441960Y643128D02*
X437388Y638556D01*
X243840Y638556D02*
X233172Y627888D01*
X179832Y627888D01*
X164592Y612648D01*
X146304Y612648D01*
X76200Y489204D02*
X76200Y391668D01*
X446532Y643128D02*
X448000Y644450D01*
D15*
X437388Y638556D03*
X243840Y638556D03*
X146304Y612648D03*
X76200Y489204D03*
X76200Y391668D03*
D14*
X448056Y632460D02*
X454152Y638556D01*
X455676Y638556D01*
X457200Y640080D01*
X457200Y647700D01*
X448056Y656844D01*
X96012Y656844D01*
X18288Y579120D01*
X18288Y432816D01*
X21336Y429768D01*
X22860Y429768D01*
X32004Y420624D01*
X32004Y419100D01*
X50292Y402336D02*
X50292Y393192D01*
X54864Y388620D01*
X448000Y631750D02*
X448056Y632460D01*
D15*
X32004Y419100D03*
X50292Y402336D03*
X54864Y388620D03*
D14*
X426720Y640080D02*
X446532Y620268D01*
X426720Y640080D02*
X426720Y647700D01*
X420624Y653796D01*
X97536Y653796D01*
X24384Y580644D01*
X24384Y435864D01*
X44196Y416052D02*
X44196Y388620D01*
X57912Y374904D01*
X68580Y374904D01*
X76200Y382524D01*
X446532Y620268D02*
X448000Y619050D01*
D15*
X24384Y435864D03*
X44196Y416052D03*
X76200Y382524D03*
D14*
X428244Y605028D02*
X446532Y605028D01*
X428244Y605028D02*
X400812Y577596D01*
X400812Y576072D01*
X399288Y574548D01*
X385572Y574548D01*
X382524Y577596D01*
X382524Y585216D01*
X385572Y588264D01*
X399288Y588264D01*
X400812Y589788D01*
X400812Y611124D01*
X399288Y612648D01*
X344424Y612648D01*
X263652Y531876D01*
X263652Y370332D01*
X199644Y306324D01*
X173736Y306324D01*
X73152Y272796D02*
X73152Y341376D01*
X59436Y355092D01*
X446532Y605028D02*
X448000Y606350D01*
D15*
X173736Y306324D03*
X73152Y272796D03*
X59436Y355092D03*
D14*
X420624Y592836D02*
X446532Y592836D01*
X420624Y592836D02*
X406908Y579120D01*
X406908Y528828D01*
X243840Y394716D02*
X202692Y353568D01*
X188976Y353568D01*
X179832Y344424D01*
X76200Y266700D02*
X76200Y251460D01*
X76200Y266700D02*
X79248Y269748D01*
X79248Y283464D01*
X76200Y286512D01*
X76200Y347472D01*
X59436Y364236D01*
X446532Y592836D02*
X448000Y593650D01*
D15*
X406908Y528828D03*
X243840Y394716D03*
X179832Y344424D03*
X76200Y251460D03*
X59436Y364236D03*
D14*
X419100Y582168D02*
X446532Y582168D01*
X230124Y633984D02*
X173736Y633984D01*
X164592Y624840D01*
X137160Y624840D01*
X128016Y615696D01*
X112776Y600456D02*
X92964Y600456D01*
X60960Y568452D01*
X60960Y381000D01*
X446532Y582168D02*
X448000Y580950D01*
D15*
X419100Y582168D03*
X230124Y633984D03*
X128016Y615696D03*
X112776Y600456D03*
X60960Y381000D03*
D14*
X437388Y566928D02*
X446532Y566928D01*
X437388Y566928D02*
X429768Y559308D01*
X70104Y411480D02*
X70104Y391668D01*
X67056Y388620D01*
X446532Y566928D02*
X448000Y568250D01*
D15*
X429768Y559308D03*
X70104Y411480D03*
X67056Y388620D03*
D14*
X393192Y481584D02*
X425196Y481584D01*
X534924Y316992D02*
X576072Y275844D01*
X393192Y481584D02*
X392000Y481750D01*
D15*
X425196Y481584D03*
X534924Y316992D03*
X576072Y275844D03*
D14*
X435864Y483108D02*
X446532Y493776D01*
X435864Y483108D02*
X435864Y461772D01*
X525780Y316992D02*
X525780Y249936D01*
X446532Y493776D02*
X448000Y494450D01*
D15*
X435864Y461772D03*
X525780Y316992D03*
X525780Y249936D03*
D14*
X460248Y481584D02*
X448056Y481584D01*
X489204Y452628D02*
X495300Y452628D01*
X582168Y365760D01*
X582168Y114300D01*
X516636Y48768D01*
X245364Y48768D01*
X448056Y481584D02*
X448000Y481750D01*
D15*
X460248Y481584D03*
X489204Y452628D03*
X245364Y48768D03*
D14*
X454152Y461772D02*
X448056Y467868D01*
X454152Y461772D02*
X455676Y461772D01*
X457200Y460248D01*
X457200Y452628D01*
X454152Y449580D01*
X425196Y449580D01*
X313944Y353568D02*
X297180Y353568D01*
X242316Y298704D01*
X448056Y467868D02*
X448000Y469050D01*
D15*
X425196Y449580D03*
X313944Y353568D03*
X242316Y298704D03*
D14*
X406908Y455676D02*
X446532Y455676D01*
X356616Y405384D02*
X298704Y405384D01*
X266700Y373380D01*
X266700Y368808D01*
X201168Y303276D01*
X190500Y303276D01*
X182880Y295656D01*
X182880Y251460D01*
X204216Y230124D01*
X204216Y128016D01*
X446532Y455676D02*
X448000Y456350D01*
D15*
X406908Y455676D03*
X356616Y405384D03*
X204216Y128016D03*
D14*
X417576Y443484D02*
X446532Y443484D01*
X320040Y345948D02*
X320040Y320040D01*
X316992Y316992D01*
X316992Y265176D01*
X236220Y184404D01*
X228600Y184404D01*
X210312Y166116D01*
X210312Y149352D01*
X446532Y443484D02*
X448000Y443650D01*
D15*
X417576Y443484D03*
X320040Y345948D03*
X210312Y149352D03*
D14*
X441960Y429768D02*
X446532Y429768D01*
X441960Y429768D02*
X435864Y423672D01*
X361188Y361188D02*
X323088Y323088D01*
X323088Y318516D01*
X320040Y315468D01*
X320040Y263652D01*
X237744Y181356D01*
X230124Y181356D01*
X216408Y167640D01*
X216408Y141732D01*
X446532Y429768D02*
X448000Y430950D01*
D15*
X435864Y423672D03*
X361188Y361188D03*
X216408Y141732D03*
D14*
X423672Y417576D02*
X446532Y417576D01*
X313944Y330708D02*
X313944Y288036D01*
X303276Y277368D01*
X297180Y277368D01*
X246888Y227076D01*
X446532Y417576D02*
X448000Y418250D01*
D15*
X423672Y417576D03*
X313944Y330708D03*
X246888Y227076D03*
D14*
X371856Y330708D02*
X391668Y330708D01*
X371856Y330708D02*
X353568Y312420D01*
X338328Y166116D02*
X245364Y73152D01*
X391668Y330708D02*
X392000Y331750D01*
D15*
X353568Y312420D03*
X338328Y166116D03*
X245364Y73152D03*
D14*
X458724Y333756D02*
X448056Y344424D01*
X458724Y333756D02*
X458724Y300228D01*
X356616Y167640D02*
X281940Y92964D01*
X448000Y344450D02*
X448056Y344424D01*
D15*
X458724Y300228D03*
X356616Y167640D03*
X281940Y92964D03*
D14*
X446532Y332232D02*
X434340Y344424D01*
X434340Y353568D01*
X361188Y352044D02*
X323088Y313944D01*
X323088Y249936D01*
X257556Y184404D01*
X446532Y332232D02*
X448000Y331750D01*
D15*
X434340Y353568D03*
X361188Y352044D03*
X257556Y184404D03*
D14*
X437388Y309372D02*
X446532Y318516D01*
X437388Y309372D02*
X405384Y309372D01*
X403860Y310896D01*
X348996Y330708D02*
X344424Y330708D01*
X326136Y312420D01*
X326136Y243840D01*
X260604Y178308D01*
X231648Y178308D01*
X222504Y169164D01*
X222504Y109728D01*
X245364Y86868D01*
X446532Y318516D02*
X448000Y319050D01*
D15*
X403860Y310896D03*
X348996Y330708D03*
X245364Y86868D03*
D14*
X438912Y298704D02*
X446532Y306324D01*
X438912Y298704D02*
X438912Y277368D01*
X441960Y274320D01*
X460248Y274320D01*
X480060Y254508D01*
X458724Y210312D02*
X458724Y175260D01*
X448000Y306350D02*
X446532Y306324D01*
D15*
X480060Y254508D03*
X458724Y210312D03*
X458724Y175260D03*
D14*
X457200Y292608D02*
X448056Y292608D01*
X457200Y292608D02*
X521208Y228600D01*
X556260Y228600D01*
X574548Y210312D01*
X533400Y120396D02*
X490728Y77724D01*
X269748Y77724D01*
X448056Y292608D02*
X448000Y293650D01*
D15*
X574548Y210312D03*
X533400Y120396D03*
X269748Y77724D03*
D14*
X448056Y280416D02*
X464820Y280416D01*
X522732Y222504D01*
X534924Y222504D01*
X316992Y86868D02*
X269748Y86868D01*
X448056Y280416D02*
X448000Y280950D01*
D15*
X534924Y222504D03*
X316992Y86868D03*
X269748Y86868D03*
D14*
X448056Y268224D02*
X458724Y268224D01*
X473964Y252984D01*
X473964Y219456D01*
X448056Y268224D02*
X448000Y268250D01*
D15*
X473964Y219456D03*
D14*
X391668Y181356D02*
X359664Y181356D01*
X344424Y188976D02*
X315468Y188976D01*
X245364Y118872D01*
X245364Y117348D01*
X391668Y181356D02*
X392000Y181750D01*
D15*
X359664Y181356D03*
X344424Y188976D03*
X245364Y117348D03*
D14*
X416052Y195072D02*
X446532Y195072D01*
X379476Y199644D02*
X304800Y199644D01*
X248412Y143256D01*
X446532Y195072D02*
X448000Y194450D01*
D15*
X416052Y195072D03*
X379476Y199644D03*
X248412Y143256D03*
D14*
X429768Y181356D02*
X446532Y181356D01*
X379476Y175260D02*
X310896Y175260D01*
X259080Y123444D01*
X446532Y181356D02*
X448000Y181750D01*
D15*
X429768Y181356D03*
X379476Y175260D03*
X259080Y123444D03*
D14*
X432816Y169164D02*
X446532Y169164D01*
X432816Y169164D02*
X403860Y198120D01*
X403860Y269748D01*
X399288Y274320D01*
X370332Y274320D01*
X240792Y144780D01*
X240792Y135636D01*
X446532Y169164D02*
X448000Y169050D01*
D15*
X240792Y135636D03*
D14*
X425196Y156972D02*
X446532Y156972D01*
X425196Y156972D02*
X422148Y160020D01*
X496824Y262128D02*
X496824Y422148D01*
X446532Y156972D02*
X448000Y156350D01*
D15*
X422148Y160020D03*
X496824Y262128D03*
X496824Y422148D03*
D14*
X452628Y144780D02*
X448056Y144780D01*
X452628Y144780D02*
X480060Y172212D01*
X486156Y172212D01*
X519684Y262128D02*
X519684Y419100D01*
X513588Y425196D01*
X448056Y144780D02*
X448000Y143650D01*
D15*
X486156Y172212D03*
X519684Y262128D03*
X513588Y425196D03*
D14*
X478536Y161544D02*
X448056Y131064D01*
X509016Y252984D02*
X509016Y420624D01*
X495300Y434340D01*
X448056Y131064D02*
X448000Y130950D01*
D15*
X478536Y161544D03*
X509016Y252984D03*
X495300Y434340D03*
D14*
X461772Y118872D02*
X448056Y118872D01*
X461772Y118872D02*
X492252Y149352D01*
X516636Y149352D01*
X542544Y175260D01*
X562356Y175260D01*
X568452Y181356D01*
X568452Y202692D01*
X448056Y118872D02*
X448000Y118250D01*
D15*
X568452Y202692D03*
D14*
X423672Y106680D02*
X393192Y106680D01*
X423672Y106680D02*
X441960Y124968D01*
X463296Y124968D01*
X496824Y158496D01*
X499872Y158496D01*
X393192Y106680D02*
X392000Y105550D01*
X499872Y158496D02*
X500000Y160000D01*
X100584Y618744D02*
X85344Y618744D01*
X38100Y571500D01*
X38100Y147828D01*
X118872Y67056D01*
X530352Y67056D01*
X568452Y105156D01*
X568452Y140208D01*
X550164Y158496D01*
X102000Y619050D02*
X100584Y618744D01*
X550000Y160000D02*
X550164Y158496D01*
M02*
