G04 EAGLE Gerber RS-274X export*
G75*
%MOMM*%
%FSLAX34Y34*%
%LPD*%
%INSilkscreen Bottom*%
%IPPOS*%
%AMOC8*
5,1,8,0,0,1.08239X$1,22.5*%
G01*
%ADD10R,1.260000X0.010000*%
%ADD11R,0.650000X0.010000*%
%ADD12R,0.660000X0.010000*%
%ADD13R,1.250000X0.010000*%
%ADD14R,0.670000X0.010000*%
%ADD15R,1.240000X0.010000*%
%ADD16R,0.030000X0.010000*%
%ADD17R,0.080000X0.010000*%
%ADD18R,1.160000X0.010000*%
%ADD19R,0.060000X0.010000*%
%ADD20R,0.040000X0.010000*%
%ADD21R,0.050000X0.010000*%
%ADD22R,0.680000X0.010000*%
%ADD23R,1.130000X0.010000*%
%ADD24R,0.170000X0.010000*%
%ADD25R,1.120000X0.010000*%
%ADD26R,0.020000X0.010000*%
%ADD27R,0.010000X0.010000*%
%ADD28R,0.270000X0.010000*%
%ADD29R,0.070000X0.010000*%
%ADD30R,0.690000X0.010000*%
%ADD31R,0.700000X0.010000*%
%ADD32R,1.090000X0.010000*%
%ADD33R,1.020000X0.010000*%
%ADD34R,1.000000X0.010000*%
%ADD35R,0.710000X0.010000*%
%ADD36R,0.980000X0.010000*%
%ADD37R,0.970000X0.010000*%
%ADD38R,0.960000X0.010000*%
%ADD39R,0.720000X0.010000*%
%ADD40R,0.950000X0.010000*%
%ADD41R,0.120000X0.010000*%
%ADD42R,0.940000X0.010000*%
%ADD43R,0.090000X0.010000*%
%ADD44R,0.730000X0.010000*%
%ADD45R,0.930000X0.010000*%
%ADD46R,0.920000X0.010000*%
%ADD47R,0.740000X0.010000*%
%ADD48R,0.910000X0.010000*%
%ADD49R,0.750000X0.010000*%
%ADD50R,0.900000X0.010000*%
%ADD51R,0.760000X0.010000*%
%ADD52R,0.890000X0.010000*%
%ADD53R,0.770000X0.010000*%
%ADD54R,0.790000X0.010000*%
%ADD55R,0.880000X0.010000*%
%ADD56R,0.780000X0.010000*%
%ADD57R,0.610000X0.010000*%
%ADD58R,0.250000X0.010000*%
%ADD59R,0.560000X0.010000*%
%ADD60R,0.200000X0.010000*%
%ADD61R,0.550000X0.010000*%
%ADD62R,0.190000X0.010000*%
%ADD63R,0.540000X0.010000*%
%ADD64R,0.180000X0.010000*%
%ADD65R,0.530000X0.010000*%
%ADD66R,0.520000X0.010000*%
%ADD67R,0.510000X0.010000*%
%ADD68R,0.110000X0.010000*%
%ADD69R,0.500000X0.010000*%
%ADD70R,0.360000X0.010000*%
%ADD71R,0.370000X0.010000*%
%ADD72R,0.290000X0.010000*%
%ADD73R,0.310000X0.010000*%
%ADD74R,0.240000X0.010000*%
%ADD75R,0.210000X0.010000*%
%ADD76R,0.800000X0.010000*%
%ADD77R,0.220000X0.010000*%
%ADD78R,0.130000X0.010000*%
%ADD79R,0.810000X0.010000*%
%ADD80R,0.160000X0.010000*%
%ADD81R,0.150000X0.010000*%
%ADD82R,0.820000X0.010000*%
%ADD83R,0.830000X0.010000*%
%ADD84R,0.140000X0.010000*%
%ADD85R,0.840000X0.010000*%
%ADD86R,0.850000X0.010000*%
%ADD87R,0.230000X0.010000*%
%ADD88R,0.260000X0.010000*%
%ADD89R,0.870000X0.010000*%
%ADD90R,0.410000X0.010000*%
%ADD91R,0.860000X0.010000*%
%ADD92R,0.590000X0.010000*%
%ADD93R,0.100000X0.010000*%
%ADD94R,0.620000X0.010000*%
%ADD95R,0.630000X0.010000*%
%ADD96R,0.640000X0.010000*%
%ADD97R,0.990000X0.010000*%
%ADD98R,1.040000X0.010000*%
%ADD99R,1.030000X0.010000*%
%ADD100R,1.060000X0.010000*%
%ADD101R,1.080000X0.010000*%
%ADD102R,1.100000X0.010000*%
%ADD103R,1.170000X0.010000*%
%ADD104R,1.280000X0.010000*%
%ADD105R,1.290000X0.010000*%
%ADD106R,0.440000X0.010000*%
%ADD107R,0.470000X0.010000*%
%ADD108R,1.860000X0.010000*%
%ADD109R,1.870000X0.010000*%
%ADD110R,1.880000X0.010000*%
%ADD111R,1.890000X0.010000*%
%ADD112R,1.900000X0.010000*%
%ADD113R,0.600000X0.010000*%
%ADD114R,0.580000X0.010000*%
%ADD115R,0.570000X0.010000*%
%ADD116R,1.230000X0.010000*%
%ADD117R,1.070000X0.010000*%
%ADD118R,1.050000X0.010000*%
%ADD119R,1.010000X0.010000*%
%ADD120R,0.490000X0.010000*%
%ADD121R,0.480000X0.010000*%
%ADD122R,0.280000X0.010000*%
%ADD123R,0.450000X0.010000*%
%ADD124R,0.430000X0.010000*%
%ADD125R,0.420000X0.010000*%
%ADD126R,0.400000X0.010000*%
%ADD127R,0.390000X0.010000*%
%ADD128C,0.152400*%
%ADD129C,0.050800*%
%ADD130C,0.127000*%


D10*
X6250Y0D03*
D11*
X22400Y0D03*
D10*
X6250Y100D03*
D12*
X22350Y100D03*
D13*
X6200Y200D03*
D12*
X22350Y200D03*
D13*
X6200Y300D03*
D12*
X22350Y300D03*
D13*
X6200Y400D03*
D12*
X22350Y400D03*
D13*
X6200Y500D03*
D14*
X22300Y500D03*
D13*
X6200Y600D03*
D14*
X22300Y600D03*
D15*
X6150Y700D03*
D16*
X13500Y700D03*
D14*
X22300Y700D03*
D15*
X6150Y800D03*
D17*
X13550Y800D03*
D14*
X22300Y800D03*
D18*
X5750Y900D03*
D19*
X12050Y900D03*
D20*
X13250Y900D03*
X13850Y900D03*
D21*
X15700Y900D03*
D22*
X22250Y900D03*
D23*
X5600Y1000D03*
D16*
X12200Y1000D03*
X13100Y1000D03*
X13900Y1000D03*
D24*
X15400Y1000D03*
D22*
X22250Y1000D03*
D25*
X5550Y1100D03*
D26*
X12250Y1100D03*
D27*
X13000Y1100D03*
D28*
X15200Y1100D03*
D22*
X22250Y1100D03*
D25*
X5550Y1200D03*
D21*
X12400Y1200D03*
D26*
X12950Y1200D03*
D29*
X14300Y1200D03*
D19*
X16450Y1200D03*
D22*
X22250Y1200D03*
D23*
X5600Y1300D03*
D29*
X12400Y1300D03*
D16*
X13000Y1300D03*
D27*
X14100Y1300D03*
D21*
X16700Y1300D03*
D30*
X22200Y1300D03*
D23*
X5600Y1400D03*
D26*
X12150Y1400D03*
D19*
X12950Y1400D03*
D21*
X16900Y1400D03*
D30*
X22200Y1400D03*
D23*
X5600Y1500D03*
D19*
X12950Y1500D03*
D20*
X17050Y1500D03*
D31*
X22150Y1500D03*
D32*
X5400Y1600D03*
D20*
X12750Y1600D03*
D16*
X17100Y1600D03*
D31*
X22150Y1600D03*
D33*
X5050Y1700D03*
D20*
X12750Y1700D03*
D26*
X17150Y1700D03*
D31*
X22150Y1700D03*
D34*
X4950Y1800D03*
D20*
X12750Y1800D03*
D16*
X17200Y1800D03*
D35*
X22100Y1800D03*
D36*
X4850Y1900D03*
D16*
X12800Y1900D03*
D26*
X17250Y1900D03*
D35*
X22100Y1900D03*
D37*
X4800Y2000D03*
D16*
X12800Y2000D03*
D26*
X13250Y2000D03*
D16*
X17300Y2000D03*
D35*
X22100Y2000D03*
D38*
X4750Y2100D03*
D19*
X12950Y2100D03*
D26*
X17350Y2100D03*
D39*
X22050Y2100D03*
D40*
X4700Y2200D03*
D19*
X12950Y2200D03*
D41*
X14550Y2200D03*
D26*
X17350Y2200D03*
D39*
X22050Y2200D03*
D42*
X4650Y2300D03*
D20*
X12950Y2300D03*
D16*
X14100Y2300D03*
D43*
X14900Y2300D03*
D26*
X17450Y2300D03*
D44*
X22000Y2300D03*
D45*
X4600Y2400D03*
D20*
X12950Y2400D03*
D26*
X14050Y2400D03*
D21*
X15300Y2400D03*
D26*
X17450Y2400D03*
D44*
X22000Y2400D03*
D45*
X4600Y2500D03*
D21*
X11900Y2500D03*
X12900Y2500D03*
D26*
X14050Y2500D03*
D20*
X15450Y2500D03*
D26*
X17450Y2500D03*
D44*
X22000Y2500D03*
D45*
X4600Y2600D03*
D43*
X11700Y2600D03*
D26*
X12750Y2600D03*
X13050Y2600D03*
X14050Y2600D03*
D16*
X15500Y2600D03*
X17500Y2600D03*
D44*
X22000Y2600D03*
D46*
X4550Y2700D03*
D17*
X11450Y2700D03*
D29*
X12400Y2700D03*
D26*
X13150Y2700D03*
X14050Y2700D03*
D16*
X15600Y2700D03*
D26*
X17550Y2700D03*
D47*
X21950Y2700D03*
D46*
X4550Y2800D03*
D17*
X11350Y2800D03*
D21*
X12400Y2800D03*
D26*
X13250Y2800D03*
D16*
X13900Y2800D03*
X15700Y2800D03*
D26*
X17550Y2800D03*
D47*
X21950Y2800D03*
D48*
X4500Y2900D03*
D43*
X11300Y2900D03*
D17*
X13550Y2900D03*
D16*
X15700Y2900D03*
D26*
X17550Y2900D03*
D47*
X21950Y2900D03*
D48*
X4500Y3000D03*
D17*
X11250Y3000D03*
D16*
X13500Y3000D03*
X15800Y3000D03*
D26*
X17650Y3000D03*
D49*
X21900Y3000D03*
D50*
X4450Y3100D03*
D43*
X11200Y3100D03*
D26*
X15850Y3100D03*
X17650Y3100D03*
D49*
X21900Y3100D03*
D50*
X4450Y3200D03*
D43*
X11200Y3200D03*
D26*
X15850Y3200D03*
X17650Y3200D03*
D49*
X21900Y3200D03*
D50*
X4450Y3300D03*
D43*
X11100Y3300D03*
D26*
X15950Y3300D03*
X17650Y3300D03*
D49*
X21900Y3300D03*
D50*
X4450Y3400D03*
D43*
X11100Y3400D03*
D26*
X15950Y3400D03*
X17750Y3400D03*
D51*
X21850Y3400D03*
D50*
X4450Y3500D03*
D17*
X11050Y3500D03*
D26*
X15950Y3500D03*
X17750Y3500D03*
D51*
X21850Y3500D03*
D50*
X4450Y3600D03*
D17*
X11050Y3600D03*
D27*
X16000Y3600D03*
D26*
X17750Y3600D03*
D51*
X21850Y3600D03*
D52*
X4400Y3700D03*
D17*
X10950Y3700D03*
D26*
X16050Y3700D03*
X17750Y3700D03*
D51*
X21850Y3700D03*
D52*
X4400Y3800D03*
D17*
X10950Y3800D03*
D26*
X16050Y3800D03*
X17750Y3800D03*
D51*
X21850Y3800D03*
D52*
X4400Y3900D03*
D29*
X10900Y3900D03*
D26*
X16050Y3900D03*
X17750Y3900D03*
D51*
X21850Y3900D03*
D52*
X4400Y4000D03*
D29*
X10900Y4000D03*
D26*
X16050Y4000D03*
D27*
X17800Y4000D03*
D53*
X21800Y4000D03*
D52*
X4400Y4100D03*
D19*
X10850Y4100D03*
D26*
X16050Y4100D03*
D54*
X21700Y4100D03*
D52*
X4400Y4200D03*
D19*
X10850Y4200D03*
D26*
X16050Y4200D03*
D54*
X21700Y4200D03*
D52*
X4400Y4300D03*
D21*
X10800Y4300D03*
D26*
X16050Y4300D03*
D54*
X21700Y4300D03*
D52*
X4400Y4400D03*
D19*
X10750Y4400D03*
D26*
X16050Y4400D03*
D54*
X21700Y4400D03*
D52*
X4400Y4500D03*
D21*
X10700Y4500D03*
D27*
X16000Y4500D03*
D54*
X21700Y4500D03*
D55*
X4350Y4600D03*
D21*
X10700Y4600D03*
D56*
X21750Y4600D03*
D55*
X4350Y4700D03*
D20*
X10650Y4700D03*
D56*
X21750Y4700D03*
D55*
X4350Y4800D03*
D16*
X10700Y4800D03*
D56*
X21750Y4800D03*
D55*
X4350Y4900D03*
D26*
X10650Y4900D03*
D56*
X21750Y4900D03*
D55*
X4350Y5000D03*
D26*
X10650Y5000D03*
D56*
X21750Y5000D03*
D57*
X3000Y5100D03*
D58*
X7500Y5100D03*
D56*
X21750Y5100D03*
D59*
X2750Y5200D03*
D60*
X7750Y5200D03*
D56*
X21750Y5200D03*
D61*
X2700Y5300D03*
D62*
X7800Y5300D03*
D56*
X21750Y5300D03*
D63*
X2650Y5400D03*
D64*
X7850Y5400D03*
D56*
X21750Y5400D03*
D65*
X2600Y5500D03*
D64*
X7850Y5500D03*
D20*
X14550Y5500D03*
D56*
X21750Y5500D03*
D66*
X2550Y5600D03*
D27*
X6100Y5600D03*
D24*
X7900Y5600D03*
D17*
X14650Y5600D03*
D56*
X21750Y5600D03*
D67*
X2500Y5700D03*
D26*
X6050Y5700D03*
D24*
X7900Y5700D03*
D68*
X14700Y5700D03*
D56*
X21750Y5700D03*
D69*
X2450Y5800D03*
D26*
X6050Y5800D03*
D24*
X8000Y5800D03*
D16*
X14200Y5800D03*
D17*
X15050Y5800D03*
D56*
X21750Y5800D03*
D69*
X2450Y5900D03*
D26*
X6050Y5900D03*
D24*
X8000Y5900D03*
D26*
X14150Y5900D03*
D29*
X15200Y5900D03*
D56*
X21750Y5900D03*
D69*
X2450Y6000D03*
D26*
X6050Y6000D03*
D24*
X8000Y6000D03*
D16*
X14100Y6000D03*
D21*
X15400Y6000D03*
D56*
X21750Y6000D03*
D69*
X2450Y6100D03*
D26*
X6050Y6100D03*
D24*
X8000Y6100D03*
D16*
X14000Y6100D03*
D21*
X15500Y6100D03*
D56*
X21750Y6100D03*
D22*
X3350Y6200D03*
D64*
X8050Y6200D03*
D16*
X13900Y6200D03*
D21*
X15600Y6200D03*
D56*
X21750Y6200D03*
D48*
X4500Y6300D03*
D26*
X13850Y6300D03*
D21*
X15700Y6300D03*
D56*
X21750Y6300D03*
D46*
X4550Y6400D03*
D26*
X13850Y6400D03*
D20*
X15750Y6400D03*
D54*
X21700Y6400D03*
D70*
X1750Y6500D03*
D71*
X8700Y6500D03*
D26*
X13850Y6500D03*
D20*
X15850Y6500D03*
D54*
X21700Y6500D03*
D72*
X1400Y6600D03*
D73*
X10200Y6600D03*
D26*
X13850Y6600D03*
D16*
X15900Y6600D03*
D54*
X21700Y6600D03*
D74*
X1150Y6700D03*
D17*
X9850Y6700D03*
D75*
X11400Y6700D03*
D26*
X13850Y6700D03*
D16*
X16000Y6700D03*
D76*
X21650Y6700D03*
D77*
X1050Y6800D03*
D78*
X12100Y6800D03*
D27*
X13800Y6800D03*
D20*
X16050Y6800D03*
D76*
X21650Y6800D03*
D60*
X950Y6900D03*
D19*
X12450Y6900D03*
D26*
X13750Y6900D03*
D16*
X16100Y6900D03*
D79*
X21600Y6900D03*
D64*
X850Y7000D03*
D27*
X12600Y7000D03*
D26*
X13750Y7000D03*
D20*
X16150Y7000D03*
D79*
X21600Y7000D03*
D80*
X750Y7100D03*
D26*
X13750Y7100D03*
D20*
X16250Y7100D03*
D79*
X21600Y7100D03*
D81*
X700Y7200D03*
D26*
X13750Y7200D03*
D20*
X16250Y7200D03*
D82*
X21550Y7200D03*
D81*
X700Y7300D03*
D26*
X13750Y7300D03*
D20*
X16350Y7300D03*
D83*
X21500Y7300D03*
D84*
X650Y7400D03*
D26*
X13750Y7400D03*
D16*
X16400Y7400D03*
D85*
X21450Y7400D03*
D84*
X650Y7500D03*
D26*
X13750Y7500D03*
D16*
X16500Y7500D03*
D86*
X21400Y7500D03*
D78*
X600Y7600D03*
D26*
X13750Y7600D03*
D45*
X21000Y7600D03*
D41*
X550Y7700D03*
D16*
X13700Y7700D03*
D46*
X21050Y7700D03*
D41*
X550Y7800D03*
D26*
X13650Y7800D03*
D46*
X21050Y7800D03*
D62*
X900Y7900D03*
D26*
X13650Y7900D03*
D48*
X21100Y7900D03*
D87*
X1100Y8000D03*
D26*
X13650Y8000D03*
D48*
X21100Y8000D03*
D74*
X1150Y8100D03*
D26*
X13650Y8100D03*
D50*
X21150Y8100D03*
D74*
X1150Y8200D03*
D26*
X13650Y8200D03*
D50*
X21150Y8200D03*
D74*
X1150Y8300D03*
D26*
X13650Y8300D03*
D52*
X21200Y8300D03*
D74*
X1150Y8400D03*
D26*
X13650Y8400D03*
D52*
X21200Y8400D03*
D74*
X1150Y8500D03*
D16*
X8000Y8500D03*
D20*
X11850Y8500D03*
D26*
X13650Y8500D03*
D55*
X21250Y8500D03*
D74*
X1150Y8600D03*
D19*
X7950Y8600D03*
D26*
X9450Y8600D03*
D19*
X11850Y8600D03*
D27*
X13600Y8600D03*
D55*
X21250Y8600D03*
D87*
X1100Y8700D03*
D29*
X7900Y8700D03*
D20*
X9450Y8700D03*
D26*
X11550Y8700D03*
D16*
X12100Y8700D03*
D26*
X13550Y8700D03*
D55*
X21250Y8700D03*
D88*
X1250Y8800D03*
D29*
X7900Y8800D03*
D19*
X9450Y8800D03*
D26*
X11550Y8800D03*
X12150Y8800D03*
X13550Y8800D03*
D89*
X21300Y8800D03*
D90*
X2000Y8900D03*
D27*
X4200Y8900D03*
D17*
X7850Y8900D03*
D29*
X9400Y8900D03*
D26*
X11550Y8900D03*
X12150Y8900D03*
X13550Y8900D03*
D89*
X21300Y8900D03*
D63*
X2650Y9000D03*
D43*
X7800Y9000D03*
D29*
X9400Y9000D03*
D26*
X11550Y9000D03*
X12150Y9000D03*
X13550Y9000D03*
D91*
X21350Y9000D03*
D59*
X2750Y9100D03*
D43*
X7800Y9100D03*
D29*
X9400Y9100D03*
D26*
X11550Y9100D03*
D27*
X12100Y9100D03*
D26*
X13550Y9100D03*
D91*
X21350Y9100D03*
D92*
X2900Y9200D03*
D43*
X7800Y9200D03*
D17*
X9350Y9200D03*
D27*
X11500Y9200D03*
D26*
X13550Y9200D03*
D86*
X21400Y9200D03*
D57*
X3000Y9300D03*
D93*
X7750Y9300D03*
D17*
X9350Y9300D03*
D20*
X10050Y9300D03*
D27*
X13500Y9300D03*
D86*
X21400Y9300D03*
D94*
X3050Y9400D03*
D93*
X7750Y9400D03*
D84*
X9650Y9400D03*
D26*
X13450Y9400D03*
D86*
X21400Y9400D03*
D95*
X3100Y9500D03*
D93*
X7750Y9500D03*
D78*
X9600Y9500D03*
D26*
X13450Y9500D03*
D86*
X21400Y9500D03*
D96*
X3150Y9600D03*
D43*
X7700Y9600D03*
D41*
X9550Y9600D03*
D26*
X13450Y9600D03*
D85*
X21450Y9600D03*
D11*
X3200Y9700D03*
D29*
X7700Y9700D03*
D93*
X9450Y9700D03*
D26*
X13450Y9700D03*
D85*
X21450Y9700D03*
D11*
X3200Y9800D03*
D29*
X7700Y9800D03*
X9400Y9800D03*
D27*
X13400Y9800D03*
D85*
X21450Y9800D03*
D11*
X3200Y9900D03*
D20*
X7650Y9900D03*
D21*
X9300Y9900D03*
D27*
X13400Y9900D03*
D85*
X21450Y9900D03*
D12*
X3250Y10000D03*
D20*
X9150Y10000D03*
D26*
X13350Y10000D03*
D83*
X21500Y10000D03*
D12*
X3250Y10100D03*
D20*
X9050Y10100D03*
D26*
X13350Y10100D03*
D83*
X21500Y10100D03*
D12*
X3250Y10200D03*
D16*
X8900Y10200D03*
D26*
X13350Y10200D03*
D82*
X21550Y10200D03*
D12*
X3250Y10300D03*
D26*
X8850Y10300D03*
X13350Y10300D03*
D82*
X21550Y10300D03*
D12*
X3250Y10400D03*
D26*
X13350Y10400D03*
D82*
X21550Y10400D03*
D12*
X3250Y10500D03*
D26*
X13350Y10500D03*
D82*
X21550Y10500D03*
D14*
X3300Y10600D03*
D27*
X13300Y10600D03*
D79*
X21600Y10600D03*
D14*
X3300Y10700D03*
D27*
X13300Y10700D03*
D79*
X21600Y10700D03*
D14*
X3300Y10800D03*
D16*
X12100Y10800D03*
D27*
X13300Y10800D03*
D79*
X21600Y10800D03*
D14*
X3300Y10900D03*
D19*
X12050Y10900D03*
D27*
X13300Y10900D03*
D79*
X21600Y10900D03*
D14*
X3300Y11000D03*
D26*
X11850Y11000D03*
X12250Y11000D03*
X13250Y11000D03*
D79*
X21600Y11000D03*
D14*
X3300Y11100D03*
D26*
X11750Y11100D03*
X12350Y11100D03*
X13250Y11100D03*
D79*
X21600Y11100D03*
D14*
X3300Y11200D03*
D27*
X11700Y11200D03*
D26*
X12350Y11200D03*
X13250Y11200D03*
D79*
X21600Y11200D03*
D14*
X3300Y11300D03*
D26*
X11650Y11300D03*
X12350Y11300D03*
X13250Y11300D03*
D79*
X21600Y11300D03*
D14*
X3300Y11400D03*
D26*
X11650Y11400D03*
X12350Y11400D03*
X13250Y11400D03*
D79*
X21600Y11400D03*
D22*
X3350Y11500D03*
D26*
X11650Y11500D03*
D27*
X12400Y11500D03*
D26*
X13250Y11500D03*
D79*
X21600Y11500D03*
D22*
X3350Y11600D03*
D26*
X11650Y11600D03*
X13250Y11600D03*
D76*
X21650Y11600D03*
D22*
X3350Y11700D03*
D27*
X11700Y11700D03*
D26*
X13250Y11700D03*
D76*
X21650Y11700D03*
D22*
X3350Y11800D03*
D26*
X13250Y11800D03*
D76*
X21650Y11800D03*
D22*
X3350Y11900D03*
D26*
X13250Y11900D03*
D76*
X21650Y11900D03*
D30*
X3400Y12000D03*
D27*
X13200Y12000D03*
D76*
X21650Y12000D03*
D30*
X3400Y12100D03*
D27*
X13200Y12100D03*
D76*
X21650Y12100D03*
D31*
X3450Y12200D03*
D27*
X13200Y12200D03*
D79*
X21600Y12200D03*
D35*
X3500Y12300D03*
D27*
X13200Y12300D03*
D79*
X21600Y12300D03*
D35*
X3500Y12400D03*
D27*
X13200Y12400D03*
D82*
X21550Y12400D03*
D39*
X3550Y12500D03*
D26*
X13150Y12500D03*
D82*
X21550Y12500D03*
D39*
X3550Y12600D03*
D26*
X13150Y12600D03*
D83*
X21500Y12600D03*
D44*
X3600Y12700D03*
D27*
X13100Y12700D03*
D83*
X21500Y12700D03*
D47*
X3650Y12800D03*
D27*
X13100Y12800D03*
D85*
X21450Y12800D03*
D47*
X3650Y12900D03*
D27*
X13100Y12900D03*
D86*
X21400Y12900D03*
D49*
X3700Y13000D03*
D26*
X13050Y13000D03*
D86*
X21400Y13000D03*
D51*
X3750Y13100D03*
D26*
X13050Y13100D03*
D91*
X21350Y13100D03*
D53*
X3800Y13200D03*
D27*
X13000Y13200D03*
D89*
X21300Y13200D03*
D56*
X3850Y13300D03*
D27*
X13000Y13300D03*
D55*
X21250Y13300D03*
D54*
X3900Y13400D03*
D26*
X12950Y13400D03*
D52*
X21200Y13400D03*
D76*
X3950Y13500D03*
D27*
X12900Y13500D03*
D50*
X21150Y13500D03*
D79*
X4000Y13600D03*
D27*
X12900Y13600D03*
D46*
X21050Y13600D03*
D83*
X4100Y13700D03*
D26*
X12850Y13700D03*
D42*
X20950Y13700D03*
D85*
X4150Y13800D03*
D26*
X12850Y13800D03*
D40*
X20900Y13800D03*
D86*
X4200Y13900D03*
D27*
X12800Y13900D03*
D38*
X20850Y13900D03*
D89*
X4300Y14000D03*
D27*
X12800Y14000D03*
D37*
X20800Y14000D03*
D52*
X4400Y14100D03*
D26*
X12750Y14100D03*
D97*
X20700Y14100D03*
D46*
X4550Y14200D03*
D26*
X12750Y14200D03*
D34*
X20650Y14200D03*
D42*
X4650Y14300D03*
D27*
X12700Y14300D03*
D33*
X20550Y14300D03*
D37*
X4800Y14400D03*
D26*
X12650Y14400D03*
D98*
X20450Y14400D03*
D99*
X5100Y14500D03*
D16*
X12600Y14500D03*
D100*
X20350Y14500D03*
D101*
X5350Y14600D03*
D16*
X12600Y14600D03*
D101*
X20250Y14600D03*
D25*
X5550Y14700D03*
D16*
X12600Y14700D03*
D102*
X20150Y14700D03*
D103*
X5800Y14800D03*
D16*
X12600Y14800D03*
D71*
X16300Y14800D03*
D47*
X21950Y14800D03*
D104*
X6350Y14900D03*
D90*
X16200Y14900D03*
D39*
X22050Y14900D03*
D105*
X6400Y15000D03*
D106*
X16150Y15000D03*
D35*
X22100Y15000D03*
D105*
X6400Y15100D03*
D107*
X16100Y15100D03*
D30*
X22200Y15100D03*
D108*
X9250Y15200D03*
D22*
X22250Y15200D03*
D109*
X9300Y15300D03*
D14*
X22300Y15300D03*
D109*
X9300Y15400D03*
D11*
X22400Y15400D03*
D110*
X9350Y15500D03*
D96*
X22450Y15500D03*
D111*
X9400Y15600D03*
D95*
X22500Y15600D03*
D111*
X9400Y15700D03*
D94*
X22550Y15700D03*
D112*
X9450Y15800D03*
D57*
X22600Y15800D03*
D112*
X9450Y15900D03*
D113*
X22650Y15900D03*
D112*
X9450Y16000D03*
D92*
X22700Y16000D03*
D112*
X9450Y16100D03*
D114*
X22750Y16100D03*
D112*
X9450Y16200D03*
D115*
X22800Y16200D03*
D112*
X9450Y16300D03*
D115*
X22800Y16300D03*
D112*
X9450Y16400D03*
D115*
X22800Y16400D03*
D116*
X6100Y16500D03*
D78*
X18200Y16500D03*
D115*
X22800Y16500D03*
D103*
X5800Y16600D03*
D17*
X18350Y16600D03*
D115*
X22800Y16600D03*
D23*
X5600Y16700D03*
D16*
X18500Y16700D03*
D115*
X22800Y16700D03*
D117*
X5300Y16800D03*
D115*
X22800Y16800D03*
D118*
X5200Y16900D03*
D115*
X22800Y16900D03*
D99*
X5100Y17000D03*
D63*
X22950Y17000D03*
D119*
X5000Y17100D03*
D65*
X23000Y17100D03*
D97*
X4900Y17200D03*
D66*
X23050Y17200D03*
D36*
X4850Y17300D03*
D67*
X23100Y17300D03*
D37*
X4800Y17400D03*
D69*
X23150Y17400D03*
D38*
X4750Y17500D03*
D27*
X11900Y17500D03*
D78*
X13400Y17500D03*
D69*
X23150Y17500D03*
D38*
X4750Y17600D03*
D26*
X11150Y17600D03*
X11850Y17600D03*
D78*
X13300Y17600D03*
D27*
X15100Y17600D03*
D120*
X23200Y17600D03*
D40*
X4700Y17700D03*
D16*
X11100Y17700D03*
D26*
X11750Y17700D03*
X12750Y17700D03*
D16*
X13300Y17700D03*
D27*
X13700Y17700D03*
D16*
X14500Y17700D03*
D26*
X15150Y17700D03*
D16*
X15600Y17700D03*
D27*
X16400Y17700D03*
X18200Y17700D03*
D26*
X18650Y17700D03*
X19350Y17700D03*
D121*
X23250Y17700D03*
D40*
X4700Y17800D03*
D26*
X10950Y17800D03*
D27*
X11200Y17800D03*
D16*
X11700Y17800D03*
D26*
X12850Y17800D03*
D19*
X13450Y17800D03*
D16*
X14600Y17800D03*
D21*
X15300Y17800D03*
D27*
X16400Y17800D03*
D20*
X17050Y17800D03*
D26*
X17650Y17800D03*
D16*
X18100Y17800D03*
D26*
X18650Y17800D03*
D20*
X19450Y17800D03*
D121*
X23250Y17800D03*
D40*
X4700Y17900D03*
D27*
X11200Y17900D03*
D16*
X11700Y17900D03*
D93*
X13250Y17900D03*
D27*
X14700Y17900D03*
D20*
X15250Y17900D03*
D27*
X16400Y17900D03*
D21*
X17000Y17900D03*
X17800Y17900D03*
D26*
X18750Y17900D03*
D21*
X19400Y17900D03*
D121*
X23250Y17900D03*
D40*
X4700Y18000D03*
D26*
X11150Y18000D03*
X11750Y18000D03*
D27*
X12800Y18000D03*
D19*
X13350Y18000D03*
D21*
X15300Y18000D03*
D27*
X16400Y18000D03*
D19*
X17050Y18000D03*
D20*
X17750Y18000D03*
D29*
X19100Y18000D03*
D107*
X23300Y18000D03*
D122*
X1350Y18100D03*
D57*
X6300Y18100D03*
D68*
X11400Y18100D03*
D26*
X12750Y18100D03*
D16*
X13300Y18100D03*
D27*
X14400Y18100D03*
X14600Y18100D03*
D19*
X15250Y18100D03*
D27*
X16400Y18100D03*
D21*
X17000Y18100D03*
D16*
X17700Y18100D03*
D21*
X19100Y18100D03*
D107*
X23300Y18100D03*
D87*
X1100Y18200D03*
D72*
X6200Y18200D03*
D16*
X10800Y18200D03*
D29*
X11400Y18200D03*
D27*
X12700Y18200D03*
D20*
X13250Y18200D03*
D21*
X14500Y18200D03*
X15300Y18200D03*
D27*
X16400Y18200D03*
X16800Y18200D03*
X17500Y18200D03*
D26*
X17850Y18200D03*
X18950Y18200D03*
D107*
X23300Y18200D03*
D41*
X550Y18300D03*
D93*
X11250Y18300D03*
D21*
X13300Y18300D03*
D26*
X15350Y18300D03*
X16350Y18300D03*
X16750Y18300D03*
X17450Y18300D03*
D27*
X17900Y18300D03*
D16*
X19000Y18300D03*
D107*
X23300Y18300D03*
D93*
X450Y18400D03*
D26*
X10550Y18400D03*
D43*
X11500Y18400D03*
D27*
X15400Y18400D03*
X16000Y18400D03*
D26*
X16350Y18400D03*
D93*
X17150Y18400D03*
D26*
X17950Y18400D03*
X18450Y18400D03*
D20*
X18950Y18400D03*
D107*
X23300Y18400D03*
D16*
X10700Y18500D03*
D26*
X11150Y18500D03*
X11650Y18500D03*
D21*
X13000Y18500D03*
X14800Y18500D03*
D26*
X15450Y18500D03*
D20*
X16150Y18500D03*
D19*
X17050Y18500D03*
X17750Y18500D03*
D26*
X18450Y18500D03*
X19450Y18500D03*
D107*
X23300Y18500D03*
D21*
X10900Y18600D03*
D27*
X11600Y18600D03*
D93*
X13250Y18600D03*
D43*
X14600Y18600D03*
D26*
X15450Y18600D03*
D20*
X16250Y18600D03*
D26*
X16850Y18600D03*
X17550Y18600D03*
D29*
X18700Y18600D03*
D26*
X19450Y18600D03*
D107*
X23300Y18600D03*
D20*
X11050Y18700D03*
D27*
X11600Y18700D03*
D26*
X12850Y18700D03*
X13150Y18700D03*
X13450Y18700D03*
X13750Y18700D03*
D20*
X14450Y18700D03*
D26*
X14950Y18700D03*
X15450Y18700D03*
D16*
X16400Y18700D03*
D26*
X16950Y18700D03*
D27*
X17600Y18700D03*
D17*
X19150Y18700D03*
D121*
X23250Y18700D03*
D16*
X11200Y18800D03*
D26*
X12050Y18800D03*
X12850Y18800D03*
X13150Y18800D03*
D27*
X13400Y18800D03*
D26*
X13850Y18800D03*
D21*
X15200Y18800D03*
D26*
X17650Y18800D03*
D27*
X18900Y18800D03*
D121*
X23250Y18800D03*
D26*
X11350Y18900D03*
X11950Y18900D03*
D68*
X13300Y18900D03*
D16*
X15200Y18900D03*
D120*
X23200Y18900D03*
D26*
X8550Y19000D03*
D27*
X11900Y19000D03*
D93*
X13350Y19000D03*
D16*
X18900Y19000D03*
D69*
X23150Y19000D03*
D26*
X8550Y19100D03*
D21*
X18900Y19100D03*
D67*
X23100Y19100D03*
D27*
X3400Y19200D03*
D26*
X8550Y19200D03*
X18750Y19200D03*
X19150Y19200D03*
D67*
X23100Y19200D03*
D26*
X3350Y19300D03*
X5750Y19300D03*
D20*
X8550Y19300D03*
D16*
X18600Y19300D03*
D26*
X19250Y19300D03*
D67*
X23100Y19300D03*
D26*
X3350Y19400D03*
X4650Y19400D03*
X5750Y19400D03*
D17*
X8650Y19400D03*
D26*
X12450Y19400D03*
D27*
X15900Y19400D03*
D21*
X18400Y19400D03*
D26*
X19250Y19400D03*
D69*
X23150Y19400D03*
D26*
X3350Y19500D03*
D16*
X4600Y19500D03*
D26*
X5750Y19500D03*
D27*
X7000Y19500D03*
D26*
X8250Y19500D03*
D19*
X8750Y19500D03*
D26*
X12450Y19500D03*
X13450Y19500D03*
X14550Y19500D03*
X15850Y19500D03*
D16*
X18300Y19500D03*
D26*
X19350Y19500D03*
D121*
X23250Y19500D03*
D26*
X3350Y19600D03*
D20*
X4550Y19600D03*
D26*
X5750Y19600D03*
D16*
X6900Y19600D03*
D27*
X8200Y19600D03*
D26*
X8650Y19600D03*
D27*
X12100Y19600D03*
D26*
X12450Y19600D03*
X13350Y19600D03*
D16*
X14500Y19600D03*
D27*
X15900Y19600D03*
D26*
X19350Y19600D03*
D107*
X23300Y19600D03*
D27*
X2600Y19700D03*
D26*
X3350Y19700D03*
D20*
X4550Y19700D03*
D16*
X5800Y19700D03*
X6800Y19700D03*
D27*
X8200Y19700D03*
D26*
X8650Y19700D03*
D20*
X10950Y19700D03*
D26*
X12050Y19700D03*
X12450Y19700D03*
D16*
X13200Y19700D03*
D21*
X14400Y19700D03*
D26*
X15950Y19700D03*
D16*
X17000Y19700D03*
D26*
X19450Y19700D03*
D123*
X23400Y19700D03*
D84*
X2050Y19800D03*
D26*
X3350Y19800D03*
D21*
X4500Y19800D03*
D26*
X5850Y19800D03*
D16*
X6700Y19800D03*
D26*
X8250Y19800D03*
X8650Y19800D03*
D19*
X10950Y19800D03*
D16*
X12100Y19800D03*
D26*
X12450Y19800D03*
D16*
X13100Y19800D03*
D26*
X14150Y19800D03*
X14550Y19800D03*
X15950Y19800D03*
D19*
X16750Y19800D03*
D26*
X19450Y19800D03*
D106*
X23450Y19800D03*
D26*
X1350Y19900D03*
D20*
X2450Y19900D03*
D80*
X3950Y19900D03*
D26*
X5850Y19900D03*
X6550Y19900D03*
X8250Y19900D03*
X8750Y19900D03*
D27*
X9400Y19900D03*
D26*
X10750Y19900D03*
D16*
X11200Y19900D03*
D26*
X12150Y19900D03*
D27*
X12400Y19900D03*
D20*
X12950Y19900D03*
D26*
X14550Y19900D03*
D29*
X16200Y19900D03*
D26*
X19450Y19900D03*
D124*
X23500Y19900D03*
D27*
X1300Y20000D03*
D16*
X2500Y20000D03*
D81*
X4000Y20000D03*
D26*
X5850Y20000D03*
D16*
X6400Y20000D03*
D19*
X8050Y20000D03*
D16*
X8800Y20000D03*
D20*
X9250Y20000D03*
D26*
X10750Y20000D03*
X11250Y20000D03*
D20*
X12350Y20000D03*
D16*
X12800Y20000D03*
D26*
X14550Y20000D03*
D21*
X16000Y20000D03*
D26*
X19450Y20000D03*
D125*
X23550Y20000D03*
D27*
X1300Y20100D03*
D26*
X2550Y20100D03*
D27*
X3300Y20100D03*
D16*
X4600Y20100D03*
D26*
X5850Y20100D03*
D16*
X6300Y20100D03*
D80*
X8550Y20100D03*
D27*
X10700Y20100D03*
X11300Y20100D03*
D19*
X12450Y20100D03*
D26*
X14550Y20100D03*
D17*
X15750Y20100D03*
D19*
X16750Y20100D03*
D26*
X17650Y20100D03*
X19450Y20100D03*
D90*
X23600Y20100D03*
D27*
X1300Y20200D03*
D26*
X2550Y20200D03*
D27*
X3300Y20200D03*
D16*
X4600Y20200D03*
D21*
X6100Y20200D03*
D16*
X8300Y20200D03*
D26*
X8850Y20200D03*
X10650Y20200D03*
X11350Y20200D03*
D20*
X12450Y20200D03*
D43*
X14200Y20200D03*
D27*
X15400Y20200D03*
D26*
X16050Y20200D03*
D84*
X17150Y20200D03*
D26*
X19350Y20200D03*
D90*
X23600Y20200D03*
D27*
X1300Y20300D03*
D16*
X2500Y20300D03*
D26*
X3350Y20300D03*
D21*
X4500Y20300D03*
D16*
X6000Y20300D03*
D26*
X8350Y20300D03*
D27*
X8900Y20300D03*
D26*
X10650Y20300D03*
X11350Y20300D03*
D16*
X12400Y20300D03*
D84*
X14450Y20300D03*
D26*
X16150Y20300D03*
X16950Y20300D03*
D21*
X17500Y20300D03*
D16*
X19300Y20300D03*
D126*
X23650Y20300D03*
D81*
X1900Y20400D03*
X3900Y20400D03*
D43*
X5700Y20400D03*
D27*
X6700Y20400D03*
D26*
X6950Y20400D03*
D21*
X8300Y20400D03*
D19*
X8950Y20400D03*
D26*
X10650Y20400D03*
X11350Y20400D03*
D16*
X12400Y20400D03*
D26*
X14550Y20400D03*
X15050Y20400D03*
X16150Y20400D03*
X16950Y20400D03*
D20*
X19150Y20400D03*
D126*
X23650Y20400D03*
D80*
X1950Y20500D03*
D81*
X3900Y20500D03*
D64*
X6150Y20500D03*
D81*
X8700Y20500D03*
D26*
X10650Y20500D03*
X11350Y20500D03*
D16*
X12500Y20500D03*
D26*
X14550Y20500D03*
X16150Y20500D03*
X16950Y20500D03*
D16*
X19100Y20500D03*
D126*
X23650Y20500D03*
D26*
X1250Y20600D03*
X2650Y20600D03*
X3350Y20600D03*
X4550Y20600D03*
X6050Y20600D03*
D80*
X8750Y20600D03*
D26*
X10650Y20600D03*
D27*
X11300Y20600D03*
D20*
X12550Y20600D03*
D26*
X14550Y20600D03*
X16150Y20600D03*
D19*
X16750Y20600D03*
D16*
X19200Y20600D03*
D126*
X23650Y20600D03*
D26*
X1250Y20700D03*
X2650Y20700D03*
D27*
X3300Y20700D03*
D26*
X4550Y20700D03*
X6050Y20700D03*
X8050Y20700D03*
X8350Y20700D03*
X8750Y20700D03*
X9450Y20700D03*
X10650Y20700D03*
X11250Y20700D03*
D84*
X12450Y20700D03*
D26*
X14550Y20700D03*
D16*
X16100Y20700D03*
D93*
X16850Y20700D03*
D20*
X19350Y20700D03*
D126*
X23650Y20700D03*
D26*
X1250Y20800D03*
D16*
X2600Y20800D03*
D27*
X3300Y20800D03*
D26*
X4550Y20800D03*
X6050Y20800D03*
X8050Y20800D03*
X8350Y20800D03*
X8750Y20800D03*
X9450Y20800D03*
D16*
X10700Y20800D03*
D26*
X11150Y20800D03*
D78*
X12400Y20800D03*
D93*
X14150Y20800D03*
D16*
X15100Y20800D03*
D20*
X15950Y20800D03*
D26*
X16950Y20800D03*
D27*
X17200Y20800D03*
D16*
X19500Y20800D03*
D127*
X23700Y20800D03*
D81*
X1900Y20900D03*
D26*
X3350Y20900D03*
D16*
X4500Y20900D03*
D27*
X6100Y20900D03*
X8000Y20900D03*
D26*
X8350Y20900D03*
X8750Y20900D03*
D16*
X9400Y20900D03*
D19*
X10850Y20900D03*
D21*
X12500Y20900D03*
D81*
X14500Y20900D03*
D16*
X15900Y20900D03*
D26*
X16950Y20900D03*
D16*
X19600Y20900D03*
D127*
X23700Y20900D03*
D17*
X1550Y21000D03*
D16*
X2300Y21000D03*
D84*
X3850Y21000D03*
D26*
X6150Y21000D03*
D27*
X6800Y21000D03*
D26*
X8050Y21000D03*
D41*
X8850Y21000D03*
D26*
X10650Y21000D03*
D16*
X12400Y21000D03*
D26*
X12750Y21000D03*
X14550Y21000D03*
D16*
X15900Y21000D03*
D26*
X16950Y21000D03*
D20*
X19650Y21000D03*
D127*
X23700Y21000D03*
D84*
X3750Y21100D03*
D26*
X6150Y21100D03*
D16*
X6800Y21100D03*
D78*
X8600Y21100D03*
D21*
X12300Y21100D03*
D26*
X12750Y21100D03*
X14550Y21100D03*
D16*
X16000Y21100D03*
D26*
X16950Y21100D03*
D68*
X19200Y21100D03*
D127*
X23700Y21100D03*
D26*
X3350Y21200D03*
D27*
X3800Y21200D03*
D20*
X4150Y21200D03*
D81*
X6200Y21200D03*
D29*
X8500Y21200D03*
D26*
X12150Y21200D03*
X12450Y21200D03*
X12850Y21200D03*
D27*
X14500Y21200D03*
D16*
X16100Y21200D03*
D19*
X16750Y21200D03*
D26*
X17450Y21200D03*
D16*
X18800Y21200D03*
X19300Y21200D03*
D127*
X23700Y21200D03*
D84*
X6050Y21300D03*
D26*
X8350Y21300D03*
D27*
X8700Y21300D03*
D26*
X12050Y21300D03*
X12450Y21300D03*
D16*
X12900Y21300D03*
D26*
X16150Y21300D03*
D41*
X17050Y21300D03*
D127*
X23700Y21300D03*
D27*
X8300Y21400D03*
X8700Y21400D03*
X12000Y21400D03*
D26*
X12450Y21400D03*
D16*
X13000Y21400D03*
D17*
X15850Y21400D03*
D26*
X17450Y21400D03*
D127*
X23700Y21400D03*
D26*
X7850Y21500D03*
X8250Y21500D03*
D20*
X8850Y21500D03*
D26*
X11950Y21500D03*
X12450Y21500D03*
D16*
X13100Y21500D03*
D20*
X15950Y21500D03*
D126*
X23650Y21500D03*
D68*
X8400Y21600D03*
D26*
X12450Y21600D03*
X13150Y21600D03*
D126*
X23650Y21600D03*
D26*
X8250Y21700D03*
X12450Y21700D03*
D27*
X13200Y21700D03*
D126*
X23650Y21700D03*
X23650Y21800D03*
X23650Y21900D03*
D90*
X23600Y22000D03*
X23600Y22100D03*
D125*
X23550Y22200D03*
D124*
X23500Y22300D03*
D128*
X110442Y549200D02*
X110442Y650800D01*
X149558Y650800D02*
X149558Y549200D01*
X110442Y549200D01*
X123650Y650800D02*
X123652Y650642D01*
X123658Y650483D01*
X123668Y650325D01*
X123682Y650168D01*
X123699Y650010D01*
X123721Y649854D01*
X123746Y649697D01*
X123776Y649542D01*
X123809Y649387D01*
X123846Y649233D01*
X123887Y649080D01*
X123932Y648928D01*
X123981Y648778D01*
X124033Y648628D01*
X124089Y648480D01*
X124149Y648333D01*
X124212Y648188D01*
X124279Y648045D01*
X124349Y647903D01*
X124423Y647763D01*
X124501Y647625D01*
X124582Y647489D01*
X124666Y647355D01*
X124753Y647223D01*
X124844Y647093D01*
X124938Y646966D01*
X125035Y646841D01*
X125136Y646718D01*
X125239Y646598D01*
X125345Y646481D01*
X125454Y646366D01*
X125566Y646254D01*
X125681Y646145D01*
X125798Y646039D01*
X125918Y645936D01*
X126041Y645835D01*
X126166Y645738D01*
X126293Y645644D01*
X126423Y645553D01*
X126555Y645466D01*
X126689Y645382D01*
X126825Y645301D01*
X126963Y645223D01*
X127103Y645149D01*
X127245Y645079D01*
X127388Y645012D01*
X127533Y644949D01*
X127680Y644889D01*
X127828Y644833D01*
X127978Y644781D01*
X128128Y644732D01*
X128280Y644687D01*
X128433Y644646D01*
X128587Y644609D01*
X128742Y644576D01*
X128897Y644546D01*
X129054Y644521D01*
X129210Y644499D01*
X129368Y644482D01*
X129525Y644468D01*
X129683Y644458D01*
X129842Y644452D01*
X130000Y644450D01*
X130158Y644452D01*
X130317Y644458D01*
X130475Y644468D01*
X130632Y644482D01*
X130790Y644499D01*
X130946Y644521D01*
X131103Y644546D01*
X131258Y644576D01*
X131413Y644609D01*
X131567Y644646D01*
X131720Y644687D01*
X131872Y644732D01*
X132022Y644781D01*
X132172Y644833D01*
X132320Y644889D01*
X132467Y644949D01*
X132612Y645012D01*
X132755Y645079D01*
X132897Y645149D01*
X133037Y645223D01*
X133175Y645301D01*
X133311Y645382D01*
X133445Y645466D01*
X133577Y645553D01*
X133707Y645644D01*
X133834Y645738D01*
X133959Y645835D01*
X134082Y645936D01*
X134202Y646039D01*
X134319Y646145D01*
X134434Y646254D01*
X134546Y646366D01*
X134655Y646481D01*
X134761Y646598D01*
X134864Y646718D01*
X134965Y646841D01*
X135062Y646966D01*
X135156Y647093D01*
X135247Y647223D01*
X135334Y647355D01*
X135418Y647489D01*
X135499Y647625D01*
X135577Y647763D01*
X135651Y647903D01*
X135721Y648045D01*
X135788Y648188D01*
X135851Y648333D01*
X135911Y648480D01*
X135967Y648628D01*
X136019Y648778D01*
X136068Y648928D01*
X136113Y649080D01*
X136154Y649233D01*
X136191Y649387D01*
X136224Y649542D01*
X136254Y649697D01*
X136279Y649854D01*
X136301Y650010D01*
X136318Y650168D01*
X136332Y650325D01*
X136342Y650483D01*
X136348Y650642D01*
X136350Y650800D01*
D129*
X146002Y650800D02*
X146002Y549200D01*
D128*
X149558Y650800D02*
X136350Y650800D01*
X123650Y650800D02*
X110442Y650800D01*
X110442Y500800D02*
X110442Y399200D01*
X149558Y399200D02*
X149558Y500800D01*
X149558Y399200D02*
X110442Y399200D01*
X123650Y500800D02*
X123652Y500642D01*
X123658Y500483D01*
X123668Y500325D01*
X123682Y500168D01*
X123699Y500010D01*
X123721Y499854D01*
X123746Y499697D01*
X123776Y499542D01*
X123809Y499387D01*
X123846Y499233D01*
X123887Y499080D01*
X123932Y498928D01*
X123981Y498778D01*
X124033Y498628D01*
X124089Y498480D01*
X124149Y498333D01*
X124212Y498188D01*
X124279Y498045D01*
X124349Y497903D01*
X124423Y497763D01*
X124501Y497625D01*
X124582Y497489D01*
X124666Y497355D01*
X124753Y497223D01*
X124844Y497093D01*
X124938Y496966D01*
X125035Y496841D01*
X125136Y496718D01*
X125239Y496598D01*
X125345Y496481D01*
X125454Y496366D01*
X125566Y496254D01*
X125681Y496145D01*
X125798Y496039D01*
X125918Y495936D01*
X126041Y495835D01*
X126166Y495738D01*
X126293Y495644D01*
X126423Y495553D01*
X126555Y495466D01*
X126689Y495382D01*
X126825Y495301D01*
X126963Y495223D01*
X127103Y495149D01*
X127245Y495079D01*
X127388Y495012D01*
X127533Y494949D01*
X127680Y494889D01*
X127828Y494833D01*
X127978Y494781D01*
X128128Y494732D01*
X128280Y494687D01*
X128433Y494646D01*
X128587Y494609D01*
X128742Y494576D01*
X128897Y494546D01*
X129054Y494521D01*
X129210Y494499D01*
X129368Y494482D01*
X129525Y494468D01*
X129683Y494458D01*
X129842Y494452D01*
X130000Y494450D01*
X130158Y494452D01*
X130317Y494458D01*
X130475Y494468D01*
X130632Y494482D01*
X130790Y494499D01*
X130946Y494521D01*
X131103Y494546D01*
X131258Y494576D01*
X131413Y494609D01*
X131567Y494646D01*
X131720Y494687D01*
X131872Y494732D01*
X132022Y494781D01*
X132172Y494833D01*
X132320Y494889D01*
X132467Y494949D01*
X132612Y495012D01*
X132755Y495079D01*
X132897Y495149D01*
X133037Y495223D01*
X133175Y495301D01*
X133311Y495382D01*
X133445Y495466D01*
X133577Y495553D01*
X133707Y495644D01*
X133834Y495738D01*
X133959Y495835D01*
X134082Y495936D01*
X134202Y496039D01*
X134319Y496145D01*
X134434Y496254D01*
X134546Y496366D01*
X134655Y496481D01*
X134761Y496598D01*
X134864Y496718D01*
X134965Y496841D01*
X135062Y496966D01*
X135156Y497093D01*
X135247Y497223D01*
X135334Y497355D01*
X135418Y497489D01*
X135499Y497625D01*
X135577Y497763D01*
X135651Y497903D01*
X135721Y498045D01*
X135788Y498188D01*
X135851Y498333D01*
X135911Y498480D01*
X135967Y498628D01*
X136019Y498778D01*
X136068Y498928D01*
X136113Y499080D01*
X136154Y499233D01*
X136191Y499387D01*
X136224Y499542D01*
X136254Y499697D01*
X136279Y499854D01*
X136301Y500010D01*
X136318Y500168D01*
X136332Y500325D01*
X136342Y500483D01*
X136348Y500642D01*
X136350Y500800D01*
D129*
X146002Y500800D02*
X146002Y399200D01*
D128*
X149558Y500800D02*
X136350Y500800D01*
X123650Y500800D02*
X110442Y500800D01*
D130*
X148451Y510443D02*
X148453Y510343D01*
X148459Y510243D01*
X148469Y510144D01*
X148482Y510045D01*
X148500Y509946D01*
X148521Y509849D01*
X148547Y509752D01*
X148576Y509656D01*
X148608Y509562D01*
X148645Y509469D01*
X148685Y509377D01*
X148728Y509287D01*
X148776Y509199D01*
X148826Y509113D01*
X148880Y509029D01*
X148937Y508946D01*
X148998Y508867D01*
X149061Y508790D01*
X149127Y508715D01*
X149197Y508643D01*
X149269Y508573D01*
X149344Y508507D01*
X149421Y508444D01*
X149500Y508383D01*
X149583Y508326D01*
X149667Y508272D01*
X149753Y508222D01*
X149841Y508174D01*
X149931Y508131D01*
X150023Y508091D01*
X150116Y508054D01*
X150210Y508022D01*
X150306Y507993D01*
X150403Y507967D01*
X150500Y507946D01*
X150599Y507928D01*
X150698Y507915D01*
X150797Y507905D01*
X150897Y507899D01*
X150997Y507897D01*
X150997Y507898D02*
X151139Y507900D01*
X151280Y507905D01*
X151421Y507915D01*
X151562Y507928D01*
X151703Y507944D01*
X151843Y507965D01*
X151982Y507989D01*
X152121Y508017D01*
X152259Y508048D01*
X152396Y508083D01*
X152532Y508122D01*
X152667Y508164D01*
X152801Y508210D01*
X152934Y508259D01*
X153065Y508312D01*
X153195Y508368D01*
X153323Y508427D01*
X153450Y508490D01*
X153575Y508556D01*
X153698Y508626D01*
X153820Y508699D01*
X153939Y508774D01*
X154057Y508853D01*
X154172Y508936D01*
X154285Y509021D01*
X154396Y509109D01*
X154504Y509199D01*
X154611Y509293D01*
X154714Y509390D01*
X154815Y509489D01*
X154497Y516807D02*
X154495Y516907D01*
X154489Y517007D01*
X154479Y517106D01*
X154466Y517205D01*
X154448Y517304D01*
X154427Y517401D01*
X154401Y517498D01*
X154372Y517594D01*
X154340Y517688D01*
X154303Y517781D01*
X154263Y517873D01*
X154220Y517963D01*
X154172Y518051D01*
X154122Y518137D01*
X154068Y518221D01*
X154011Y518304D01*
X153950Y518383D01*
X153887Y518460D01*
X153821Y518535D01*
X153751Y518607D01*
X153679Y518677D01*
X153604Y518743D01*
X153527Y518806D01*
X153448Y518867D01*
X153365Y518924D01*
X153281Y518978D01*
X153195Y519028D01*
X153107Y519076D01*
X153017Y519119D01*
X152925Y519159D01*
X152832Y519196D01*
X152738Y519228D01*
X152642Y519257D01*
X152545Y519283D01*
X152448Y519304D01*
X152349Y519322D01*
X152250Y519335D01*
X152151Y519345D01*
X152051Y519351D01*
X151951Y519353D01*
X151817Y519351D01*
X151684Y519346D01*
X151551Y519336D01*
X151418Y519323D01*
X151285Y519306D01*
X151154Y519286D01*
X151022Y519262D01*
X150892Y519234D01*
X150762Y519202D01*
X150633Y519167D01*
X150505Y519129D01*
X150378Y519087D01*
X150253Y519041D01*
X150129Y518992D01*
X150006Y518939D01*
X149885Y518883D01*
X149765Y518823D01*
X149648Y518760D01*
X149532Y518694D01*
X149417Y518625D01*
X149305Y518553D01*
X149195Y518477D01*
X149087Y518398D01*
X153224Y514580D02*
X153309Y514632D01*
X153392Y514687D01*
X153472Y514746D01*
X153550Y514807D01*
X153626Y514872D01*
X153699Y514939D01*
X153769Y515009D01*
X153837Y515082D01*
X153902Y515157D01*
X153964Y515235D01*
X154023Y515315D01*
X154079Y515397D01*
X154131Y515482D01*
X154181Y515568D01*
X154227Y515656D01*
X154269Y515746D01*
X154308Y515837D01*
X154344Y515930D01*
X154376Y516024D01*
X154404Y516120D01*
X154428Y516216D01*
X154449Y516313D01*
X154466Y516411D01*
X154480Y516509D01*
X154489Y516608D01*
X154495Y516708D01*
X154497Y516807D01*
X149725Y512670D02*
X149640Y512618D01*
X149557Y512563D01*
X149477Y512504D01*
X149399Y512443D01*
X149323Y512378D01*
X149250Y512311D01*
X149180Y512241D01*
X149112Y512168D01*
X149047Y512093D01*
X148985Y512015D01*
X148926Y511935D01*
X148870Y511853D01*
X148818Y511768D01*
X148768Y511682D01*
X148722Y511594D01*
X148680Y511504D01*
X148641Y511413D01*
X148605Y511320D01*
X148573Y511226D01*
X148545Y511130D01*
X148521Y511034D01*
X148500Y510937D01*
X148483Y510839D01*
X148469Y510741D01*
X148460Y510642D01*
X148454Y510542D01*
X148452Y510443D01*
X149724Y512671D02*
X153224Y514580D01*
X143280Y519353D02*
X143280Y507898D01*
X143280Y519353D02*
X140098Y519353D01*
X139987Y519351D01*
X139876Y519345D01*
X139765Y519336D01*
X139655Y519322D01*
X139545Y519305D01*
X139436Y519283D01*
X139328Y519258D01*
X139221Y519230D01*
X139115Y519197D01*
X139010Y519161D01*
X138906Y519121D01*
X138804Y519078D01*
X138703Y519031D01*
X138604Y518981D01*
X138507Y518927D01*
X138412Y518869D01*
X138319Y518809D01*
X138228Y518745D01*
X138139Y518678D01*
X138053Y518609D01*
X137969Y518536D01*
X137888Y518460D01*
X137809Y518381D01*
X137733Y518300D01*
X137660Y518216D01*
X137591Y518130D01*
X137524Y518041D01*
X137460Y517950D01*
X137400Y517857D01*
X137342Y517762D01*
X137288Y517665D01*
X137238Y517566D01*
X137191Y517465D01*
X137148Y517363D01*
X137108Y517259D01*
X137072Y517154D01*
X137039Y517048D01*
X137011Y516941D01*
X136986Y516833D01*
X136964Y516724D01*
X136947Y516614D01*
X136933Y516504D01*
X136924Y516393D01*
X136918Y516282D01*
X136916Y516171D01*
X136918Y516060D01*
X136924Y515949D01*
X136933Y515838D01*
X136947Y515728D01*
X136964Y515618D01*
X136986Y515509D01*
X137011Y515401D01*
X137039Y515294D01*
X137072Y515188D01*
X137108Y515083D01*
X137148Y514979D01*
X137191Y514877D01*
X137238Y514776D01*
X137288Y514677D01*
X137342Y514580D01*
X137400Y514485D01*
X137460Y514392D01*
X137524Y514301D01*
X137591Y514212D01*
X137660Y514126D01*
X137733Y514042D01*
X137809Y513961D01*
X137888Y513882D01*
X137969Y513806D01*
X138053Y513733D01*
X138139Y513664D01*
X138228Y513597D01*
X138319Y513533D01*
X138412Y513473D01*
X138507Y513415D01*
X138604Y513361D01*
X138703Y513311D01*
X138804Y513264D01*
X138906Y513221D01*
X139010Y513181D01*
X139115Y513145D01*
X139221Y513112D01*
X139328Y513084D01*
X139436Y513059D01*
X139545Y513037D01*
X139655Y513020D01*
X139765Y513006D01*
X139876Y512997D01*
X139987Y512991D01*
X140098Y512989D01*
X143280Y512989D01*
X139461Y512989D02*
X136916Y507898D01*
X125546Y516489D02*
X125548Y516594D01*
X125554Y516698D01*
X125563Y516802D01*
X125577Y516906D01*
X125594Y517009D01*
X125615Y517112D01*
X125639Y517213D01*
X125667Y517314D01*
X125699Y517414D01*
X125735Y517512D01*
X125774Y517609D01*
X125817Y517705D01*
X125863Y517799D01*
X125912Y517891D01*
X125965Y517981D01*
X126021Y518069D01*
X126081Y518155D01*
X126143Y518239D01*
X126209Y518321D01*
X126277Y518400D01*
X126348Y518477D01*
X126422Y518551D01*
X126499Y518622D01*
X126578Y518690D01*
X126660Y518756D01*
X126744Y518818D01*
X126830Y518878D01*
X126918Y518934D01*
X127008Y518987D01*
X127100Y519036D01*
X127194Y519082D01*
X127290Y519125D01*
X127387Y519164D01*
X127485Y519200D01*
X127585Y519232D01*
X127686Y519260D01*
X127787Y519284D01*
X127890Y519305D01*
X127993Y519322D01*
X128097Y519336D01*
X128201Y519345D01*
X128305Y519351D01*
X128410Y519353D01*
X128529Y519351D01*
X128647Y519345D01*
X128765Y519336D01*
X128883Y519322D01*
X129001Y519305D01*
X129117Y519284D01*
X129233Y519260D01*
X129349Y519231D01*
X129463Y519199D01*
X129576Y519163D01*
X129688Y519124D01*
X129798Y519081D01*
X129907Y519034D01*
X130015Y518984D01*
X130121Y518931D01*
X130225Y518874D01*
X130327Y518814D01*
X130428Y518750D01*
X130526Y518684D01*
X130622Y518614D01*
X130715Y518541D01*
X130806Y518465D01*
X130895Y518387D01*
X130981Y518305D01*
X131065Y518221D01*
X131146Y518134D01*
X131223Y518044D01*
X131298Y517953D01*
X131370Y517858D01*
X131439Y517762D01*
X131505Y517663D01*
X131568Y517562D01*
X131627Y517459D01*
X131683Y517355D01*
X131735Y517248D01*
X131784Y517140D01*
X131830Y517031D01*
X131872Y516920D01*
X131910Y516808D01*
X126501Y514262D02*
X126424Y514338D01*
X126349Y514416D01*
X126278Y514498D01*
X126209Y514581D01*
X126143Y514667D01*
X126081Y514756D01*
X126021Y514846D01*
X125965Y514939D01*
X125912Y515033D01*
X125863Y515130D01*
X125816Y515228D01*
X125774Y515327D01*
X125735Y515428D01*
X125699Y515531D01*
X125667Y515634D01*
X125639Y515739D01*
X125614Y515844D01*
X125594Y515950D01*
X125576Y516057D01*
X125563Y516165D01*
X125554Y516273D01*
X125548Y516381D01*
X125546Y516489D01*
X126501Y514262D02*
X131910Y507898D01*
X125546Y507898D01*
D128*
X110442Y350800D02*
X110442Y249200D01*
X149558Y249200D02*
X149558Y350800D01*
X149558Y249200D02*
X110442Y249200D01*
X123650Y350800D02*
X123652Y350642D01*
X123658Y350483D01*
X123668Y350325D01*
X123682Y350168D01*
X123699Y350010D01*
X123721Y349854D01*
X123746Y349697D01*
X123776Y349542D01*
X123809Y349387D01*
X123846Y349233D01*
X123887Y349080D01*
X123932Y348928D01*
X123981Y348778D01*
X124033Y348628D01*
X124089Y348480D01*
X124149Y348333D01*
X124212Y348188D01*
X124279Y348045D01*
X124349Y347903D01*
X124423Y347763D01*
X124501Y347625D01*
X124582Y347489D01*
X124666Y347355D01*
X124753Y347223D01*
X124844Y347093D01*
X124938Y346966D01*
X125035Y346841D01*
X125136Y346718D01*
X125239Y346598D01*
X125345Y346481D01*
X125454Y346366D01*
X125566Y346254D01*
X125681Y346145D01*
X125798Y346039D01*
X125918Y345936D01*
X126041Y345835D01*
X126166Y345738D01*
X126293Y345644D01*
X126423Y345553D01*
X126555Y345466D01*
X126689Y345382D01*
X126825Y345301D01*
X126963Y345223D01*
X127103Y345149D01*
X127245Y345079D01*
X127388Y345012D01*
X127533Y344949D01*
X127680Y344889D01*
X127828Y344833D01*
X127978Y344781D01*
X128128Y344732D01*
X128280Y344687D01*
X128433Y344646D01*
X128587Y344609D01*
X128742Y344576D01*
X128897Y344546D01*
X129054Y344521D01*
X129210Y344499D01*
X129368Y344482D01*
X129525Y344468D01*
X129683Y344458D01*
X129842Y344452D01*
X130000Y344450D01*
X130158Y344452D01*
X130317Y344458D01*
X130475Y344468D01*
X130632Y344482D01*
X130790Y344499D01*
X130946Y344521D01*
X131103Y344546D01*
X131258Y344576D01*
X131413Y344609D01*
X131567Y344646D01*
X131720Y344687D01*
X131872Y344732D01*
X132022Y344781D01*
X132172Y344833D01*
X132320Y344889D01*
X132467Y344949D01*
X132612Y345012D01*
X132755Y345079D01*
X132897Y345149D01*
X133037Y345223D01*
X133175Y345301D01*
X133311Y345382D01*
X133445Y345466D01*
X133577Y345553D01*
X133707Y345644D01*
X133834Y345738D01*
X133959Y345835D01*
X134082Y345936D01*
X134202Y346039D01*
X134319Y346145D01*
X134434Y346254D01*
X134546Y346366D01*
X134655Y346481D01*
X134761Y346598D01*
X134864Y346718D01*
X134965Y346841D01*
X135062Y346966D01*
X135156Y347093D01*
X135247Y347223D01*
X135334Y347355D01*
X135418Y347489D01*
X135499Y347625D01*
X135577Y347763D01*
X135651Y347903D01*
X135721Y348045D01*
X135788Y348188D01*
X135851Y348333D01*
X135911Y348480D01*
X135967Y348628D01*
X136019Y348778D01*
X136068Y348928D01*
X136113Y349080D01*
X136154Y349233D01*
X136191Y349387D01*
X136224Y349542D01*
X136254Y349697D01*
X136279Y349854D01*
X136301Y350010D01*
X136318Y350168D01*
X136332Y350325D01*
X136342Y350483D01*
X136348Y350642D01*
X136350Y350800D01*
D129*
X146002Y350800D02*
X146002Y249200D01*
D128*
X149558Y350800D02*
X136350Y350800D01*
X123650Y350800D02*
X110442Y350800D01*
D130*
X148451Y360443D02*
X148453Y360343D01*
X148459Y360243D01*
X148469Y360144D01*
X148482Y360045D01*
X148500Y359946D01*
X148521Y359849D01*
X148547Y359752D01*
X148576Y359656D01*
X148608Y359562D01*
X148645Y359469D01*
X148685Y359377D01*
X148728Y359287D01*
X148776Y359199D01*
X148826Y359113D01*
X148880Y359029D01*
X148937Y358946D01*
X148998Y358867D01*
X149061Y358790D01*
X149127Y358715D01*
X149197Y358643D01*
X149269Y358573D01*
X149344Y358507D01*
X149421Y358444D01*
X149500Y358383D01*
X149583Y358326D01*
X149667Y358272D01*
X149753Y358222D01*
X149841Y358174D01*
X149931Y358131D01*
X150023Y358091D01*
X150116Y358054D01*
X150210Y358022D01*
X150306Y357993D01*
X150403Y357967D01*
X150500Y357946D01*
X150599Y357928D01*
X150698Y357915D01*
X150797Y357905D01*
X150897Y357899D01*
X150997Y357897D01*
X150997Y357898D02*
X151139Y357900D01*
X151280Y357905D01*
X151421Y357915D01*
X151562Y357928D01*
X151703Y357944D01*
X151843Y357965D01*
X151982Y357989D01*
X152121Y358017D01*
X152259Y358048D01*
X152396Y358083D01*
X152532Y358122D01*
X152667Y358164D01*
X152801Y358210D01*
X152934Y358259D01*
X153065Y358312D01*
X153195Y358368D01*
X153323Y358427D01*
X153450Y358490D01*
X153575Y358556D01*
X153698Y358626D01*
X153820Y358699D01*
X153939Y358774D01*
X154057Y358853D01*
X154172Y358936D01*
X154285Y359021D01*
X154396Y359109D01*
X154504Y359199D01*
X154611Y359293D01*
X154714Y359390D01*
X154815Y359489D01*
X154497Y366807D02*
X154495Y366907D01*
X154489Y367007D01*
X154479Y367106D01*
X154466Y367205D01*
X154448Y367304D01*
X154427Y367401D01*
X154401Y367498D01*
X154372Y367594D01*
X154340Y367688D01*
X154303Y367781D01*
X154263Y367873D01*
X154220Y367963D01*
X154172Y368051D01*
X154122Y368137D01*
X154068Y368221D01*
X154011Y368304D01*
X153950Y368383D01*
X153887Y368460D01*
X153821Y368535D01*
X153751Y368607D01*
X153679Y368677D01*
X153604Y368743D01*
X153527Y368806D01*
X153448Y368867D01*
X153365Y368924D01*
X153281Y368978D01*
X153195Y369028D01*
X153107Y369076D01*
X153017Y369119D01*
X152925Y369159D01*
X152832Y369196D01*
X152738Y369228D01*
X152642Y369257D01*
X152545Y369283D01*
X152448Y369304D01*
X152349Y369322D01*
X152250Y369335D01*
X152151Y369345D01*
X152051Y369351D01*
X151951Y369353D01*
X151817Y369351D01*
X151684Y369346D01*
X151551Y369336D01*
X151418Y369323D01*
X151285Y369306D01*
X151154Y369286D01*
X151022Y369262D01*
X150892Y369234D01*
X150762Y369202D01*
X150633Y369167D01*
X150505Y369129D01*
X150378Y369087D01*
X150253Y369041D01*
X150129Y368992D01*
X150006Y368939D01*
X149885Y368883D01*
X149765Y368823D01*
X149648Y368760D01*
X149532Y368694D01*
X149417Y368625D01*
X149305Y368553D01*
X149195Y368477D01*
X149087Y368398D01*
X153224Y364580D02*
X153309Y364632D01*
X153392Y364687D01*
X153472Y364746D01*
X153550Y364807D01*
X153626Y364872D01*
X153699Y364939D01*
X153769Y365009D01*
X153837Y365082D01*
X153902Y365157D01*
X153964Y365235D01*
X154023Y365315D01*
X154079Y365397D01*
X154131Y365482D01*
X154181Y365568D01*
X154227Y365656D01*
X154269Y365746D01*
X154308Y365837D01*
X154344Y365930D01*
X154376Y366024D01*
X154404Y366120D01*
X154428Y366216D01*
X154449Y366313D01*
X154466Y366411D01*
X154480Y366509D01*
X154489Y366608D01*
X154495Y366708D01*
X154497Y366807D01*
X149725Y362670D02*
X149640Y362618D01*
X149557Y362563D01*
X149477Y362504D01*
X149399Y362443D01*
X149323Y362378D01*
X149250Y362311D01*
X149180Y362241D01*
X149112Y362168D01*
X149047Y362093D01*
X148985Y362015D01*
X148926Y361935D01*
X148870Y361853D01*
X148818Y361768D01*
X148768Y361682D01*
X148722Y361594D01*
X148680Y361504D01*
X148641Y361413D01*
X148605Y361320D01*
X148573Y361226D01*
X148545Y361130D01*
X148521Y361034D01*
X148500Y360937D01*
X148483Y360839D01*
X148469Y360741D01*
X148460Y360642D01*
X148454Y360542D01*
X148452Y360443D01*
X149724Y362671D02*
X153224Y364580D01*
X143280Y369353D02*
X143280Y357898D01*
X143280Y369353D02*
X140098Y369353D01*
X139987Y369351D01*
X139876Y369345D01*
X139765Y369336D01*
X139655Y369322D01*
X139545Y369305D01*
X139436Y369283D01*
X139328Y369258D01*
X139221Y369230D01*
X139115Y369197D01*
X139010Y369161D01*
X138906Y369121D01*
X138804Y369078D01*
X138703Y369031D01*
X138604Y368981D01*
X138507Y368927D01*
X138412Y368869D01*
X138319Y368809D01*
X138228Y368745D01*
X138139Y368678D01*
X138053Y368609D01*
X137969Y368536D01*
X137888Y368460D01*
X137809Y368381D01*
X137733Y368300D01*
X137660Y368216D01*
X137591Y368130D01*
X137524Y368041D01*
X137460Y367950D01*
X137400Y367857D01*
X137342Y367762D01*
X137288Y367665D01*
X137238Y367566D01*
X137191Y367465D01*
X137148Y367363D01*
X137108Y367259D01*
X137072Y367154D01*
X137039Y367048D01*
X137011Y366941D01*
X136986Y366833D01*
X136964Y366724D01*
X136947Y366614D01*
X136933Y366504D01*
X136924Y366393D01*
X136918Y366282D01*
X136916Y366171D01*
X136918Y366060D01*
X136924Y365949D01*
X136933Y365838D01*
X136947Y365728D01*
X136964Y365618D01*
X136986Y365509D01*
X137011Y365401D01*
X137039Y365294D01*
X137072Y365188D01*
X137108Y365083D01*
X137148Y364979D01*
X137191Y364877D01*
X137238Y364776D01*
X137288Y364677D01*
X137342Y364580D01*
X137400Y364485D01*
X137460Y364392D01*
X137524Y364301D01*
X137591Y364212D01*
X137660Y364126D01*
X137733Y364042D01*
X137809Y363961D01*
X137888Y363882D01*
X137969Y363806D01*
X138053Y363733D01*
X138139Y363664D01*
X138228Y363597D01*
X138319Y363533D01*
X138412Y363473D01*
X138507Y363415D01*
X138604Y363361D01*
X138703Y363311D01*
X138804Y363264D01*
X138906Y363221D01*
X139010Y363181D01*
X139115Y363145D01*
X139221Y363112D01*
X139328Y363084D01*
X139436Y363059D01*
X139545Y363037D01*
X139655Y363020D01*
X139765Y363006D01*
X139876Y362997D01*
X139987Y362991D01*
X140098Y362989D01*
X143280Y362989D01*
X139461Y362989D02*
X136916Y357898D01*
X131910Y357898D02*
X128728Y357898D01*
X128617Y357900D01*
X128506Y357906D01*
X128395Y357915D01*
X128285Y357929D01*
X128175Y357946D01*
X128066Y357968D01*
X127958Y357993D01*
X127851Y358021D01*
X127745Y358054D01*
X127640Y358090D01*
X127536Y358130D01*
X127434Y358173D01*
X127333Y358220D01*
X127234Y358270D01*
X127137Y358324D01*
X127042Y358382D01*
X126949Y358442D01*
X126858Y358506D01*
X126769Y358573D01*
X126683Y358642D01*
X126599Y358715D01*
X126518Y358791D01*
X126439Y358870D01*
X126363Y358951D01*
X126290Y359035D01*
X126221Y359121D01*
X126154Y359210D01*
X126090Y359301D01*
X126030Y359394D01*
X125972Y359489D01*
X125918Y359586D01*
X125868Y359685D01*
X125821Y359786D01*
X125778Y359888D01*
X125738Y359992D01*
X125702Y360097D01*
X125669Y360203D01*
X125641Y360310D01*
X125616Y360418D01*
X125594Y360527D01*
X125577Y360637D01*
X125563Y360747D01*
X125554Y360858D01*
X125548Y360969D01*
X125546Y361080D01*
X125548Y361191D01*
X125554Y361302D01*
X125563Y361413D01*
X125577Y361523D01*
X125594Y361633D01*
X125616Y361742D01*
X125641Y361850D01*
X125669Y361957D01*
X125702Y362063D01*
X125738Y362168D01*
X125778Y362272D01*
X125821Y362374D01*
X125868Y362475D01*
X125918Y362574D01*
X125972Y362671D01*
X126030Y362766D01*
X126090Y362859D01*
X126154Y362950D01*
X126221Y363039D01*
X126290Y363125D01*
X126363Y363209D01*
X126439Y363290D01*
X126518Y363369D01*
X126599Y363445D01*
X126683Y363518D01*
X126769Y363587D01*
X126858Y363654D01*
X126949Y363718D01*
X127042Y363778D01*
X127137Y363836D01*
X127234Y363890D01*
X127333Y363940D01*
X127434Y363987D01*
X127536Y364030D01*
X127640Y364070D01*
X127745Y364106D01*
X127851Y364139D01*
X127958Y364167D01*
X128066Y364192D01*
X128175Y364214D01*
X128285Y364231D01*
X128395Y364245D01*
X128506Y364254D01*
X128617Y364260D01*
X128728Y364262D01*
X128092Y369353D02*
X131910Y369353D01*
X128092Y369353D02*
X127992Y369351D01*
X127892Y369345D01*
X127793Y369335D01*
X127694Y369322D01*
X127595Y369304D01*
X127498Y369283D01*
X127401Y369257D01*
X127305Y369228D01*
X127211Y369196D01*
X127118Y369159D01*
X127026Y369119D01*
X126936Y369076D01*
X126848Y369028D01*
X126762Y368978D01*
X126678Y368924D01*
X126595Y368867D01*
X126516Y368806D01*
X126439Y368743D01*
X126364Y368677D01*
X126292Y368607D01*
X126222Y368535D01*
X126156Y368460D01*
X126093Y368383D01*
X126032Y368304D01*
X125975Y368221D01*
X125921Y368137D01*
X125871Y368051D01*
X125823Y367963D01*
X125780Y367873D01*
X125740Y367781D01*
X125703Y367688D01*
X125671Y367594D01*
X125642Y367498D01*
X125616Y367401D01*
X125595Y367304D01*
X125577Y367205D01*
X125564Y367106D01*
X125554Y367007D01*
X125548Y366907D01*
X125546Y366807D01*
X125548Y366707D01*
X125554Y366607D01*
X125564Y366508D01*
X125577Y366409D01*
X125595Y366310D01*
X125616Y366213D01*
X125642Y366116D01*
X125671Y366020D01*
X125703Y365926D01*
X125740Y365833D01*
X125780Y365741D01*
X125823Y365651D01*
X125871Y365563D01*
X125921Y365477D01*
X125975Y365393D01*
X126032Y365310D01*
X126093Y365231D01*
X126156Y365154D01*
X126222Y365079D01*
X126292Y365007D01*
X126364Y364937D01*
X126439Y364871D01*
X126516Y364808D01*
X126595Y364747D01*
X126678Y364690D01*
X126762Y364636D01*
X126848Y364586D01*
X126936Y364538D01*
X127026Y364495D01*
X127118Y364455D01*
X127211Y364418D01*
X127305Y364386D01*
X127401Y364357D01*
X127498Y364331D01*
X127595Y364310D01*
X127694Y364292D01*
X127793Y364279D01*
X127892Y364269D01*
X127992Y364263D01*
X128092Y364261D01*
X128092Y364262D02*
X130637Y364262D01*
D128*
X110442Y200800D02*
X110442Y99200D01*
X149558Y99200D02*
X149558Y200800D01*
X149558Y99200D02*
X110442Y99200D01*
X123650Y200800D02*
X123652Y200642D01*
X123658Y200483D01*
X123668Y200325D01*
X123682Y200168D01*
X123699Y200010D01*
X123721Y199854D01*
X123746Y199697D01*
X123776Y199542D01*
X123809Y199387D01*
X123846Y199233D01*
X123887Y199080D01*
X123932Y198928D01*
X123981Y198778D01*
X124033Y198628D01*
X124089Y198480D01*
X124149Y198333D01*
X124212Y198188D01*
X124279Y198045D01*
X124349Y197903D01*
X124423Y197763D01*
X124501Y197625D01*
X124582Y197489D01*
X124666Y197355D01*
X124753Y197223D01*
X124844Y197093D01*
X124938Y196966D01*
X125035Y196841D01*
X125136Y196718D01*
X125239Y196598D01*
X125345Y196481D01*
X125454Y196366D01*
X125566Y196254D01*
X125681Y196145D01*
X125798Y196039D01*
X125918Y195936D01*
X126041Y195835D01*
X126166Y195738D01*
X126293Y195644D01*
X126423Y195553D01*
X126555Y195466D01*
X126689Y195382D01*
X126825Y195301D01*
X126963Y195223D01*
X127103Y195149D01*
X127245Y195079D01*
X127388Y195012D01*
X127533Y194949D01*
X127680Y194889D01*
X127828Y194833D01*
X127978Y194781D01*
X128128Y194732D01*
X128280Y194687D01*
X128433Y194646D01*
X128587Y194609D01*
X128742Y194576D01*
X128897Y194546D01*
X129054Y194521D01*
X129210Y194499D01*
X129368Y194482D01*
X129525Y194468D01*
X129683Y194458D01*
X129842Y194452D01*
X130000Y194450D01*
X130158Y194452D01*
X130317Y194458D01*
X130475Y194468D01*
X130632Y194482D01*
X130790Y194499D01*
X130946Y194521D01*
X131103Y194546D01*
X131258Y194576D01*
X131413Y194609D01*
X131567Y194646D01*
X131720Y194687D01*
X131872Y194732D01*
X132022Y194781D01*
X132172Y194833D01*
X132320Y194889D01*
X132467Y194949D01*
X132612Y195012D01*
X132755Y195079D01*
X132897Y195149D01*
X133037Y195223D01*
X133175Y195301D01*
X133311Y195382D01*
X133445Y195466D01*
X133577Y195553D01*
X133707Y195644D01*
X133834Y195738D01*
X133959Y195835D01*
X134082Y195936D01*
X134202Y196039D01*
X134319Y196145D01*
X134434Y196254D01*
X134546Y196366D01*
X134655Y196481D01*
X134761Y196598D01*
X134864Y196718D01*
X134965Y196841D01*
X135062Y196966D01*
X135156Y197093D01*
X135247Y197223D01*
X135334Y197355D01*
X135418Y197489D01*
X135499Y197625D01*
X135577Y197763D01*
X135651Y197903D01*
X135721Y198045D01*
X135788Y198188D01*
X135851Y198333D01*
X135911Y198480D01*
X135967Y198628D01*
X136019Y198778D01*
X136068Y198928D01*
X136113Y199080D01*
X136154Y199233D01*
X136191Y199387D01*
X136224Y199542D01*
X136254Y199697D01*
X136279Y199854D01*
X136301Y200010D01*
X136318Y200168D01*
X136332Y200325D01*
X136342Y200483D01*
X136348Y200642D01*
X136350Y200800D01*
D129*
X146002Y200800D02*
X146002Y99200D01*
D128*
X149558Y200800D02*
X136350Y200800D01*
X123650Y200800D02*
X110442Y200800D01*
D130*
X148451Y210443D02*
X148453Y210343D01*
X148459Y210243D01*
X148469Y210144D01*
X148482Y210045D01*
X148500Y209946D01*
X148521Y209849D01*
X148547Y209752D01*
X148576Y209656D01*
X148608Y209562D01*
X148645Y209469D01*
X148685Y209377D01*
X148728Y209287D01*
X148776Y209199D01*
X148826Y209113D01*
X148880Y209029D01*
X148937Y208946D01*
X148998Y208867D01*
X149061Y208790D01*
X149127Y208715D01*
X149197Y208643D01*
X149269Y208573D01*
X149344Y208507D01*
X149421Y208444D01*
X149500Y208383D01*
X149583Y208326D01*
X149667Y208272D01*
X149753Y208222D01*
X149841Y208174D01*
X149931Y208131D01*
X150023Y208091D01*
X150116Y208054D01*
X150210Y208022D01*
X150306Y207993D01*
X150403Y207967D01*
X150500Y207946D01*
X150599Y207928D01*
X150698Y207915D01*
X150797Y207905D01*
X150897Y207899D01*
X150997Y207897D01*
X150997Y207898D02*
X151139Y207900D01*
X151280Y207905D01*
X151421Y207915D01*
X151562Y207928D01*
X151703Y207944D01*
X151843Y207965D01*
X151982Y207989D01*
X152121Y208017D01*
X152259Y208048D01*
X152396Y208083D01*
X152532Y208122D01*
X152667Y208164D01*
X152801Y208210D01*
X152934Y208259D01*
X153065Y208312D01*
X153195Y208368D01*
X153323Y208427D01*
X153450Y208490D01*
X153575Y208556D01*
X153698Y208626D01*
X153820Y208699D01*
X153939Y208774D01*
X154057Y208853D01*
X154172Y208936D01*
X154285Y209021D01*
X154396Y209109D01*
X154504Y209199D01*
X154611Y209293D01*
X154714Y209390D01*
X154815Y209489D01*
X154497Y216807D02*
X154495Y216907D01*
X154489Y217007D01*
X154479Y217106D01*
X154466Y217205D01*
X154448Y217304D01*
X154427Y217401D01*
X154401Y217498D01*
X154372Y217594D01*
X154340Y217688D01*
X154303Y217781D01*
X154263Y217873D01*
X154220Y217963D01*
X154172Y218051D01*
X154122Y218137D01*
X154068Y218221D01*
X154011Y218304D01*
X153950Y218383D01*
X153887Y218460D01*
X153821Y218535D01*
X153751Y218607D01*
X153679Y218677D01*
X153604Y218743D01*
X153527Y218806D01*
X153448Y218867D01*
X153365Y218924D01*
X153281Y218978D01*
X153195Y219028D01*
X153107Y219076D01*
X153017Y219119D01*
X152925Y219159D01*
X152832Y219196D01*
X152738Y219228D01*
X152642Y219257D01*
X152545Y219283D01*
X152448Y219304D01*
X152349Y219322D01*
X152250Y219335D01*
X152151Y219345D01*
X152051Y219351D01*
X151951Y219353D01*
X151817Y219351D01*
X151684Y219346D01*
X151551Y219336D01*
X151418Y219323D01*
X151285Y219306D01*
X151154Y219286D01*
X151022Y219262D01*
X150892Y219234D01*
X150762Y219202D01*
X150633Y219167D01*
X150505Y219129D01*
X150378Y219087D01*
X150253Y219041D01*
X150129Y218992D01*
X150006Y218939D01*
X149885Y218883D01*
X149765Y218823D01*
X149648Y218760D01*
X149532Y218694D01*
X149417Y218625D01*
X149305Y218553D01*
X149195Y218477D01*
X149087Y218398D01*
X153224Y214580D02*
X153309Y214632D01*
X153392Y214687D01*
X153472Y214746D01*
X153550Y214807D01*
X153626Y214872D01*
X153699Y214939D01*
X153769Y215009D01*
X153837Y215082D01*
X153902Y215157D01*
X153964Y215235D01*
X154023Y215315D01*
X154079Y215397D01*
X154131Y215482D01*
X154181Y215568D01*
X154227Y215656D01*
X154269Y215746D01*
X154308Y215837D01*
X154344Y215930D01*
X154376Y216024D01*
X154404Y216120D01*
X154428Y216216D01*
X154449Y216313D01*
X154466Y216411D01*
X154480Y216509D01*
X154489Y216608D01*
X154495Y216708D01*
X154497Y216807D01*
X149725Y212670D02*
X149640Y212618D01*
X149557Y212563D01*
X149477Y212504D01*
X149399Y212443D01*
X149323Y212378D01*
X149250Y212311D01*
X149180Y212241D01*
X149112Y212168D01*
X149047Y212093D01*
X148985Y212015D01*
X148926Y211935D01*
X148870Y211853D01*
X148818Y211768D01*
X148768Y211682D01*
X148722Y211594D01*
X148680Y211504D01*
X148641Y211413D01*
X148605Y211320D01*
X148573Y211226D01*
X148545Y211130D01*
X148521Y211034D01*
X148500Y210937D01*
X148483Y210839D01*
X148469Y210741D01*
X148460Y210642D01*
X148454Y210542D01*
X148452Y210443D01*
X149724Y212671D02*
X153224Y214580D01*
X143280Y219353D02*
X143280Y207898D01*
X143280Y219353D02*
X140098Y219353D01*
X139987Y219351D01*
X139876Y219345D01*
X139765Y219336D01*
X139655Y219322D01*
X139545Y219305D01*
X139436Y219283D01*
X139328Y219258D01*
X139221Y219230D01*
X139115Y219197D01*
X139010Y219161D01*
X138906Y219121D01*
X138804Y219078D01*
X138703Y219031D01*
X138604Y218981D01*
X138507Y218927D01*
X138412Y218869D01*
X138319Y218809D01*
X138228Y218745D01*
X138139Y218678D01*
X138053Y218609D01*
X137969Y218536D01*
X137888Y218460D01*
X137809Y218381D01*
X137733Y218300D01*
X137660Y218216D01*
X137591Y218130D01*
X137524Y218041D01*
X137460Y217950D01*
X137400Y217857D01*
X137342Y217762D01*
X137288Y217665D01*
X137238Y217566D01*
X137191Y217465D01*
X137148Y217363D01*
X137108Y217259D01*
X137072Y217154D01*
X137039Y217048D01*
X137011Y216941D01*
X136986Y216833D01*
X136964Y216724D01*
X136947Y216614D01*
X136933Y216504D01*
X136924Y216393D01*
X136918Y216282D01*
X136916Y216171D01*
X136918Y216060D01*
X136924Y215949D01*
X136933Y215838D01*
X136947Y215728D01*
X136964Y215618D01*
X136986Y215509D01*
X137011Y215401D01*
X137039Y215294D01*
X137072Y215188D01*
X137108Y215083D01*
X137148Y214979D01*
X137191Y214877D01*
X137238Y214776D01*
X137288Y214677D01*
X137342Y214580D01*
X137400Y214485D01*
X137460Y214392D01*
X137524Y214301D01*
X137591Y214212D01*
X137660Y214126D01*
X137733Y214042D01*
X137809Y213961D01*
X137888Y213882D01*
X137969Y213806D01*
X138053Y213733D01*
X138139Y213664D01*
X138228Y213597D01*
X138319Y213533D01*
X138412Y213473D01*
X138507Y213415D01*
X138604Y213361D01*
X138703Y213311D01*
X138804Y213264D01*
X138906Y213221D01*
X139010Y213181D01*
X139115Y213145D01*
X139221Y213112D01*
X139328Y213084D01*
X139436Y213059D01*
X139545Y213037D01*
X139655Y213020D01*
X139765Y213006D01*
X139876Y212997D01*
X139987Y212991D01*
X140098Y212989D01*
X143280Y212989D01*
X139461Y212989D02*
X136916Y207898D01*
X131910Y210443D02*
X129365Y219353D01*
X131910Y210443D02*
X125546Y210443D01*
X127455Y207898D02*
X127455Y212989D01*
D128*
X400442Y549200D02*
X400442Y650800D01*
X439558Y650800D02*
X439558Y549200D01*
X400442Y549200D01*
X413650Y650800D02*
X413652Y650642D01*
X413658Y650483D01*
X413668Y650325D01*
X413682Y650168D01*
X413699Y650010D01*
X413721Y649854D01*
X413746Y649697D01*
X413776Y649542D01*
X413809Y649387D01*
X413846Y649233D01*
X413887Y649080D01*
X413932Y648928D01*
X413981Y648778D01*
X414033Y648628D01*
X414089Y648480D01*
X414149Y648333D01*
X414212Y648188D01*
X414279Y648045D01*
X414349Y647903D01*
X414423Y647763D01*
X414501Y647625D01*
X414582Y647489D01*
X414666Y647355D01*
X414753Y647223D01*
X414844Y647093D01*
X414938Y646966D01*
X415035Y646841D01*
X415136Y646718D01*
X415239Y646598D01*
X415345Y646481D01*
X415454Y646366D01*
X415566Y646254D01*
X415681Y646145D01*
X415798Y646039D01*
X415918Y645936D01*
X416041Y645835D01*
X416166Y645738D01*
X416293Y645644D01*
X416423Y645553D01*
X416555Y645466D01*
X416689Y645382D01*
X416825Y645301D01*
X416963Y645223D01*
X417103Y645149D01*
X417245Y645079D01*
X417388Y645012D01*
X417533Y644949D01*
X417680Y644889D01*
X417828Y644833D01*
X417978Y644781D01*
X418128Y644732D01*
X418280Y644687D01*
X418433Y644646D01*
X418587Y644609D01*
X418742Y644576D01*
X418897Y644546D01*
X419054Y644521D01*
X419210Y644499D01*
X419368Y644482D01*
X419525Y644468D01*
X419683Y644458D01*
X419842Y644452D01*
X420000Y644450D01*
X420158Y644452D01*
X420317Y644458D01*
X420475Y644468D01*
X420632Y644482D01*
X420790Y644499D01*
X420946Y644521D01*
X421103Y644546D01*
X421258Y644576D01*
X421413Y644609D01*
X421567Y644646D01*
X421720Y644687D01*
X421872Y644732D01*
X422022Y644781D01*
X422172Y644833D01*
X422320Y644889D01*
X422467Y644949D01*
X422612Y645012D01*
X422755Y645079D01*
X422897Y645149D01*
X423037Y645223D01*
X423175Y645301D01*
X423311Y645382D01*
X423445Y645466D01*
X423577Y645553D01*
X423707Y645644D01*
X423834Y645738D01*
X423959Y645835D01*
X424082Y645936D01*
X424202Y646039D01*
X424319Y646145D01*
X424434Y646254D01*
X424546Y646366D01*
X424655Y646481D01*
X424761Y646598D01*
X424864Y646718D01*
X424965Y646841D01*
X425062Y646966D01*
X425156Y647093D01*
X425247Y647223D01*
X425334Y647355D01*
X425418Y647489D01*
X425499Y647625D01*
X425577Y647763D01*
X425651Y647903D01*
X425721Y648045D01*
X425788Y648188D01*
X425851Y648333D01*
X425911Y648480D01*
X425967Y648628D01*
X426019Y648778D01*
X426068Y648928D01*
X426113Y649080D01*
X426154Y649233D01*
X426191Y649387D01*
X426224Y649542D01*
X426254Y649697D01*
X426279Y649854D01*
X426301Y650010D01*
X426318Y650168D01*
X426332Y650325D01*
X426342Y650483D01*
X426348Y650642D01*
X426350Y650800D01*
D129*
X436002Y650800D02*
X436002Y549200D01*
D128*
X439558Y650800D02*
X426350Y650800D01*
X413650Y650800D02*
X400442Y650800D01*
D130*
X438451Y660443D02*
X438453Y660343D01*
X438459Y660243D01*
X438469Y660144D01*
X438482Y660045D01*
X438500Y659946D01*
X438521Y659849D01*
X438547Y659752D01*
X438576Y659656D01*
X438608Y659562D01*
X438645Y659469D01*
X438685Y659377D01*
X438728Y659287D01*
X438776Y659199D01*
X438826Y659113D01*
X438880Y659029D01*
X438937Y658946D01*
X438998Y658867D01*
X439061Y658790D01*
X439127Y658715D01*
X439197Y658643D01*
X439269Y658573D01*
X439344Y658507D01*
X439421Y658444D01*
X439500Y658383D01*
X439583Y658326D01*
X439667Y658272D01*
X439753Y658222D01*
X439841Y658174D01*
X439931Y658131D01*
X440023Y658091D01*
X440116Y658054D01*
X440210Y658022D01*
X440306Y657993D01*
X440403Y657967D01*
X440500Y657946D01*
X440599Y657928D01*
X440698Y657915D01*
X440797Y657905D01*
X440897Y657899D01*
X440997Y657897D01*
X440997Y657898D02*
X441139Y657900D01*
X441280Y657905D01*
X441421Y657915D01*
X441562Y657928D01*
X441703Y657944D01*
X441843Y657965D01*
X441982Y657989D01*
X442121Y658017D01*
X442259Y658048D01*
X442396Y658083D01*
X442532Y658122D01*
X442667Y658164D01*
X442801Y658210D01*
X442934Y658259D01*
X443065Y658312D01*
X443195Y658368D01*
X443323Y658427D01*
X443450Y658490D01*
X443575Y658556D01*
X443698Y658626D01*
X443820Y658699D01*
X443939Y658774D01*
X444057Y658853D01*
X444172Y658936D01*
X444285Y659021D01*
X444396Y659109D01*
X444504Y659199D01*
X444611Y659293D01*
X444714Y659390D01*
X444815Y659489D01*
X444497Y666807D02*
X444495Y666907D01*
X444489Y667007D01*
X444479Y667106D01*
X444466Y667205D01*
X444448Y667304D01*
X444427Y667401D01*
X444401Y667498D01*
X444372Y667594D01*
X444340Y667688D01*
X444303Y667781D01*
X444263Y667873D01*
X444220Y667963D01*
X444172Y668051D01*
X444122Y668137D01*
X444068Y668221D01*
X444011Y668304D01*
X443950Y668383D01*
X443887Y668460D01*
X443821Y668535D01*
X443751Y668607D01*
X443679Y668677D01*
X443604Y668743D01*
X443527Y668806D01*
X443448Y668867D01*
X443365Y668924D01*
X443281Y668978D01*
X443195Y669028D01*
X443107Y669076D01*
X443017Y669119D01*
X442925Y669159D01*
X442832Y669196D01*
X442738Y669228D01*
X442642Y669257D01*
X442545Y669283D01*
X442448Y669304D01*
X442349Y669322D01*
X442250Y669335D01*
X442151Y669345D01*
X442051Y669351D01*
X441951Y669353D01*
X441817Y669351D01*
X441684Y669346D01*
X441551Y669336D01*
X441418Y669323D01*
X441285Y669306D01*
X441154Y669286D01*
X441022Y669262D01*
X440892Y669234D01*
X440762Y669202D01*
X440633Y669167D01*
X440505Y669129D01*
X440378Y669087D01*
X440253Y669041D01*
X440129Y668992D01*
X440006Y668939D01*
X439885Y668883D01*
X439765Y668823D01*
X439648Y668760D01*
X439532Y668694D01*
X439417Y668625D01*
X439305Y668553D01*
X439195Y668477D01*
X439087Y668398D01*
X443224Y664580D02*
X443309Y664632D01*
X443392Y664687D01*
X443472Y664746D01*
X443550Y664807D01*
X443626Y664872D01*
X443699Y664939D01*
X443769Y665009D01*
X443837Y665082D01*
X443902Y665157D01*
X443964Y665235D01*
X444023Y665315D01*
X444079Y665397D01*
X444131Y665482D01*
X444181Y665568D01*
X444227Y665656D01*
X444269Y665746D01*
X444308Y665837D01*
X444344Y665930D01*
X444376Y666024D01*
X444404Y666120D01*
X444428Y666216D01*
X444449Y666313D01*
X444466Y666411D01*
X444480Y666509D01*
X444489Y666608D01*
X444495Y666708D01*
X444497Y666807D01*
X439725Y662670D02*
X439640Y662618D01*
X439557Y662563D01*
X439477Y662504D01*
X439399Y662443D01*
X439323Y662378D01*
X439250Y662311D01*
X439180Y662241D01*
X439112Y662168D01*
X439047Y662093D01*
X438985Y662015D01*
X438926Y661935D01*
X438870Y661853D01*
X438818Y661768D01*
X438768Y661682D01*
X438722Y661594D01*
X438680Y661504D01*
X438641Y661413D01*
X438605Y661320D01*
X438573Y661226D01*
X438545Y661130D01*
X438521Y661034D01*
X438500Y660937D01*
X438483Y660839D01*
X438469Y660741D01*
X438460Y660642D01*
X438454Y660542D01*
X438452Y660443D01*
X439724Y662671D02*
X443224Y664580D01*
X433280Y669353D02*
X433280Y657898D01*
X433280Y669353D02*
X430098Y669353D01*
X429987Y669351D01*
X429876Y669345D01*
X429765Y669336D01*
X429655Y669322D01*
X429545Y669305D01*
X429436Y669283D01*
X429328Y669258D01*
X429221Y669230D01*
X429115Y669197D01*
X429010Y669161D01*
X428906Y669121D01*
X428804Y669078D01*
X428703Y669031D01*
X428604Y668981D01*
X428507Y668927D01*
X428412Y668869D01*
X428319Y668809D01*
X428228Y668745D01*
X428139Y668678D01*
X428053Y668609D01*
X427969Y668536D01*
X427888Y668460D01*
X427809Y668381D01*
X427733Y668300D01*
X427660Y668216D01*
X427591Y668130D01*
X427524Y668041D01*
X427460Y667950D01*
X427400Y667857D01*
X427342Y667762D01*
X427288Y667665D01*
X427238Y667566D01*
X427191Y667465D01*
X427148Y667363D01*
X427108Y667259D01*
X427072Y667154D01*
X427039Y667048D01*
X427011Y666941D01*
X426986Y666833D01*
X426964Y666724D01*
X426947Y666614D01*
X426933Y666504D01*
X426924Y666393D01*
X426918Y666282D01*
X426916Y666171D01*
X426918Y666060D01*
X426924Y665949D01*
X426933Y665838D01*
X426947Y665728D01*
X426964Y665618D01*
X426986Y665509D01*
X427011Y665401D01*
X427039Y665294D01*
X427072Y665188D01*
X427108Y665083D01*
X427148Y664979D01*
X427191Y664877D01*
X427238Y664776D01*
X427288Y664677D01*
X427342Y664580D01*
X427400Y664485D01*
X427460Y664392D01*
X427524Y664301D01*
X427591Y664212D01*
X427660Y664126D01*
X427733Y664042D01*
X427809Y663961D01*
X427888Y663882D01*
X427969Y663806D01*
X428053Y663733D01*
X428139Y663664D01*
X428228Y663597D01*
X428319Y663533D01*
X428412Y663473D01*
X428507Y663415D01*
X428604Y663361D01*
X428703Y663311D01*
X428804Y663264D01*
X428906Y663221D01*
X429010Y663181D01*
X429115Y663145D01*
X429221Y663112D01*
X429328Y663084D01*
X429436Y663059D01*
X429545Y663037D01*
X429655Y663020D01*
X429765Y663006D01*
X429876Y662997D01*
X429987Y662991D01*
X430098Y662989D01*
X433280Y662989D01*
X429461Y662989D02*
X426916Y657898D01*
X421910Y657898D02*
X418092Y657898D01*
X418092Y657897D02*
X417992Y657899D01*
X417892Y657905D01*
X417793Y657915D01*
X417694Y657928D01*
X417595Y657946D01*
X417498Y657967D01*
X417401Y657993D01*
X417305Y658022D01*
X417211Y658054D01*
X417118Y658091D01*
X417026Y658131D01*
X416936Y658174D01*
X416848Y658222D01*
X416762Y658272D01*
X416678Y658326D01*
X416596Y658383D01*
X416516Y658444D01*
X416439Y658507D01*
X416364Y658573D01*
X416292Y658643D01*
X416222Y658715D01*
X416156Y658789D01*
X416093Y658867D01*
X416032Y658946D01*
X415975Y659029D01*
X415921Y659113D01*
X415871Y659199D01*
X415824Y659287D01*
X415780Y659377D01*
X415740Y659469D01*
X415703Y659562D01*
X415671Y659656D01*
X415642Y659752D01*
X415616Y659849D01*
X415595Y659946D01*
X415577Y660045D01*
X415564Y660144D01*
X415554Y660243D01*
X415548Y660343D01*
X415546Y660443D01*
X415546Y661716D01*
X415548Y661816D01*
X415554Y661916D01*
X415564Y662015D01*
X415577Y662114D01*
X415595Y662213D01*
X415616Y662310D01*
X415642Y662407D01*
X415671Y662503D01*
X415703Y662597D01*
X415740Y662690D01*
X415780Y662782D01*
X415823Y662872D01*
X415871Y662960D01*
X415921Y663046D01*
X415975Y663130D01*
X416032Y663213D01*
X416093Y663292D01*
X416156Y663369D01*
X416222Y663444D01*
X416292Y663516D01*
X416364Y663586D01*
X416439Y663652D01*
X416516Y663715D01*
X416595Y663776D01*
X416678Y663833D01*
X416762Y663887D01*
X416848Y663937D01*
X416936Y663985D01*
X417026Y664028D01*
X417118Y664068D01*
X417211Y664105D01*
X417305Y664137D01*
X417401Y664166D01*
X417498Y664192D01*
X417595Y664213D01*
X417694Y664231D01*
X417793Y664244D01*
X417892Y664254D01*
X417992Y664260D01*
X418092Y664262D01*
X421910Y664262D01*
X421910Y669353D01*
X415546Y669353D01*
D128*
X400442Y500800D02*
X400442Y399200D01*
X439558Y399200D02*
X439558Y500800D01*
X439558Y399200D02*
X400442Y399200D01*
X413650Y500800D02*
X413652Y500642D01*
X413658Y500483D01*
X413668Y500325D01*
X413682Y500168D01*
X413699Y500010D01*
X413721Y499854D01*
X413746Y499697D01*
X413776Y499542D01*
X413809Y499387D01*
X413846Y499233D01*
X413887Y499080D01*
X413932Y498928D01*
X413981Y498778D01*
X414033Y498628D01*
X414089Y498480D01*
X414149Y498333D01*
X414212Y498188D01*
X414279Y498045D01*
X414349Y497903D01*
X414423Y497763D01*
X414501Y497625D01*
X414582Y497489D01*
X414666Y497355D01*
X414753Y497223D01*
X414844Y497093D01*
X414938Y496966D01*
X415035Y496841D01*
X415136Y496718D01*
X415239Y496598D01*
X415345Y496481D01*
X415454Y496366D01*
X415566Y496254D01*
X415681Y496145D01*
X415798Y496039D01*
X415918Y495936D01*
X416041Y495835D01*
X416166Y495738D01*
X416293Y495644D01*
X416423Y495553D01*
X416555Y495466D01*
X416689Y495382D01*
X416825Y495301D01*
X416963Y495223D01*
X417103Y495149D01*
X417245Y495079D01*
X417388Y495012D01*
X417533Y494949D01*
X417680Y494889D01*
X417828Y494833D01*
X417978Y494781D01*
X418128Y494732D01*
X418280Y494687D01*
X418433Y494646D01*
X418587Y494609D01*
X418742Y494576D01*
X418897Y494546D01*
X419054Y494521D01*
X419210Y494499D01*
X419368Y494482D01*
X419525Y494468D01*
X419683Y494458D01*
X419842Y494452D01*
X420000Y494450D01*
X420158Y494452D01*
X420317Y494458D01*
X420475Y494468D01*
X420632Y494482D01*
X420790Y494499D01*
X420946Y494521D01*
X421103Y494546D01*
X421258Y494576D01*
X421413Y494609D01*
X421567Y494646D01*
X421720Y494687D01*
X421872Y494732D01*
X422022Y494781D01*
X422172Y494833D01*
X422320Y494889D01*
X422467Y494949D01*
X422612Y495012D01*
X422755Y495079D01*
X422897Y495149D01*
X423037Y495223D01*
X423175Y495301D01*
X423311Y495382D01*
X423445Y495466D01*
X423577Y495553D01*
X423707Y495644D01*
X423834Y495738D01*
X423959Y495835D01*
X424082Y495936D01*
X424202Y496039D01*
X424319Y496145D01*
X424434Y496254D01*
X424546Y496366D01*
X424655Y496481D01*
X424761Y496598D01*
X424864Y496718D01*
X424965Y496841D01*
X425062Y496966D01*
X425156Y497093D01*
X425247Y497223D01*
X425334Y497355D01*
X425418Y497489D01*
X425499Y497625D01*
X425577Y497763D01*
X425651Y497903D01*
X425721Y498045D01*
X425788Y498188D01*
X425851Y498333D01*
X425911Y498480D01*
X425967Y498628D01*
X426019Y498778D01*
X426068Y498928D01*
X426113Y499080D01*
X426154Y499233D01*
X426191Y499387D01*
X426224Y499542D01*
X426254Y499697D01*
X426279Y499854D01*
X426301Y500010D01*
X426318Y500168D01*
X426332Y500325D01*
X426342Y500483D01*
X426348Y500642D01*
X426350Y500800D01*
D129*
X436002Y500800D02*
X436002Y399200D01*
D128*
X439558Y500800D02*
X426350Y500800D01*
X413650Y500800D02*
X400442Y500800D01*
D130*
X438451Y510443D02*
X438453Y510343D01*
X438459Y510243D01*
X438469Y510144D01*
X438482Y510045D01*
X438500Y509946D01*
X438521Y509849D01*
X438547Y509752D01*
X438576Y509656D01*
X438608Y509562D01*
X438645Y509469D01*
X438685Y509377D01*
X438728Y509287D01*
X438776Y509199D01*
X438826Y509113D01*
X438880Y509029D01*
X438937Y508946D01*
X438998Y508867D01*
X439061Y508790D01*
X439127Y508715D01*
X439197Y508643D01*
X439269Y508573D01*
X439344Y508507D01*
X439421Y508444D01*
X439500Y508383D01*
X439583Y508326D01*
X439667Y508272D01*
X439753Y508222D01*
X439841Y508174D01*
X439931Y508131D01*
X440023Y508091D01*
X440116Y508054D01*
X440210Y508022D01*
X440306Y507993D01*
X440403Y507967D01*
X440500Y507946D01*
X440599Y507928D01*
X440698Y507915D01*
X440797Y507905D01*
X440897Y507899D01*
X440997Y507897D01*
X440997Y507898D02*
X441139Y507900D01*
X441280Y507905D01*
X441421Y507915D01*
X441562Y507928D01*
X441703Y507944D01*
X441843Y507965D01*
X441982Y507989D01*
X442121Y508017D01*
X442259Y508048D01*
X442396Y508083D01*
X442532Y508122D01*
X442667Y508164D01*
X442801Y508210D01*
X442934Y508259D01*
X443065Y508312D01*
X443195Y508368D01*
X443323Y508427D01*
X443450Y508490D01*
X443575Y508556D01*
X443698Y508626D01*
X443820Y508699D01*
X443939Y508774D01*
X444057Y508853D01*
X444172Y508936D01*
X444285Y509021D01*
X444396Y509109D01*
X444504Y509199D01*
X444611Y509293D01*
X444714Y509390D01*
X444815Y509489D01*
X444497Y516807D02*
X444495Y516907D01*
X444489Y517007D01*
X444479Y517106D01*
X444466Y517205D01*
X444448Y517304D01*
X444427Y517401D01*
X444401Y517498D01*
X444372Y517594D01*
X444340Y517688D01*
X444303Y517781D01*
X444263Y517873D01*
X444220Y517963D01*
X444172Y518051D01*
X444122Y518137D01*
X444068Y518221D01*
X444011Y518304D01*
X443950Y518383D01*
X443887Y518460D01*
X443821Y518535D01*
X443751Y518607D01*
X443679Y518677D01*
X443604Y518743D01*
X443527Y518806D01*
X443448Y518867D01*
X443365Y518924D01*
X443281Y518978D01*
X443195Y519028D01*
X443107Y519076D01*
X443017Y519119D01*
X442925Y519159D01*
X442832Y519196D01*
X442738Y519228D01*
X442642Y519257D01*
X442545Y519283D01*
X442448Y519304D01*
X442349Y519322D01*
X442250Y519335D01*
X442151Y519345D01*
X442051Y519351D01*
X441951Y519353D01*
X441817Y519351D01*
X441684Y519346D01*
X441551Y519336D01*
X441418Y519323D01*
X441285Y519306D01*
X441154Y519286D01*
X441022Y519262D01*
X440892Y519234D01*
X440762Y519202D01*
X440633Y519167D01*
X440505Y519129D01*
X440378Y519087D01*
X440253Y519041D01*
X440129Y518992D01*
X440006Y518939D01*
X439885Y518883D01*
X439765Y518823D01*
X439648Y518760D01*
X439532Y518694D01*
X439417Y518625D01*
X439305Y518553D01*
X439195Y518477D01*
X439087Y518398D01*
X443224Y514580D02*
X443309Y514632D01*
X443392Y514687D01*
X443472Y514746D01*
X443550Y514807D01*
X443626Y514872D01*
X443699Y514939D01*
X443769Y515009D01*
X443837Y515082D01*
X443902Y515157D01*
X443964Y515235D01*
X444023Y515315D01*
X444079Y515397D01*
X444131Y515482D01*
X444181Y515568D01*
X444227Y515656D01*
X444269Y515746D01*
X444308Y515837D01*
X444344Y515930D01*
X444376Y516024D01*
X444404Y516120D01*
X444428Y516216D01*
X444449Y516313D01*
X444466Y516411D01*
X444480Y516509D01*
X444489Y516608D01*
X444495Y516708D01*
X444497Y516807D01*
X439725Y512670D02*
X439640Y512618D01*
X439557Y512563D01*
X439477Y512504D01*
X439399Y512443D01*
X439323Y512378D01*
X439250Y512311D01*
X439180Y512241D01*
X439112Y512168D01*
X439047Y512093D01*
X438985Y512015D01*
X438926Y511935D01*
X438870Y511853D01*
X438818Y511768D01*
X438768Y511682D01*
X438722Y511594D01*
X438680Y511504D01*
X438641Y511413D01*
X438605Y511320D01*
X438573Y511226D01*
X438545Y511130D01*
X438521Y511034D01*
X438500Y510937D01*
X438483Y510839D01*
X438469Y510741D01*
X438460Y510642D01*
X438454Y510542D01*
X438452Y510443D01*
X439724Y512671D02*
X443224Y514580D01*
X433280Y519353D02*
X433280Y507898D01*
X433280Y519353D02*
X430098Y519353D01*
X429987Y519351D01*
X429876Y519345D01*
X429765Y519336D01*
X429655Y519322D01*
X429545Y519305D01*
X429436Y519283D01*
X429328Y519258D01*
X429221Y519230D01*
X429115Y519197D01*
X429010Y519161D01*
X428906Y519121D01*
X428804Y519078D01*
X428703Y519031D01*
X428604Y518981D01*
X428507Y518927D01*
X428412Y518869D01*
X428319Y518809D01*
X428228Y518745D01*
X428139Y518678D01*
X428053Y518609D01*
X427969Y518536D01*
X427888Y518460D01*
X427809Y518381D01*
X427733Y518300D01*
X427660Y518216D01*
X427591Y518130D01*
X427524Y518041D01*
X427460Y517950D01*
X427400Y517857D01*
X427342Y517762D01*
X427288Y517665D01*
X427238Y517566D01*
X427191Y517465D01*
X427148Y517363D01*
X427108Y517259D01*
X427072Y517154D01*
X427039Y517048D01*
X427011Y516941D01*
X426986Y516833D01*
X426964Y516724D01*
X426947Y516614D01*
X426933Y516504D01*
X426924Y516393D01*
X426918Y516282D01*
X426916Y516171D01*
X426918Y516060D01*
X426924Y515949D01*
X426933Y515838D01*
X426947Y515728D01*
X426964Y515618D01*
X426986Y515509D01*
X427011Y515401D01*
X427039Y515294D01*
X427072Y515188D01*
X427108Y515083D01*
X427148Y514979D01*
X427191Y514877D01*
X427238Y514776D01*
X427288Y514677D01*
X427342Y514580D01*
X427400Y514485D01*
X427460Y514392D01*
X427524Y514301D01*
X427591Y514212D01*
X427660Y514126D01*
X427733Y514042D01*
X427809Y513961D01*
X427888Y513882D01*
X427969Y513806D01*
X428053Y513733D01*
X428139Y513664D01*
X428228Y513597D01*
X428319Y513533D01*
X428412Y513473D01*
X428507Y513415D01*
X428604Y513361D01*
X428703Y513311D01*
X428804Y513264D01*
X428906Y513221D01*
X429010Y513181D01*
X429115Y513145D01*
X429221Y513112D01*
X429328Y513084D01*
X429436Y513059D01*
X429545Y513037D01*
X429655Y513020D01*
X429765Y513006D01*
X429876Y512997D01*
X429987Y512991D01*
X430098Y512989D01*
X433280Y512989D01*
X429461Y512989D02*
X426916Y507898D01*
X421910Y514262D02*
X418092Y514262D01*
X417992Y514260D01*
X417892Y514254D01*
X417793Y514244D01*
X417694Y514231D01*
X417595Y514213D01*
X417498Y514192D01*
X417401Y514166D01*
X417305Y514137D01*
X417211Y514105D01*
X417118Y514068D01*
X417026Y514028D01*
X416936Y513985D01*
X416848Y513937D01*
X416762Y513887D01*
X416678Y513833D01*
X416595Y513776D01*
X416516Y513715D01*
X416439Y513652D01*
X416364Y513586D01*
X416292Y513516D01*
X416222Y513444D01*
X416156Y513369D01*
X416093Y513292D01*
X416032Y513213D01*
X415975Y513130D01*
X415921Y513046D01*
X415871Y512960D01*
X415823Y512872D01*
X415780Y512782D01*
X415740Y512690D01*
X415703Y512597D01*
X415671Y512503D01*
X415642Y512407D01*
X415616Y512310D01*
X415595Y512213D01*
X415577Y512114D01*
X415564Y512015D01*
X415554Y511916D01*
X415548Y511816D01*
X415546Y511716D01*
X415546Y511080D01*
X415548Y510969D01*
X415554Y510858D01*
X415563Y510747D01*
X415577Y510637D01*
X415594Y510527D01*
X415616Y510418D01*
X415641Y510310D01*
X415669Y510203D01*
X415702Y510097D01*
X415738Y509992D01*
X415778Y509888D01*
X415821Y509786D01*
X415868Y509685D01*
X415918Y509586D01*
X415972Y509489D01*
X416030Y509394D01*
X416090Y509301D01*
X416154Y509210D01*
X416221Y509121D01*
X416290Y509035D01*
X416363Y508951D01*
X416439Y508870D01*
X416518Y508791D01*
X416599Y508715D01*
X416683Y508642D01*
X416769Y508573D01*
X416858Y508506D01*
X416949Y508442D01*
X417042Y508382D01*
X417137Y508324D01*
X417234Y508270D01*
X417333Y508220D01*
X417434Y508173D01*
X417536Y508130D01*
X417640Y508090D01*
X417745Y508054D01*
X417851Y508021D01*
X417958Y507993D01*
X418066Y507968D01*
X418175Y507946D01*
X418285Y507929D01*
X418395Y507915D01*
X418506Y507906D01*
X418617Y507900D01*
X418728Y507898D01*
X418839Y507900D01*
X418950Y507906D01*
X419061Y507915D01*
X419171Y507929D01*
X419281Y507946D01*
X419390Y507968D01*
X419498Y507993D01*
X419605Y508021D01*
X419711Y508054D01*
X419816Y508090D01*
X419920Y508130D01*
X420022Y508173D01*
X420123Y508220D01*
X420222Y508270D01*
X420319Y508324D01*
X420414Y508382D01*
X420507Y508442D01*
X420598Y508506D01*
X420687Y508573D01*
X420773Y508642D01*
X420857Y508715D01*
X420938Y508791D01*
X421017Y508870D01*
X421093Y508951D01*
X421166Y509035D01*
X421235Y509121D01*
X421302Y509210D01*
X421366Y509301D01*
X421426Y509394D01*
X421484Y509489D01*
X421538Y509586D01*
X421588Y509685D01*
X421635Y509786D01*
X421678Y509888D01*
X421718Y509992D01*
X421754Y510097D01*
X421787Y510203D01*
X421815Y510310D01*
X421840Y510418D01*
X421862Y510527D01*
X421879Y510637D01*
X421893Y510747D01*
X421902Y510858D01*
X421908Y510969D01*
X421910Y511080D01*
X421910Y514262D01*
X421908Y514402D01*
X421902Y514542D01*
X421893Y514682D01*
X421879Y514822D01*
X421862Y514961D01*
X421841Y515100D01*
X421816Y515238D01*
X421787Y515375D01*
X421754Y515512D01*
X421718Y515647D01*
X421678Y515782D01*
X421634Y515915D01*
X421587Y516047D01*
X421536Y516178D01*
X421481Y516307D01*
X421423Y516435D01*
X421361Y516561D01*
X421296Y516685D01*
X421228Y516807D01*
X421156Y516928D01*
X421081Y517046D01*
X421003Y517163D01*
X420921Y517277D01*
X420837Y517389D01*
X420749Y517498D01*
X420658Y517606D01*
X420565Y517710D01*
X420468Y517812D01*
X420369Y517911D01*
X420267Y518008D01*
X420163Y518101D01*
X420055Y518192D01*
X419946Y518279D01*
X419834Y518364D01*
X419720Y518446D01*
X419604Y518524D01*
X419485Y518599D01*
X419365Y518671D01*
X419242Y518739D01*
X419118Y518804D01*
X418992Y518866D01*
X418864Y518924D01*
X418735Y518979D01*
X418604Y519030D01*
X418472Y519077D01*
X418339Y519121D01*
X418204Y519161D01*
X418069Y519197D01*
X417932Y519230D01*
X417795Y519259D01*
X417657Y519284D01*
X417518Y519305D01*
X417379Y519322D01*
X417239Y519336D01*
X417100Y519345D01*
X416959Y519351D01*
X416819Y519353D01*
D128*
X400442Y350800D02*
X400442Y249200D01*
X439558Y249200D02*
X439558Y350800D01*
X439558Y249200D02*
X400442Y249200D01*
X413650Y350800D02*
X413652Y350642D01*
X413658Y350483D01*
X413668Y350325D01*
X413682Y350168D01*
X413699Y350010D01*
X413721Y349854D01*
X413746Y349697D01*
X413776Y349542D01*
X413809Y349387D01*
X413846Y349233D01*
X413887Y349080D01*
X413932Y348928D01*
X413981Y348778D01*
X414033Y348628D01*
X414089Y348480D01*
X414149Y348333D01*
X414212Y348188D01*
X414279Y348045D01*
X414349Y347903D01*
X414423Y347763D01*
X414501Y347625D01*
X414582Y347489D01*
X414666Y347355D01*
X414753Y347223D01*
X414844Y347093D01*
X414938Y346966D01*
X415035Y346841D01*
X415136Y346718D01*
X415239Y346598D01*
X415345Y346481D01*
X415454Y346366D01*
X415566Y346254D01*
X415681Y346145D01*
X415798Y346039D01*
X415918Y345936D01*
X416041Y345835D01*
X416166Y345738D01*
X416293Y345644D01*
X416423Y345553D01*
X416555Y345466D01*
X416689Y345382D01*
X416825Y345301D01*
X416963Y345223D01*
X417103Y345149D01*
X417245Y345079D01*
X417388Y345012D01*
X417533Y344949D01*
X417680Y344889D01*
X417828Y344833D01*
X417978Y344781D01*
X418128Y344732D01*
X418280Y344687D01*
X418433Y344646D01*
X418587Y344609D01*
X418742Y344576D01*
X418897Y344546D01*
X419054Y344521D01*
X419210Y344499D01*
X419368Y344482D01*
X419525Y344468D01*
X419683Y344458D01*
X419842Y344452D01*
X420000Y344450D01*
X420158Y344452D01*
X420317Y344458D01*
X420475Y344468D01*
X420632Y344482D01*
X420790Y344499D01*
X420946Y344521D01*
X421103Y344546D01*
X421258Y344576D01*
X421413Y344609D01*
X421567Y344646D01*
X421720Y344687D01*
X421872Y344732D01*
X422022Y344781D01*
X422172Y344833D01*
X422320Y344889D01*
X422467Y344949D01*
X422612Y345012D01*
X422755Y345079D01*
X422897Y345149D01*
X423037Y345223D01*
X423175Y345301D01*
X423311Y345382D01*
X423445Y345466D01*
X423577Y345553D01*
X423707Y345644D01*
X423834Y345738D01*
X423959Y345835D01*
X424082Y345936D01*
X424202Y346039D01*
X424319Y346145D01*
X424434Y346254D01*
X424546Y346366D01*
X424655Y346481D01*
X424761Y346598D01*
X424864Y346718D01*
X424965Y346841D01*
X425062Y346966D01*
X425156Y347093D01*
X425247Y347223D01*
X425334Y347355D01*
X425418Y347489D01*
X425499Y347625D01*
X425577Y347763D01*
X425651Y347903D01*
X425721Y348045D01*
X425788Y348188D01*
X425851Y348333D01*
X425911Y348480D01*
X425967Y348628D01*
X426019Y348778D01*
X426068Y348928D01*
X426113Y349080D01*
X426154Y349233D01*
X426191Y349387D01*
X426224Y349542D01*
X426254Y349697D01*
X426279Y349854D01*
X426301Y350010D01*
X426318Y350168D01*
X426332Y350325D01*
X426342Y350483D01*
X426348Y350642D01*
X426350Y350800D01*
D129*
X436002Y350800D02*
X436002Y249200D01*
D128*
X439558Y350800D02*
X426350Y350800D01*
X413650Y350800D02*
X400442Y350800D01*
D130*
X438451Y360443D02*
X438453Y360343D01*
X438459Y360243D01*
X438469Y360144D01*
X438482Y360045D01*
X438500Y359946D01*
X438521Y359849D01*
X438547Y359752D01*
X438576Y359656D01*
X438608Y359562D01*
X438645Y359469D01*
X438685Y359377D01*
X438728Y359287D01*
X438776Y359199D01*
X438826Y359113D01*
X438880Y359029D01*
X438937Y358946D01*
X438998Y358867D01*
X439061Y358790D01*
X439127Y358715D01*
X439197Y358643D01*
X439269Y358573D01*
X439344Y358507D01*
X439421Y358444D01*
X439500Y358383D01*
X439583Y358326D01*
X439667Y358272D01*
X439753Y358222D01*
X439841Y358174D01*
X439931Y358131D01*
X440023Y358091D01*
X440116Y358054D01*
X440210Y358022D01*
X440306Y357993D01*
X440403Y357967D01*
X440500Y357946D01*
X440599Y357928D01*
X440698Y357915D01*
X440797Y357905D01*
X440897Y357899D01*
X440997Y357897D01*
X440997Y357898D02*
X441139Y357900D01*
X441280Y357905D01*
X441421Y357915D01*
X441562Y357928D01*
X441703Y357944D01*
X441843Y357965D01*
X441982Y357989D01*
X442121Y358017D01*
X442259Y358048D01*
X442396Y358083D01*
X442532Y358122D01*
X442667Y358164D01*
X442801Y358210D01*
X442934Y358259D01*
X443065Y358312D01*
X443195Y358368D01*
X443323Y358427D01*
X443450Y358490D01*
X443575Y358556D01*
X443698Y358626D01*
X443820Y358699D01*
X443939Y358774D01*
X444057Y358853D01*
X444172Y358936D01*
X444285Y359021D01*
X444396Y359109D01*
X444504Y359199D01*
X444611Y359293D01*
X444714Y359390D01*
X444815Y359489D01*
X444497Y366807D02*
X444495Y366907D01*
X444489Y367007D01*
X444479Y367106D01*
X444466Y367205D01*
X444448Y367304D01*
X444427Y367401D01*
X444401Y367498D01*
X444372Y367594D01*
X444340Y367688D01*
X444303Y367781D01*
X444263Y367873D01*
X444220Y367963D01*
X444172Y368051D01*
X444122Y368137D01*
X444068Y368221D01*
X444011Y368304D01*
X443950Y368383D01*
X443887Y368460D01*
X443821Y368535D01*
X443751Y368607D01*
X443679Y368677D01*
X443604Y368743D01*
X443527Y368806D01*
X443448Y368867D01*
X443365Y368924D01*
X443281Y368978D01*
X443195Y369028D01*
X443107Y369076D01*
X443017Y369119D01*
X442925Y369159D01*
X442832Y369196D01*
X442738Y369228D01*
X442642Y369257D01*
X442545Y369283D01*
X442448Y369304D01*
X442349Y369322D01*
X442250Y369335D01*
X442151Y369345D01*
X442051Y369351D01*
X441951Y369353D01*
X441817Y369351D01*
X441684Y369346D01*
X441551Y369336D01*
X441418Y369323D01*
X441285Y369306D01*
X441154Y369286D01*
X441022Y369262D01*
X440892Y369234D01*
X440762Y369202D01*
X440633Y369167D01*
X440505Y369129D01*
X440378Y369087D01*
X440253Y369041D01*
X440129Y368992D01*
X440006Y368939D01*
X439885Y368883D01*
X439765Y368823D01*
X439648Y368760D01*
X439532Y368694D01*
X439417Y368625D01*
X439305Y368553D01*
X439195Y368477D01*
X439087Y368398D01*
X443224Y364580D02*
X443309Y364632D01*
X443392Y364687D01*
X443472Y364746D01*
X443550Y364807D01*
X443626Y364872D01*
X443699Y364939D01*
X443769Y365009D01*
X443837Y365082D01*
X443902Y365157D01*
X443964Y365235D01*
X444023Y365315D01*
X444079Y365397D01*
X444131Y365482D01*
X444181Y365568D01*
X444227Y365656D01*
X444269Y365746D01*
X444308Y365837D01*
X444344Y365930D01*
X444376Y366024D01*
X444404Y366120D01*
X444428Y366216D01*
X444449Y366313D01*
X444466Y366411D01*
X444480Y366509D01*
X444489Y366608D01*
X444495Y366708D01*
X444497Y366807D01*
X439725Y362670D02*
X439640Y362618D01*
X439557Y362563D01*
X439477Y362504D01*
X439399Y362443D01*
X439323Y362378D01*
X439250Y362311D01*
X439180Y362241D01*
X439112Y362168D01*
X439047Y362093D01*
X438985Y362015D01*
X438926Y361935D01*
X438870Y361853D01*
X438818Y361768D01*
X438768Y361682D01*
X438722Y361594D01*
X438680Y361504D01*
X438641Y361413D01*
X438605Y361320D01*
X438573Y361226D01*
X438545Y361130D01*
X438521Y361034D01*
X438500Y360937D01*
X438483Y360839D01*
X438469Y360741D01*
X438460Y360642D01*
X438454Y360542D01*
X438452Y360443D01*
X439724Y362671D02*
X443224Y364580D01*
X433280Y369353D02*
X433280Y357898D01*
X433280Y369353D02*
X430098Y369353D01*
X429987Y369351D01*
X429876Y369345D01*
X429765Y369336D01*
X429655Y369322D01*
X429545Y369305D01*
X429436Y369283D01*
X429328Y369258D01*
X429221Y369230D01*
X429115Y369197D01*
X429010Y369161D01*
X428906Y369121D01*
X428804Y369078D01*
X428703Y369031D01*
X428604Y368981D01*
X428507Y368927D01*
X428412Y368869D01*
X428319Y368809D01*
X428228Y368745D01*
X428139Y368678D01*
X428053Y368609D01*
X427969Y368536D01*
X427888Y368460D01*
X427809Y368381D01*
X427733Y368300D01*
X427660Y368216D01*
X427591Y368130D01*
X427524Y368041D01*
X427460Y367950D01*
X427400Y367857D01*
X427342Y367762D01*
X427288Y367665D01*
X427238Y367566D01*
X427191Y367465D01*
X427148Y367363D01*
X427108Y367259D01*
X427072Y367154D01*
X427039Y367048D01*
X427011Y366941D01*
X426986Y366833D01*
X426964Y366724D01*
X426947Y366614D01*
X426933Y366504D01*
X426924Y366393D01*
X426918Y366282D01*
X426916Y366171D01*
X426918Y366060D01*
X426924Y365949D01*
X426933Y365838D01*
X426947Y365728D01*
X426964Y365618D01*
X426986Y365509D01*
X427011Y365401D01*
X427039Y365294D01*
X427072Y365188D01*
X427108Y365083D01*
X427148Y364979D01*
X427191Y364877D01*
X427238Y364776D01*
X427288Y364677D01*
X427342Y364580D01*
X427400Y364485D01*
X427460Y364392D01*
X427524Y364301D01*
X427591Y364212D01*
X427660Y364126D01*
X427733Y364042D01*
X427809Y363961D01*
X427888Y363882D01*
X427969Y363806D01*
X428053Y363733D01*
X428139Y363664D01*
X428228Y363597D01*
X428319Y363533D01*
X428412Y363473D01*
X428507Y363415D01*
X428604Y363361D01*
X428703Y363311D01*
X428804Y363264D01*
X428906Y363221D01*
X429010Y363181D01*
X429115Y363145D01*
X429221Y363112D01*
X429328Y363084D01*
X429436Y363059D01*
X429545Y363037D01*
X429655Y363020D01*
X429765Y363006D01*
X429876Y362997D01*
X429987Y362991D01*
X430098Y362989D01*
X433280Y362989D01*
X429461Y362989D02*
X426916Y357898D01*
X421910Y368080D02*
X421910Y369353D01*
X415546Y369353D01*
X418728Y357898D01*
D128*
X400442Y200800D02*
X400442Y99200D01*
X439558Y99200D02*
X439558Y200800D01*
X439558Y99200D02*
X400442Y99200D01*
X413650Y200800D02*
X413652Y200642D01*
X413658Y200483D01*
X413668Y200325D01*
X413682Y200168D01*
X413699Y200010D01*
X413721Y199854D01*
X413746Y199697D01*
X413776Y199542D01*
X413809Y199387D01*
X413846Y199233D01*
X413887Y199080D01*
X413932Y198928D01*
X413981Y198778D01*
X414033Y198628D01*
X414089Y198480D01*
X414149Y198333D01*
X414212Y198188D01*
X414279Y198045D01*
X414349Y197903D01*
X414423Y197763D01*
X414501Y197625D01*
X414582Y197489D01*
X414666Y197355D01*
X414753Y197223D01*
X414844Y197093D01*
X414938Y196966D01*
X415035Y196841D01*
X415136Y196718D01*
X415239Y196598D01*
X415345Y196481D01*
X415454Y196366D01*
X415566Y196254D01*
X415681Y196145D01*
X415798Y196039D01*
X415918Y195936D01*
X416041Y195835D01*
X416166Y195738D01*
X416293Y195644D01*
X416423Y195553D01*
X416555Y195466D01*
X416689Y195382D01*
X416825Y195301D01*
X416963Y195223D01*
X417103Y195149D01*
X417245Y195079D01*
X417388Y195012D01*
X417533Y194949D01*
X417680Y194889D01*
X417828Y194833D01*
X417978Y194781D01*
X418128Y194732D01*
X418280Y194687D01*
X418433Y194646D01*
X418587Y194609D01*
X418742Y194576D01*
X418897Y194546D01*
X419054Y194521D01*
X419210Y194499D01*
X419368Y194482D01*
X419525Y194468D01*
X419683Y194458D01*
X419842Y194452D01*
X420000Y194450D01*
X420158Y194452D01*
X420317Y194458D01*
X420475Y194468D01*
X420632Y194482D01*
X420790Y194499D01*
X420946Y194521D01*
X421103Y194546D01*
X421258Y194576D01*
X421413Y194609D01*
X421567Y194646D01*
X421720Y194687D01*
X421872Y194732D01*
X422022Y194781D01*
X422172Y194833D01*
X422320Y194889D01*
X422467Y194949D01*
X422612Y195012D01*
X422755Y195079D01*
X422897Y195149D01*
X423037Y195223D01*
X423175Y195301D01*
X423311Y195382D01*
X423445Y195466D01*
X423577Y195553D01*
X423707Y195644D01*
X423834Y195738D01*
X423959Y195835D01*
X424082Y195936D01*
X424202Y196039D01*
X424319Y196145D01*
X424434Y196254D01*
X424546Y196366D01*
X424655Y196481D01*
X424761Y196598D01*
X424864Y196718D01*
X424965Y196841D01*
X425062Y196966D01*
X425156Y197093D01*
X425247Y197223D01*
X425334Y197355D01*
X425418Y197489D01*
X425499Y197625D01*
X425577Y197763D01*
X425651Y197903D01*
X425721Y198045D01*
X425788Y198188D01*
X425851Y198333D01*
X425911Y198480D01*
X425967Y198628D01*
X426019Y198778D01*
X426068Y198928D01*
X426113Y199080D01*
X426154Y199233D01*
X426191Y199387D01*
X426224Y199542D01*
X426254Y199697D01*
X426279Y199854D01*
X426301Y200010D01*
X426318Y200168D01*
X426332Y200325D01*
X426342Y200483D01*
X426348Y200642D01*
X426350Y200800D01*
D129*
X436002Y200800D02*
X436002Y99200D01*
D128*
X439558Y200800D02*
X426350Y200800D01*
X413650Y200800D02*
X400442Y200800D01*
D130*
X438451Y210443D02*
X438453Y210343D01*
X438459Y210243D01*
X438469Y210144D01*
X438482Y210045D01*
X438500Y209946D01*
X438521Y209849D01*
X438547Y209752D01*
X438576Y209656D01*
X438608Y209562D01*
X438645Y209469D01*
X438685Y209377D01*
X438728Y209287D01*
X438776Y209199D01*
X438826Y209113D01*
X438880Y209029D01*
X438937Y208946D01*
X438998Y208867D01*
X439061Y208790D01*
X439127Y208715D01*
X439197Y208643D01*
X439269Y208573D01*
X439344Y208507D01*
X439421Y208444D01*
X439500Y208383D01*
X439583Y208326D01*
X439667Y208272D01*
X439753Y208222D01*
X439841Y208174D01*
X439931Y208131D01*
X440023Y208091D01*
X440116Y208054D01*
X440210Y208022D01*
X440306Y207993D01*
X440403Y207967D01*
X440500Y207946D01*
X440599Y207928D01*
X440698Y207915D01*
X440797Y207905D01*
X440897Y207899D01*
X440997Y207897D01*
X440997Y207898D02*
X441139Y207900D01*
X441280Y207905D01*
X441421Y207915D01*
X441562Y207928D01*
X441703Y207944D01*
X441843Y207965D01*
X441982Y207989D01*
X442121Y208017D01*
X442259Y208048D01*
X442396Y208083D01*
X442532Y208122D01*
X442667Y208164D01*
X442801Y208210D01*
X442934Y208259D01*
X443065Y208312D01*
X443195Y208368D01*
X443323Y208427D01*
X443450Y208490D01*
X443575Y208556D01*
X443698Y208626D01*
X443820Y208699D01*
X443939Y208774D01*
X444057Y208853D01*
X444172Y208936D01*
X444285Y209021D01*
X444396Y209109D01*
X444504Y209199D01*
X444611Y209293D01*
X444714Y209390D01*
X444815Y209489D01*
X444497Y216807D02*
X444495Y216907D01*
X444489Y217007D01*
X444479Y217106D01*
X444466Y217205D01*
X444448Y217304D01*
X444427Y217401D01*
X444401Y217498D01*
X444372Y217594D01*
X444340Y217688D01*
X444303Y217781D01*
X444263Y217873D01*
X444220Y217963D01*
X444172Y218051D01*
X444122Y218137D01*
X444068Y218221D01*
X444011Y218304D01*
X443950Y218383D01*
X443887Y218460D01*
X443821Y218535D01*
X443751Y218607D01*
X443679Y218677D01*
X443604Y218743D01*
X443527Y218806D01*
X443448Y218867D01*
X443365Y218924D01*
X443281Y218978D01*
X443195Y219028D01*
X443107Y219076D01*
X443017Y219119D01*
X442925Y219159D01*
X442832Y219196D01*
X442738Y219228D01*
X442642Y219257D01*
X442545Y219283D01*
X442448Y219304D01*
X442349Y219322D01*
X442250Y219335D01*
X442151Y219345D01*
X442051Y219351D01*
X441951Y219353D01*
X441817Y219351D01*
X441684Y219346D01*
X441551Y219336D01*
X441418Y219323D01*
X441285Y219306D01*
X441154Y219286D01*
X441022Y219262D01*
X440892Y219234D01*
X440762Y219202D01*
X440633Y219167D01*
X440505Y219129D01*
X440378Y219087D01*
X440253Y219041D01*
X440129Y218992D01*
X440006Y218939D01*
X439885Y218883D01*
X439765Y218823D01*
X439648Y218760D01*
X439532Y218694D01*
X439417Y218625D01*
X439305Y218553D01*
X439195Y218477D01*
X439087Y218398D01*
X443224Y214580D02*
X443309Y214632D01*
X443392Y214687D01*
X443472Y214746D01*
X443550Y214807D01*
X443626Y214872D01*
X443699Y214939D01*
X443769Y215009D01*
X443837Y215082D01*
X443902Y215157D01*
X443964Y215235D01*
X444023Y215315D01*
X444079Y215397D01*
X444131Y215482D01*
X444181Y215568D01*
X444227Y215656D01*
X444269Y215746D01*
X444308Y215837D01*
X444344Y215930D01*
X444376Y216024D01*
X444404Y216120D01*
X444428Y216216D01*
X444449Y216313D01*
X444466Y216411D01*
X444480Y216509D01*
X444489Y216608D01*
X444495Y216708D01*
X444497Y216807D01*
X439725Y212670D02*
X439640Y212618D01*
X439557Y212563D01*
X439477Y212504D01*
X439399Y212443D01*
X439323Y212378D01*
X439250Y212311D01*
X439180Y212241D01*
X439112Y212168D01*
X439047Y212093D01*
X438985Y212015D01*
X438926Y211935D01*
X438870Y211853D01*
X438818Y211768D01*
X438768Y211682D01*
X438722Y211594D01*
X438680Y211504D01*
X438641Y211413D01*
X438605Y211320D01*
X438573Y211226D01*
X438545Y211130D01*
X438521Y211034D01*
X438500Y210937D01*
X438483Y210839D01*
X438469Y210741D01*
X438460Y210642D01*
X438454Y210542D01*
X438452Y210443D01*
X439724Y212671D02*
X443224Y214580D01*
X433280Y219353D02*
X433280Y207898D01*
X433280Y219353D02*
X430098Y219353D01*
X429987Y219351D01*
X429876Y219345D01*
X429765Y219336D01*
X429655Y219322D01*
X429545Y219305D01*
X429436Y219283D01*
X429328Y219258D01*
X429221Y219230D01*
X429115Y219197D01*
X429010Y219161D01*
X428906Y219121D01*
X428804Y219078D01*
X428703Y219031D01*
X428604Y218981D01*
X428507Y218927D01*
X428412Y218869D01*
X428319Y218809D01*
X428228Y218745D01*
X428139Y218678D01*
X428053Y218609D01*
X427969Y218536D01*
X427888Y218460D01*
X427809Y218381D01*
X427733Y218300D01*
X427660Y218216D01*
X427591Y218130D01*
X427524Y218041D01*
X427460Y217950D01*
X427400Y217857D01*
X427342Y217762D01*
X427288Y217665D01*
X427238Y217566D01*
X427191Y217465D01*
X427148Y217363D01*
X427108Y217259D01*
X427072Y217154D01*
X427039Y217048D01*
X427011Y216941D01*
X426986Y216833D01*
X426964Y216724D01*
X426947Y216614D01*
X426933Y216504D01*
X426924Y216393D01*
X426918Y216282D01*
X426916Y216171D01*
X426918Y216060D01*
X426924Y215949D01*
X426933Y215838D01*
X426947Y215728D01*
X426964Y215618D01*
X426986Y215509D01*
X427011Y215401D01*
X427039Y215294D01*
X427072Y215188D01*
X427108Y215083D01*
X427148Y214979D01*
X427191Y214877D01*
X427238Y214776D01*
X427288Y214677D01*
X427342Y214580D01*
X427400Y214485D01*
X427460Y214392D01*
X427524Y214301D01*
X427591Y214212D01*
X427660Y214126D01*
X427733Y214042D01*
X427809Y213961D01*
X427888Y213882D01*
X427969Y213806D01*
X428053Y213733D01*
X428139Y213664D01*
X428228Y213597D01*
X428319Y213533D01*
X428412Y213473D01*
X428507Y213415D01*
X428604Y213361D01*
X428703Y213311D01*
X428804Y213264D01*
X428906Y213221D01*
X429010Y213181D01*
X429115Y213145D01*
X429221Y213112D01*
X429328Y213084D01*
X429436Y213059D01*
X429545Y213037D01*
X429655Y213020D01*
X429765Y213006D01*
X429876Y212997D01*
X429987Y212991D01*
X430098Y212989D01*
X433280Y212989D01*
X429461Y212989D02*
X426916Y207898D01*
X421910Y211080D02*
X421908Y211191D01*
X421902Y211302D01*
X421893Y211413D01*
X421879Y211523D01*
X421862Y211633D01*
X421840Y211742D01*
X421815Y211850D01*
X421787Y211957D01*
X421754Y212063D01*
X421718Y212168D01*
X421678Y212272D01*
X421635Y212374D01*
X421588Y212475D01*
X421538Y212574D01*
X421484Y212671D01*
X421426Y212766D01*
X421366Y212859D01*
X421302Y212950D01*
X421235Y213039D01*
X421166Y213125D01*
X421093Y213209D01*
X421017Y213290D01*
X420938Y213369D01*
X420857Y213445D01*
X420773Y213518D01*
X420687Y213587D01*
X420598Y213654D01*
X420507Y213718D01*
X420414Y213778D01*
X420319Y213836D01*
X420222Y213890D01*
X420123Y213940D01*
X420022Y213987D01*
X419920Y214030D01*
X419816Y214070D01*
X419711Y214106D01*
X419605Y214139D01*
X419498Y214167D01*
X419390Y214192D01*
X419281Y214214D01*
X419171Y214231D01*
X419061Y214245D01*
X418950Y214254D01*
X418839Y214260D01*
X418728Y214262D01*
X418617Y214260D01*
X418506Y214254D01*
X418395Y214245D01*
X418285Y214231D01*
X418175Y214214D01*
X418066Y214192D01*
X417958Y214167D01*
X417851Y214139D01*
X417745Y214106D01*
X417640Y214070D01*
X417536Y214030D01*
X417434Y213987D01*
X417333Y213940D01*
X417234Y213890D01*
X417137Y213836D01*
X417042Y213778D01*
X416949Y213718D01*
X416858Y213654D01*
X416769Y213587D01*
X416683Y213518D01*
X416599Y213445D01*
X416518Y213369D01*
X416439Y213290D01*
X416363Y213209D01*
X416290Y213125D01*
X416221Y213039D01*
X416154Y212950D01*
X416090Y212859D01*
X416030Y212766D01*
X415972Y212671D01*
X415918Y212574D01*
X415868Y212475D01*
X415821Y212374D01*
X415778Y212272D01*
X415738Y212168D01*
X415702Y212063D01*
X415669Y211957D01*
X415641Y211850D01*
X415616Y211742D01*
X415594Y211633D01*
X415577Y211523D01*
X415563Y211413D01*
X415554Y211302D01*
X415548Y211191D01*
X415546Y211080D01*
X415548Y210969D01*
X415554Y210858D01*
X415563Y210747D01*
X415577Y210637D01*
X415594Y210527D01*
X415616Y210418D01*
X415641Y210310D01*
X415669Y210203D01*
X415702Y210097D01*
X415738Y209992D01*
X415778Y209888D01*
X415821Y209786D01*
X415868Y209685D01*
X415918Y209586D01*
X415972Y209489D01*
X416030Y209394D01*
X416090Y209301D01*
X416154Y209210D01*
X416221Y209121D01*
X416290Y209035D01*
X416363Y208951D01*
X416439Y208870D01*
X416518Y208791D01*
X416599Y208715D01*
X416683Y208642D01*
X416769Y208573D01*
X416858Y208506D01*
X416949Y208442D01*
X417042Y208382D01*
X417137Y208324D01*
X417234Y208270D01*
X417333Y208220D01*
X417434Y208173D01*
X417536Y208130D01*
X417640Y208090D01*
X417745Y208054D01*
X417851Y208021D01*
X417958Y207993D01*
X418066Y207968D01*
X418175Y207946D01*
X418285Y207929D01*
X418395Y207915D01*
X418506Y207906D01*
X418617Y207900D01*
X418728Y207898D01*
X418839Y207900D01*
X418950Y207906D01*
X419061Y207915D01*
X419171Y207929D01*
X419281Y207946D01*
X419390Y207968D01*
X419498Y207993D01*
X419605Y208021D01*
X419711Y208054D01*
X419816Y208090D01*
X419920Y208130D01*
X420022Y208173D01*
X420123Y208220D01*
X420222Y208270D01*
X420319Y208324D01*
X420414Y208382D01*
X420507Y208442D01*
X420598Y208506D01*
X420687Y208573D01*
X420773Y208642D01*
X420857Y208715D01*
X420938Y208791D01*
X421017Y208870D01*
X421093Y208951D01*
X421166Y209035D01*
X421235Y209121D01*
X421302Y209210D01*
X421366Y209301D01*
X421426Y209394D01*
X421484Y209489D01*
X421538Y209586D01*
X421588Y209685D01*
X421635Y209786D01*
X421678Y209888D01*
X421718Y209992D01*
X421754Y210097D01*
X421787Y210203D01*
X421815Y210310D01*
X421840Y210418D01*
X421862Y210527D01*
X421879Y210637D01*
X421893Y210747D01*
X421902Y210858D01*
X421908Y210969D01*
X421910Y211080D01*
X421274Y216807D02*
X421272Y216907D01*
X421266Y217007D01*
X421256Y217106D01*
X421243Y217205D01*
X421225Y217304D01*
X421204Y217401D01*
X421178Y217498D01*
X421149Y217594D01*
X421117Y217688D01*
X421080Y217781D01*
X421040Y217873D01*
X420997Y217963D01*
X420949Y218051D01*
X420899Y218137D01*
X420845Y218221D01*
X420788Y218304D01*
X420727Y218383D01*
X420664Y218460D01*
X420598Y218535D01*
X420528Y218607D01*
X420456Y218677D01*
X420381Y218743D01*
X420304Y218806D01*
X420225Y218867D01*
X420142Y218924D01*
X420058Y218978D01*
X419972Y219028D01*
X419884Y219076D01*
X419794Y219119D01*
X419702Y219159D01*
X419609Y219196D01*
X419515Y219228D01*
X419419Y219257D01*
X419322Y219283D01*
X419225Y219304D01*
X419126Y219322D01*
X419027Y219335D01*
X418928Y219345D01*
X418828Y219351D01*
X418728Y219353D01*
X418628Y219351D01*
X418528Y219345D01*
X418429Y219335D01*
X418330Y219322D01*
X418231Y219304D01*
X418134Y219283D01*
X418037Y219257D01*
X417941Y219228D01*
X417847Y219196D01*
X417754Y219159D01*
X417662Y219119D01*
X417572Y219076D01*
X417484Y219028D01*
X417398Y218978D01*
X417314Y218924D01*
X417231Y218867D01*
X417152Y218806D01*
X417075Y218743D01*
X417000Y218677D01*
X416928Y218607D01*
X416858Y218535D01*
X416792Y218460D01*
X416729Y218383D01*
X416668Y218304D01*
X416611Y218221D01*
X416557Y218137D01*
X416507Y218051D01*
X416459Y217963D01*
X416416Y217873D01*
X416376Y217781D01*
X416339Y217688D01*
X416307Y217594D01*
X416278Y217498D01*
X416252Y217401D01*
X416231Y217304D01*
X416213Y217205D01*
X416200Y217106D01*
X416190Y217007D01*
X416184Y216907D01*
X416182Y216807D01*
X416184Y216707D01*
X416190Y216607D01*
X416200Y216508D01*
X416213Y216409D01*
X416231Y216310D01*
X416252Y216213D01*
X416278Y216116D01*
X416307Y216020D01*
X416339Y215926D01*
X416376Y215833D01*
X416416Y215741D01*
X416459Y215651D01*
X416507Y215563D01*
X416557Y215477D01*
X416611Y215393D01*
X416668Y215310D01*
X416729Y215231D01*
X416792Y215154D01*
X416858Y215079D01*
X416928Y215007D01*
X417000Y214937D01*
X417075Y214871D01*
X417152Y214808D01*
X417231Y214747D01*
X417314Y214690D01*
X417398Y214636D01*
X417484Y214586D01*
X417572Y214538D01*
X417662Y214495D01*
X417754Y214455D01*
X417847Y214418D01*
X417941Y214386D01*
X418037Y214357D01*
X418134Y214331D01*
X418231Y214310D01*
X418330Y214292D01*
X418429Y214279D01*
X418528Y214269D01*
X418628Y214263D01*
X418728Y214261D01*
X418828Y214263D01*
X418928Y214269D01*
X419027Y214279D01*
X419126Y214292D01*
X419225Y214310D01*
X419322Y214331D01*
X419419Y214357D01*
X419515Y214386D01*
X419609Y214418D01*
X419702Y214455D01*
X419794Y214495D01*
X419884Y214538D01*
X419972Y214586D01*
X420058Y214636D01*
X420142Y214690D01*
X420225Y214747D01*
X420304Y214808D01*
X420381Y214871D01*
X420456Y214937D01*
X420528Y215007D01*
X420598Y215079D01*
X420664Y215154D01*
X420727Y215231D01*
X420788Y215310D01*
X420845Y215393D01*
X420899Y215477D01*
X420949Y215563D01*
X420997Y215651D01*
X421040Y215741D01*
X421080Y215833D01*
X421117Y215926D01*
X421149Y216020D01*
X421178Y216116D01*
X421204Y216213D01*
X421225Y216310D01*
X421243Y216409D01*
X421256Y216508D01*
X421266Y216607D01*
X421272Y216707D01*
X421274Y216807D01*
M02*
