G04 EAGLE Gerber RS-274X export*
G75*
%MOMM*%
%FSLAX34Y34*%
%LPD*%
%INSolderpaste Top*%
%IPPOS*%
%AMOC8*
5,1,8,0,0,1.08239X$1,22.5*%
G01*
%ADD10R,1.200000X1.200000*%
%ADD11R,1.300000X1.500000*%
%ADD12C,0.152500*%
%ADD13R,1.250000X0.250000*%
%ADD14R,2.050000X1.650000*%


D10*
X380500Y340000D03*
X359500Y340000D03*
X380500Y300000D03*
X359500Y300000D03*
X380500Y260000D03*
X359500Y260000D03*
X380500Y220000D03*
X359500Y220000D03*
D11*
X420500Y340000D03*
X439500Y340000D03*
X420500Y300000D03*
X439500Y300000D03*
X420500Y260000D03*
X439500Y260000D03*
X420500Y220000D03*
X439500Y220000D03*
D12*
X472562Y342012D02*
X490738Y342012D01*
X472562Y342012D02*
X472562Y346588D01*
X490738Y346588D01*
X490738Y342012D01*
X490738Y343461D02*
X472562Y343461D01*
X472562Y344910D02*
X490738Y344910D01*
X490738Y346359D02*
X472562Y346359D01*
X472562Y329312D02*
X490738Y329312D01*
X472562Y329312D02*
X472562Y333888D01*
X490738Y333888D01*
X490738Y329312D01*
X490738Y330761D02*
X472562Y330761D01*
X472562Y332210D02*
X490738Y332210D01*
X490738Y333659D02*
X472562Y333659D01*
X472562Y316612D02*
X490738Y316612D01*
X472562Y316612D02*
X472562Y321188D01*
X490738Y321188D01*
X490738Y316612D01*
X490738Y318061D02*
X472562Y318061D01*
X472562Y319510D02*
X490738Y319510D01*
X490738Y320959D02*
X472562Y320959D01*
X472562Y303912D02*
X490738Y303912D01*
X472562Y303912D02*
X472562Y308488D01*
X490738Y308488D01*
X490738Y303912D01*
X490738Y305361D02*
X472562Y305361D01*
X472562Y306810D02*
X490738Y306810D01*
X490738Y308259D02*
X472562Y308259D01*
X472562Y291212D02*
X490738Y291212D01*
X472562Y291212D02*
X472562Y295788D01*
X490738Y295788D01*
X490738Y291212D01*
X490738Y292661D02*
X472562Y292661D01*
X472562Y294110D02*
X490738Y294110D01*
X490738Y295559D02*
X472562Y295559D01*
X472562Y278512D02*
X490738Y278512D01*
X472562Y278512D02*
X472562Y283088D01*
X490738Y283088D01*
X490738Y278512D01*
X490738Y279961D02*
X472562Y279961D01*
X472562Y281410D02*
X490738Y281410D01*
X490738Y282859D02*
X472562Y282859D01*
X472562Y265812D02*
X490738Y265812D01*
X472562Y265812D02*
X472562Y270388D01*
X490738Y270388D01*
X490738Y265812D01*
X490738Y267261D02*
X472562Y267261D01*
X472562Y268710D02*
X490738Y268710D01*
X490738Y270159D02*
X472562Y270159D01*
X541862Y265812D02*
X560038Y265812D01*
X541862Y265812D02*
X541862Y270388D01*
X560038Y270388D01*
X560038Y265812D01*
X560038Y267261D02*
X541862Y267261D01*
X541862Y268710D02*
X560038Y268710D01*
X560038Y270159D02*
X541862Y270159D01*
X541862Y278512D02*
X560038Y278512D01*
X541862Y278512D02*
X541862Y283088D01*
X560038Y283088D01*
X560038Y278512D01*
X560038Y279961D02*
X541862Y279961D01*
X541862Y281410D02*
X560038Y281410D01*
X560038Y282859D02*
X541862Y282859D01*
X541862Y291212D02*
X560038Y291212D01*
X541862Y291212D02*
X541862Y295788D01*
X560038Y295788D01*
X560038Y291212D01*
X560038Y292661D02*
X541862Y292661D01*
X541862Y294110D02*
X560038Y294110D01*
X560038Y295559D02*
X541862Y295559D01*
X541862Y303912D02*
X560038Y303912D01*
X541862Y303912D02*
X541862Y308488D01*
X560038Y308488D01*
X560038Y303912D01*
X560038Y305361D02*
X541862Y305361D01*
X541862Y306810D02*
X560038Y306810D01*
X560038Y308259D02*
X541862Y308259D01*
X541862Y316612D02*
X560038Y316612D01*
X541862Y316612D02*
X541862Y321188D01*
X560038Y321188D01*
X560038Y316612D01*
X560038Y318061D02*
X541862Y318061D01*
X541862Y319510D02*
X560038Y319510D01*
X560038Y320959D02*
X541862Y320959D01*
X541862Y329312D02*
X560038Y329312D01*
X541862Y329312D02*
X541862Y333888D01*
X560038Y333888D01*
X560038Y329312D01*
X560038Y330761D02*
X541862Y330761D01*
X541862Y332210D02*
X560038Y332210D01*
X560038Y333659D02*
X541862Y333659D01*
X541862Y342012D02*
X560038Y342012D01*
X541862Y342012D02*
X541862Y346588D01*
X560038Y346588D01*
X560038Y342012D01*
X560038Y343461D02*
X541862Y343461D01*
X541862Y344910D02*
X560038Y344910D01*
X560038Y346359D02*
X541862Y346359D01*
D13*
X18900Y575500D03*
X18900Y580500D03*
X18900Y585500D03*
X18900Y590500D03*
X18900Y595500D03*
X18900Y600500D03*
X18900Y605500D03*
X18900Y610500D03*
X18900Y615500D03*
X18900Y620500D03*
X18900Y625500D03*
X18900Y630500D03*
X18900Y635500D03*
X18900Y640500D03*
X18900Y645500D03*
X18900Y650500D03*
X18900Y655500D03*
X18900Y660500D03*
X18900Y665500D03*
X18900Y670500D03*
D14*
X51400Y689500D03*
X51400Y556500D03*
D13*
X72500Y280500D03*
X72500Y285500D03*
X72500Y290500D03*
X72500Y295500D03*
X72500Y300500D03*
X72500Y305500D03*
X72500Y310500D03*
X72500Y315500D03*
X72500Y320500D03*
X72500Y325500D03*
X72500Y330500D03*
X72500Y335500D03*
X72500Y340500D03*
X72500Y345500D03*
X72500Y350500D03*
X72500Y355500D03*
X72500Y360500D03*
X72500Y365500D03*
X72500Y370500D03*
X72500Y375500D03*
D14*
X105000Y394500D03*
X105000Y261500D03*
D13*
X232500Y32500D03*
X232500Y37500D03*
X232500Y42500D03*
X232500Y47500D03*
X232500Y52500D03*
X232500Y57500D03*
X232500Y62500D03*
X232500Y67500D03*
X232500Y72500D03*
X232500Y77500D03*
X232500Y82500D03*
X232500Y87500D03*
X232500Y92500D03*
X232500Y97500D03*
X232500Y102500D03*
X232500Y107500D03*
X232500Y112500D03*
X232500Y117500D03*
X232500Y122500D03*
X232500Y127500D03*
D14*
X265000Y146500D03*
X265000Y13500D03*
D13*
X507500Y433500D03*
X507500Y438500D03*
X507500Y443500D03*
X507500Y448500D03*
X507500Y453500D03*
X507500Y458500D03*
X507500Y463500D03*
X507500Y468500D03*
X507500Y473500D03*
X507500Y478500D03*
X507500Y483500D03*
X507500Y488500D03*
X507500Y493500D03*
X507500Y498500D03*
X507500Y503500D03*
X507500Y508500D03*
X507500Y513500D03*
X507500Y518500D03*
X507500Y523500D03*
X507500Y528500D03*
D14*
X540000Y547500D03*
X540000Y414500D03*
M02*
