G04 EAGLE Gerber RS-274X export*
G75*
%MOMM*%
%FSLAX34Y34*%
%LPD*%
%INSolderpaste Bottom*%
%IPPOS*%
%AMOC8*
5,1,8,0,0,1.08239X$1,22.5*%
G01*
%ADD10R,1.200000X0.600000*%


D10*
X158000Y644450D03*
X158000Y631750D03*
X158000Y619050D03*
X158000Y606350D03*
X158000Y593650D03*
X158000Y580950D03*
X158000Y568250D03*
X158000Y555550D03*
X102000Y555550D03*
X102000Y568250D03*
X102000Y580950D03*
X102000Y593650D03*
X102000Y606350D03*
X102000Y619050D03*
X102000Y631750D03*
X102000Y644450D03*
X158000Y494450D03*
X158000Y481750D03*
X158000Y469050D03*
X158000Y456350D03*
X158000Y443650D03*
X158000Y430950D03*
X158000Y418250D03*
X158000Y405550D03*
X102000Y405550D03*
X102000Y418250D03*
X102000Y430950D03*
X102000Y443650D03*
X102000Y456350D03*
X102000Y469050D03*
X102000Y481750D03*
X102000Y494450D03*
X158000Y344450D03*
X158000Y331750D03*
X158000Y319050D03*
X158000Y306350D03*
X158000Y293650D03*
X158000Y280950D03*
X158000Y268250D03*
X158000Y255550D03*
X102000Y255550D03*
X102000Y268250D03*
X102000Y280950D03*
X102000Y293650D03*
X102000Y306350D03*
X102000Y319050D03*
X102000Y331750D03*
X102000Y344450D03*
X158000Y194450D03*
X158000Y181750D03*
X158000Y169050D03*
X158000Y156350D03*
X158000Y143650D03*
X158000Y130950D03*
X158000Y118250D03*
X158000Y105550D03*
X102000Y105550D03*
X102000Y118250D03*
X102000Y130950D03*
X102000Y143650D03*
X102000Y156350D03*
X102000Y169050D03*
X102000Y181750D03*
X102000Y194450D03*
X448000Y644450D03*
X448000Y631750D03*
X448000Y619050D03*
X448000Y606350D03*
X448000Y593650D03*
X448000Y580950D03*
X448000Y568250D03*
X448000Y555550D03*
X392000Y555550D03*
X392000Y568250D03*
X392000Y580950D03*
X392000Y593650D03*
X392000Y606350D03*
X392000Y619050D03*
X392000Y631750D03*
X392000Y644450D03*
X448000Y494450D03*
X448000Y481750D03*
X448000Y469050D03*
X448000Y456350D03*
X448000Y443650D03*
X448000Y430950D03*
X448000Y418250D03*
X448000Y405550D03*
X392000Y405550D03*
X392000Y418250D03*
X392000Y430950D03*
X392000Y443650D03*
X392000Y456350D03*
X392000Y469050D03*
X392000Y481750D03*
X392000Y494450D03*
X448000Y344450D03*
X448000Y331750D03*
X448000Y319050D03*
X448000Y306350D03*
X448000Y293650D03*
X448000Y280950D03*
X448000Y268250D03*
X448000Y255550D03*
X392000Y255550D03*
X392000Y268250D03*
X392000Y280950D03*
X392000Y293650D03*
X392000Y306350D03*
X392000Y319050D03*
X392000Y331750D03*
X392000Y344450D03*
X448000Y194450D03*
X448000Y181750D03*
X448000Y169050D03*
X448000Y156350D03*
X448000Y143650D03*
X448000Y130950D03*
X448000Y118250D03*
X448000Y105550D03*
X392000Y105550D03*
X392000Y118250D03*
X392000Y130950D03*
X392000Y143650D03*
X392000Y156350D03*
X392000Y169050D03*
X392000Y181750D03*
X392000Y194450D03*
M02*
