M48
;GenerationSoftware,Autodesk,EAGLE,9.6.2*%
;CreationDate,2023-06-06T05:44:11Z*%
FMAT,2
ICI,OFF
METRIC,TZ,000.000
T3C0.350
T2C1.016
T1C1.118
%
G90
M71
T1
X19425Y44400
X30220Y54560
X19425Y31700
X19425Y29160
X19425Y26620
X30220Y26620
X30220Y29160
X30220Y31700
X30220Y34240
X30220Y36780
X30220Y39320
X30220Y41860
X30220Y44400
X30220Y46940
X30220Y49480
X19425Y54560
X19425Y52020
X19425Y49480
X19425Y46940
X30220Y52020
X19425Y41860
X19425Y39320
X19425Y36780
X19425Y34240
T2
X55000Y59730
X55000Y62270
X55000Y10920
X55000Y13460
X55000Y16000
X55000Y18540
X55000Y21080
X50000Y59730
X50000Y62270
X50000Y10920
X50000Y16000
X50000Y18540
X50000Y21080
X50000Y13460
T3
X12192Y60046
X8230Y57607
X5791Y58217
X12344Y58522
X14021Y58064
X14478Y57150
X11430Y49225
X15697Y53645
X16307Y54407
X14630Y49378
X17983Y56540
X19964Y56236
X21184Y57912
X20726Y59284
X11735Y33223
X20269Y40691
X21793Y60350
X15850Y39624
X22098Y49835
X22403Y59588
X14935Y39624
X17678Y50902
X19964Y57150
X26060Y58369
X12344Y28194
X13868Y29261
X14326Y27584
X11735Y29413
X9754Y21184
X14630Y19507
X5944Y25908
X5944Y30328
X17069Y18136
X5334Y23774
X5334Y31090
X8534Y30937
X16916Y13716
X4724Y17069
X5334Y32004
X14326Y14326
X6553Y17069
X5944Y32766
X14630Y18136
X12954Y11887
X41300Y48768
X31699Y39167
X21793Y29870
X43739Y63856
X24384Y63856
X14630Y61265
X7620Y48920
X7620Y39167
X3200Y41910
X5029Y40234
X5486Y38862
X2438Y43586
X4420Y41605
X7620Y38252
X17374Y30632
X7315Y27280
X5944Y35509
X40691Y52883
X24384Y39472
X17983Y34442
X7620Y25146
X5944Y36424
X41910Y58217
X23012Y63398
X12802Y61570
X11278Y60046
X42062Y55931
X42977Y55931
X7010Y41148
X6706Y38862
X42520Y48158
X53492Y31699
X57607Y27584
X43586Y46177
X52578Y31699
X52578Y24994
X46025Y48158
X48920Y45263
X24536Y4877
X42520Y44958
X31394Y35357
X24232Y29870
X40691Y45568
X35662Y40538
X20422Y12802
X41758Y44348
X32004Y34595
X21031Y14935
X43586Y42367
X36119Y36119
X21641Y14173
X42367Y41758
X31394Y33071
X24689Y22708
X35357Y31242
X33833Y16612
X24536Y7315
X45872Y30023
X35662Y16764
X28194Y9296
X43434Y35357
X36119Y35204
X25756Y18440
X40386Y31090
X34900Y33071
X24536Y8687
X48006Y25451
X45872Y21031
X45872Y17526
X57455Y21031
X53340Y12040
X26975Y7772
X53492Y22250
X31699Y8687
X26975Y8687
X47396Y21946
X35966Y18136
X34442Y18898
X24536Y11735
X8992Y44501
X37948Y19964
X24841Y14326
X42977Y18136
X37948Y17526
X25908Y12344
X24079Y13564
X42215Y16002
X49682Y26213
X49682Y42215
X48616Y17221
X51968Y26213
X51359Y42520
X47854Y16154
X50902Y25298
X49530Y43434
X56845Y20269
X8687Y47092
X40843Y14478
X11582Y14326
X24079Y17221
X11735Y34138
X11430Y32004
X9144Y30023
X34442Y31242
X34442Y29718
X11735Y46787
X6096Y38100
X14783Y54712
X22860Y16612
X11582Y13411
X49530Y52426
X46025Y41300
X46177Y25603
X13106Y57760
X9296Y53950
X15850Y24689
X42062Y64465
X35052Y15240
X35052Y18136
X33528Y30785
X18136Y23927
X20879Y36881
X43586Y36424
X43434Y31547
X42062Y53492
X23622Y52121
X22708Y51206
X3048Y57150
X3658Y57912
X11887Y61570
X4572Y61570
X1981Y42367
X13716Y61570
X41605Y19507
M30